<svg id="Layer_1" data-name="Layer 1" xmlns="http://www.w3.org/2000/svg" viewBox="0 0 335.81 325.68"><title>Accident Report</title><rect x="284.79" y="80.86" width="31.41" height="126.94" style="fill:gray;stroke:gray;stroke-miterlimit:10"/><path d="M279.08,154.61s-.07.08-.16.08a45.26,45.26,0,0,1-17.52-2.33c-5.62-2-8.5-4.54-7.7-6.79s4.64-2.4,10.26-.4A45.26,45.26,0,0,1,279,154.44C279.07,154.5,279.09,154.56,279.08,154.61Zm-24.55-8.74c-1.07,3,5.09,5.45,7,6.13a44.72,44.72,0,0,0,16.55,2.26,44.73,44.73,0,0,0-14.25-8.71C261.91,144.86,255.59,142.87,254.53,145.86Z" style="fill:#ed6c00;stroke:#ed6c00;stroke-miterlimit:10"/><path d="M281.18,145.59s-.07,0-.11-.05a34.74,34.74,0,0,1-6.46-11.18c-1.4-4.14-1.3-6.93.27-7.46s3.34,1.63,4.73,5.77a34.74,34.74,0,0,1,1.64,12.81C281.23,145.54,281.21,145.58,281.18,145.59Zm-6.1-18.08c-2.09.7-.7,5.35-.22,6.76a34.35,34.35,0,0,0,6.08,10.59,34.35,34.35,0,0,0-1.58-12.11C278.87,131.34,277.16,126.8,275.07,127.51Z" style="fill:#ed6c00;stroke:#ed6c00;stroke-miterlimit:10"/><path d="M279.88,150.9s-.08,0-.14,0A42.52,42.52,0,0,1,268,141.43c-3.31-3.89-4.45-6.92-3.06-8.11s4.2.43,7.51,4.32a42.52,42.52,0,0,1,7.44,13.1C279.92,150.83,279.91,150.88,279.88,150.9Zm-14.45-17c-1.86,1.58,1.67,6,2.79,7.34a42.08,42.08,0,0,0,11.06,9,42.08,42.08,0,0,0-7.06-12.37C271.11,136.52,267.29,132.32,265.44,133.9Z" style="fill:#ed6c00;stroke:#ed6c00;stroke-miterlimit:10"/><rect x="307.2" y="80.86" width="9.67" height="126.94" style="fill:#666;stroke:#666;stroke-miterlimit:10"/><polygon points="32.72 153.14 39.73 150.91 47.09 149.1 54.59 146.92 60.43 144.26 65.12 141.41 70.76 137.53 76.25 134.02 83.37 130.35 87.23 128.73 92.08 126.94 92.77 132.95 86.6 132.28 82.75 138.47 79.33 145.22 78.37 148.71 78.37 150.91 79.83 150.91 83.03 152.03 93.72 152.37 198.82 155.69 201.96 154.7 203.15 153.47 204.15 149.88 203.45 147.64 201.23 144.62 199.84 143.39 200.37 141.9 218.45 152.68 221.48 153.66 227.38 154.45 236.2 155.85 243.75 157.34 252.11 159.41 253.96 159.94 253.35 162.01 253.44 164.81 254.22 168.44 256.07 172.81 258.27 175.97 261.05 177.91 263 178.62 266.48 179.54 271.81 180.48 273.54 181.02 274.18 186.27 274.24 190.06 273.87 195.05 273.06 198.57 272.47 199.52 254.02 199.52 253.35 191.46 250.91 185.82 247.4 180.56 242.87 176.62 238.93 174.13 233.52 172.67 228.75 172.03 224.61 172.38 220.23 173.4 215.99 175.74 212.19 177.78 209.42 181.02 207.49 183.63 205.62 186.99 204.15 191.41 203.45 195.9 204 199.52 91.95 199.26 91.81 194.15 90.35 188.6 87.28 182.9 82.45 177.45 77.2 174.43 70.77 172.38 64.93 172.23 58.65 173.26 53.38 175.89 48.13 179.98 44.91 184.07 42.72 188.74 41.53 193.13 41.53 199.52 27.27 199.52 24.34 198.73 22.26 196.69 21.45 194.01 21.34 181.69 21.82 177.45 29.02 177.28 34.03 176.49 37.58 174.82 39.6 172.03 40.71 168.41 41.18 163.47 41.14 160.09 40.47 157.91 37.92 155.69 32.72 153.14" style="fill:#40395f;stroke:#40395f;stroke-miterlimit:10"/><polygon points="88.71 128.13 89.06 130.08 91.54 129.95 92.36 130.9 93.46 133.31 93.32 134.44 92.52 135.83 89.74 140.56 87.18 145.13 134.09 146.61 133.3 141.85 132.61 137.65 131.87 133.17 131.28 129.54 131.72 127.33 133.03 125.72 134.16 125.53 135.3 125.53 137.13 126.6 138.17 128.41 138.73 132.3 141.33 147.82 196.29 148.81 200.39 141.85 193.58 138.15 178.55 131.46 162.8 126.47 148.66 123.84 134.2 122.69 122.08 122.69 110.36 123.3 99.92 124.82 88.71 128.13" style="fill:gray;stroke:gray;stroke-miterlimit:10"/><path d="M204,206.45H90.12a3.49,3.49,0,0,1,0-7H204a3.49,3.49,0,0,1,0,7Z" style="fill:#40395f"/><path d="M272.5,206.45H250.58a3.49,3.49,0,0,1,0-7H272.5c2-1.68,2.55-15.64.43-20.63a3.5,3.5,0,0,1-.23-1.89c.51-3.33-1.59-7.91-2.44-9.4h0s-6.93-8.77-48.75-13.94c-2.93-.5-6.26-2.6-11.28-5.77-9.45-6-25.26-16-49.1-21.79-19.24-4.71-50.95-4.67-66.54.1a81.92,81.92,0,0,0-26,12.85c-5.45,3.8-10.6,7.39-19.59,9.6l-2.94.7a101.52,101.52,0,0,0-13.3,3.79c-5.61,2.18-7.48,3.76-7.71,6.52-.76,9.41-1.86,13.14-2.66,15.87a19.27,19.27,0,0,0-1,6.16c-.1,4.62-.06,9,.11,12.32a5.81,5.81,0,0,0,5.81,5.51H43.07a3.49,3.49,0,0,1,0,7H27.29a12.79,12.79,0,0,1-12.79-12.14c-.17-3.49-.22-8-.12-12.82a26,26,0,0,1,1.3-8c.75-2.57,1.7-5.77,2.4-14.47.65-8,8.13-10.9,12.14-12.46a108.34,108.34,0,0,1,14.22-4.08l2.87-.69c7.74-1.9,11.94-4.83,17.27-8.54a87.94,87.94,0,0,1,28-13.8c16.55-5.06,50-5.15,70.23-.2,24.95,6.1,41.36,16.47,51.17,22.67,3.69,2.33,7.18,4.53,8.57,4.77,45.14,5.57,52.74,15.49,53.81,17.42.38.66,3.86,6.85,3.37,12.91,2.15,6.34,2.39,20.2-1.49,26.07A6.76,6.76,0,0,1,272.5,206.45Z" style="fill:#40395f"/><path d="M66.85,222.58a25.3,25.3,0,1,1,25.3-25.3A25.33,25.33,0,0,1,66.85,222.58Zm0-43.61a18.31,18.31,0,1,0,18.32,18.31A18.34,18.34,0,0,0,66.85,179Z" style="fill:#40395f"/><path d="M228.77,222.58a25.3,25.3,0,1,1,25.3-25.3A25.33,25.33,0,0,1,228.77,222.58Zm0-43.61a18.31,18.31,0,1,0,18.32,18.31A18.34,18.34,0,0,0,228.77,179Z" style="fill:#40395f"/><path d="M276.14,181l-.44,0c-5.63-.7-11.47-1.55-15.45-3.44-3.77-1.8-8.59-12.13-6.27-17.6.83-1.95,3.69-6.14,12.38-2.9a3.49,3.49,0,1,1-2.43,6.54c-2.83-1.05-3.74-.72-3.75-.72-.5,1.26,1.85,7.25,3.38,8.56,3,1.39,9.26,2.17,13,2.64a3.49,3.49,0,0,1-.43,7Z" style="fill:#40395f"/><path d="M24.47,177.4c-1.33,0-2.76,0-4.27-.1a3.49,3.49,0,0,1-3.32-3.65,3.6,3.6,0,0,1,3.65-3.32c7.59.35,11.8-.4,12.67-1,.35-.4,1.12-2.9,1-7.8a92.07,92.07,0,0,0-9-3.81,3.24,3.24,0,0,1-3.09-3.58A3.8,3.8,0,0,1,26,150.85c.15,0,14.88,3.92,15.14,8.59.46,8.4-.94,13.71-4.16,15.79C34.73,176.68,30.54,177.4,24.47,177.4Z" style="fill:#40395f"/><path d="M198.84,155.64h-.17l-60-1.89a4.22,4.22,0,0,1-4.06-3.67l-3.38-20.53a3.49,3.49,0,1,1,6.89-1.13l3,18.43,54.12,1.71a3.49,3.49,0,0,1,4.55-5.21,10.27,10.27,0,0,1,4,5.1,5.33,5.33,0,0,1-5,7.2Zm-57.31-6.75,0,.15Z" style="fill:#40395f"/><path d="M138.69,153.89h-.11l-57-1.81a3.58,3.58,0,0,1-3.14-2.15c-1.52-3.59,8.77-18.6,8.88-18.72A3.49,3.49,0,0,1,92.38,136c-.47.69-3.31,5.58-5.34,9.29l51.76,1.64a3.49,3.49,0,0,1-.11,7Z" style="fill:#40395f"/><polygon points="25.21 157.76 34.23 161.57 33.45 168.85 32.67 169.59 26.68 170.37 23.66 170.41 25.21 157.76" style="fill:#ed6c00;stroke:#ed6c00;stroke-miterlimit:10"/><polygon points="260.19 162.82 262.27 162.82 265.49 164.32 268.42 166.04 270.25 167.55 271.19 169.46 272.11 171.98 272.5 173.47 267.9 172.67 265.2 171.98 263.56 171.37 262.3 169.62 260.88 166.46 260.19 162.82" style="fill:#ed6c00;stroke:#ed6c00;stroke-miterlimit:10"/><path d="M276.7,153.74s-24.42-1.88-21.58-8.15S276.7,153.74,276.7,153.74Z" style="fill:#ed6c00;stroke:#ed6c00;stroke-miterlimit:10"/><path d="M278,149.61S260.23,137,265.26,133.53,278,149.61,278,149.61Z" style="fill:#ed6c00;stroke:#ed6c00;stroke-miterlimit:10"/><path d="M280.58,144s-10.35-15.34-5.31-16.6S280.58,144,280.58,144Z" style="fill:#ed6c00;stroke:#ed6c00;stroke-miterlimit:10"/></svg>