<?xml version="1.0" encoding="iso-8859-1"?>
<!-- Generator: Adobe Illustrator 18.0.0, SVG Export Plug-In . SVG Version: 6.00 Build 0)  -->
<!DOCTYPE svg PUBLIC "-//W3C//DTD SVG 1.1//EN" "http://www.w3.org/Graphics/SVG/1.1/DTD/svg11.dtd">
<svg version="1.1" id="Capa_1" xmlns="http://www.w3.org/2000/svg" xmlns:xlink="http://www.w3.org/1999/xlink" x="0px" y="0px"
	 viewBox="0 0 497.186 497.186" style="enable-background:new 0 0 497.186 497.186;" xml:space="preserve">
<g>
	<path d="M409.595,0H197.651c-22.646,0-41.048,18.415-41.048,41.044v13.968h-13.979c-22.63,0-41.064,18.398-41.064,41.043v14.016
		H87.613c-22.63,0-41.064,18.418-41.064,41.045v305.022c0,22.629,18.435,41.049,41.064,41.049h211.929
		c22.646,0,41.06-18.42,41.06-41.049v-13.979h13.968c22.63,0,41.059-18.417,41.059-41.063v-13.961h13.968
		c22.63,0,41.043-18.419,41.043-41.049V41.044C450.638,18.415,432.225,0,409.595,0z M307.832,456.138
		c0,4.569-3.727,8.278-8.29,8.278H87.613c-4.567,0-8.294-3.709-8.294-8.278V151.115c0-4.564,3.727-8.275,8.294-8.275h211.929
		c4.564,0,8.29,3.711,8.29,8.275V456.138z M362.842,401.096c0,4.584-3.705,8.295-8.273,8.295h-13.968V151.115
		c0-22.627-18.413-41.045-41.06-41.045H134.329V96.055c0-4.584,3.727-8.289,8.295-8.289h211.945c4.568,0,8.273,3.705,8.273,8.289
		V401.096z M417.869,346.086c0,4.567-3.705,8.273-8.273,8.273h-13.968V96.055c0-22.646-18.429-41.043-41.059-41.043H189.355V41.044
		c0-4.567,3.727-8.272,8.296-8.272h211.944c4.568,0,8.273,3.705,8.273,8.272V346.086z"/>
	<path d="M137.842,228.396h85.237c9.042,0,16.398-7.334,16.398-16.393c0-9.051-7.356-16.376-16.398-16.376h-85.237
		c-9.036,0-16.394,7.325-16.394,16.376C121.449,221.063,128.806,228.396,137.842,228.396z"/>
	<path d="M249.308,261.205H137.842c-9.036,0-16.394,7.336-16.394,16.391c0,9.054,7.357,16.379,16.394,16.379h111.466
		c9.058,0,16.377-7.325,16.377-16.379C265.685,268.541,258.366,261.205,249.308,261.205z"/>
	<path d="M249.308,326.775H137.842c-9.036,0-16.394,7.319-16.394,16.377c0,9.053,7.357,16.377,16.394,16.377h111.466
		c9.058,0,16.377-7.324,16.377-16.377C265.685,334.095,258.366,326.775,249.308,326.775z"/>
	<path d="M249.308,392.332H137.842c-9.036,0-16.394,7.318-16.394,16.375c0,9.054,7.357,16.394,16.394,16.394h111.466
		c9.058,0,16.377-7.34,16.377-16.394C265.685,399.65,258.366,392.332,249.308,392.332z"/>
</g>
<g>
</g>
<g>
</g>
<g>
</g>
<g>
</g>
<g>
</g>
<g>
</g>
<g>
</g>
<g>
</g>
<g>
</g>
<g>
</g>
<g>
</g>
<g>
</g>
<g>
</g>
<g>
</g>
<g>
</g>
</svg>
