<?xml version="1.0" encoding="utf-8"?>
<!--Designed by Vexels.com - 2017 All Rights Reserved - https://vexels.com/terms-and-conditions/-->
<svg version="1.1" id="Layer_1" xmlns="http://www.w3.org/2000/svg" xmlns:xlink="http://www.w3.org/1999/xlink" x="0px" y="0px"
	 viewBox="0 0 1200 1200" enable-background="new 0 0 1200 1200" xml:space="preserve">
<g>
	<g>
		<path fill="#FFFFFF" d="M933.2,1061.118c7.429-19.456,14.542-40.254,21.281-62.509c0,0-41.689-185.549-142.891-233.105
			c-101.201-47.56-222.12-18.372-218.024,17.045c4.089,35.411,41.256,105.397-15.538,157.317c0,0-16.869,55.035-32.886,121.251
			H933.2z"/>
	</g>
	<g>
		<g>
			<path fill="#FFFFFF" d="M686.451,762.749c-280.443,59.149-426.412-220.317-337.555-435.757
				c88.862-215.447,513.583-269.808,648.394-24.798c157.8,286.803-114.064,425.532-114.064,425.532s141.07,121.566,49.973,333.393"
				/>
		</g>
		<g>
			<path fill="#315934" d="M933.199,1068.758c-1.007,0-2.031-0.201-3.015-0.624c-3.873-1.666-5.663-6.158-3.997-10.033
				c45.997-106.958,30.363-189.637,9.148-240.158c-22.92-54.583-56.753-84.14-57.091-84.434c-1.927-1.658-2.899-4.169-2.595-6.692
				c0.301-2.526,1.842-4.736,4.104-5.892c1.124-0.577,112.88-58.901,148.309-174.505c22.522-73.498,9.919-154.431-37.463-240.545
				C932.07,199.502,810.184,140.867,664.578,149.008c-143.275,8.018-267.301,80.715-308.622,180.894
				c-46.235,112.104-27.414,247.407,46.837,336.688c67.609,81.294,167.781,112.8,282.082,88.687c4.132-0.87,8.176,1.772,9.049,5.897
				c0.87,4.127-1.77,8.179-5.897,9.049c-62.2,13.118-120.464,10.55-173.173-7.639c-47.796-16.491-90.608-46.307-123.805-86.226
				c-38.077-45.785-62.985-103.115-72.036-165.794c-9.175-63.55-1.283-128.034,22.823-186.482
				c22.276-54.006,66.023-100.65,126.515-134.889c56.261-31.844,125.647-51.53,195.374-55.433
				c69.734-3.9,137.082,7.612,194.691,33.301c63.49,28.312,113.824,73.768,145.564,131.453
				c49.482,89.932,62.481,174.898,38.636,252.535c-31.683,103.157-118.043,161.407-146.698,178.331
				c12.054,12.467,35.745,40.371,53.499,82.651c22.361,53.253,38.917,140.22-9.2,252.107
				C938.974,1067.028,936.157,1068.758,933.199,1068.758z"/>
		</g>
	</g>
	<g>
		<g>
			<path fill="#DAFBEB" d="M1035.588,541.144c0,0,69.304-358.289-320.659-402.839c0,0,277.868,146.642,230.405,545.236
				C945.334,683.541,1014.217,640.495,1035.588,541.144z"/>
		</g>
	</g>
	<g>
		<path fill="#315934" d="M418.813,518.739c7.733,48.452-0.979,90.119-19.468,93.07c-18.488,2.947-39.747-33.931-47.471-82.387
			c-7.742-48.448,0.98-90.112,19.466-93.069C389.834,433.411,411.081,470.294,418.813,518.739z"/>
	</g>
	<g>
		<path fill="#315934" d="M586.827,507.755c8.556,53.549-1.084,99.6-21.526,102.867c-20.432,3.26-43.924-37.509-52.466-91.052
			c-8.552-53.558,1.09-99.61,21.523-102.872C554.79,413.433,578.28,454.195,586.827,507.755z"/>
	</g>
	<g>
		<g>
			<g>
				<g>
					<path fill="#DAFBEB" d="M268.988,360.601l-55.378,9.237L230,468.114c-3.96,38.375-2.449,83.863,5.562,131.845
						c8.003,47.983,21.328,91.504,37.532,126.515l16.389,98.275l55.388-9.24c49.922-8.324,73.405-116.912,52.451-242.533
						C376.367,447.358,318.909,352.273,268.988,360.601z"/>
				</g>
				<g>
					<path fill="#315934" d="M289.483,832.387c-1.581,0-3.135-0.492-4.437-1.422c-1.648-1.176-2.762-2.961-3.095-4.959
						l-16.22-97.263c-16.879-36.742-29.91-80.812-37.701-127.527c-7.793-46.683-9.772-92.597-5.73-132.854l-16.223-97.268
						c-0.694-4.159,2.116-8.094,6.277-8.788l55.378-9.238l1.255,7.532l-1.255-7.532c27.407-4.577,56.852,16.564,82.823,59.542
						c24.727,40.92,44.01,97.427,54.299,159.112c10.289,61.685,10.391,121.391,0.286,168.121
						c-10.615,49.074-31.571,78.622-59.013,83.198l-55.386,9.24C290.321,832.352,289.901,832.387,289.483,832.387z M222.399,376.115
						l15.134,90.745c0.112,0.674,0.134,1.36,0.065,2.038c-4.042,39.165-2.14,84.051,5.496,129.804
						c7.637,45.788,20.407,88.861,36.931,124.566c0.286,0.619,0.49,1.275,0.602,1.951l15.134,90.74l47.854-7.982
						c20.546-3.426,37.53-29.438,46.598-71.363c9.705-44.885,9.556-102.553-0.423-162.381
						c-9.978-59.823-28.556-114.418-52.308-153.725c-22.187-36.712-46.688-55.821-67.239-52.375L222.399,376.115z"/>
				</g>
			</g>
			<g>
				<g>
					<path fill="#FFFFFF" d="M341.931,582.218c20.96,125.615-2.52,234.203-52.448,242.532
						c-49.91,8.33-107.365-86.757-128.324-212.379c-20.954-125.618,2.526-234.205,52.45-242.533
						C263.52,361.515,320.985,456.591,341.931,582.218z"/>
				</g>
				<g>
					<path fill="#315934" d="M283.32,832.896c-25.259,0-51.751-21.031-75.392-60.154c-24.725-40.923-44.01-97.43-54.302-159.115
						c-21.98-131.77,3.816-242.164,58.727-251.322c27.439-4.589,56.848,16.571,82.815,59.542
						c24.727,40.923,44.01,97.43,54.294,159.115v-0.003c10.294,61.685,10.396,121.389,0.291,168.119
						c-10.612,49.077-31.571,78.624-59.013,83.203C288.282,832.692,285.806,832.896,283.32,832.896z M219.659,376.978
						c-1.621,0-3.219,0.129-4.795,0.393c-44.913,7.492-66.058,114.533-46.173,233.744c9.981,59.826,28.558,114.421,52.311,153.728
						c22.184,36.714,46.713,55.813,67.224,52.375c20.548-3.428,37.535-29.44,46.601-71.365
						c9.707-44.888,9.556-102.553-0.428-162.376c0-0.003,0-0.003,0-0.003c-9.976-59.823-28.551-114.418-52.303-153.728
						C261.614,395.853,239.154,376.978,219.659,376.978z"/>
				</g>
			</g>
			<g>
				<g>
					<path fill="#85F1BE" d="M310.146,587.521c16.069,96.343,2.863,178.827-29.506,184.222
						c-32.357,5.402-71.625-68.326-87.692-164.67c-16.072-96.345-2.867-178.83,29.5-184.233
						C254.818,417.439,294.083,491.172,310.146,587.521z"/>
				</g>
				<g>
					<path fill="#315934" d="M277.118,779.673c-17.911,0.002-36.192-16.636-53.173-48.52
						c-16.944-31.817-30.626-75.437-38.529-122.826c-14.719-88.217-7.182-185.848,35.775-193.02
						c19.427-3.254,39.466,13.399,57.961,48.127c16.944,31.815,30.626,75.437,38.526,122.831l0,0
						c7.905,47.391,9.118,93.092,3.421,128.68c-6.222,38.847-19.778,61.093-39.203,64.33
						C280.308,779.541,278.714,779.673,277.118,779.673z M225.814,430.201c-0.716,0-1.419,0.057-2.108,0.172
						c-24.158,4.035-39.638,77.078-23.226,175.442c7.639,45.803,20.76,87.765,36.945,118.16
						c14.47,27.166,30.154,42.193,41.957,40.237c11.81-1.969,21.767-21.289,26.634-51.682c5.444-33.997,4.236-77.948-3.403-123.753
						l0,0c-7.637-45.805-20.757-87.77-36.943-118.162C252.048,445.031,237.344,430.201,225.814,430.201z"/>
				</g>
			</g>
			<g>
				<g>
					<path fill="#315934" d="M344.87,815.51c0,0,110.459,270.127,56.68,319.953c-51.765,47.953-105.539-163.592-94.892-312.8
						L344.87,815.51z"/>
				</g>
				<g>
					<path fill="#315934" d="M386.204,1150c-3.938,0-7.898-0.925-11.788-2.792c-49.089-23.554-84.078-203.11-75.375-325.088
						c0.246-3.463,2.799-6.324,6.212-6.963l38.213-7.154c3.557-0.661,7.102,1.265,8.472,4.616
						c0.278,0.681,28.019,68.777,48.786,142.101c28.976,102.297,30.942,163.249,6.016,186.345
						C400.349,1146.985,393.316,1150,386.204,1150z M313.89,829.08c-7.952,132.205,31.723,287.365,67.134,304.359
						c3.52,1.69,8.447,2.807,15.336-3.58c11.266-10.436,24.909-46.514-10.297-170.863c-17.058-60.251-38.897-116.976-45.952-134.825
						L313.89,829.08z"/>
				</g>
			</g>
		</g>
		<g>
			<g>
				<path fill="#FFFFFF" d="M436.371,961.81c0,0-6.07-47.431-41.715-52.703c-35.635-5.275-105.875-9.802-116.077,12.611
					c-10.207,22.421,28.513,50.004,28.513,50.004s-11.155,15.602-6.347,34.542c4.804,18.945,31.539,22.902,31.539,22.902
					s-21.926,28.383-10.465,41.581c11.464,13.198,92.23,1.3,92.23,1.3"/>
			</g>
			<g>
				<path fill="#315934" d="M355.824,1084.678c-17.983,0-33.9-2.165-39.769-8.924c-10.6-12.203-2.643-30.79,3.977-41.999
					c-9.772-3.547-22.97-10.948-26.691-25.615c-3.664-14.441,0.438-27.119,3.878-34.392c-11.646-9.553-35.755-32.861-25.59-55.194
					c14.356-31.549,105.932-19.698,124.146-17.001c40.898,6.051,47.891,57.119,48.169,59.289c0.534,4.184-2.421,8.01-6.605,8.544
					c-4.142,0.549-8.002-2.416-8.542-6.593l0,0c-0.057-0.418-5.834-41.778-35.26-46.131c-54.772-8.114-102.223-4.499-108.007,8.218
					c-6.177,13.573,17.289,34.4,25.998,40.627c3.431,2.451,4.229,7.227,1.775,10.657c-0.067,0.097-8.994,13.108-5.156,28.22
					c3.426,13.508,25.058,17.197,25.274,17.23c2.672,0.413,4.939,2.205,5.941,4.716c1.004,2.511,0.616,5.367-1.037,7.505
					c-7.567,9.839-15.514,26.408-10.739,31.906c5.399,5.22,45.301,4.651,85.348-1.248c4.161-0.631,8.052,2.27,8.668,6.441
					c0.614,4.174-2.27,8.054-6.441,8.668C401.321,1081.64,377.123,1084.678,355.824,1084.678z"/>
			</g>
		</g>
		<g>
			<g>
				<path fill="#FFFFFF" d="M759.111,803.213c0,0-86.33,176.243-310.737,139.365c0,0-49.718,67.548-34.326,129.468
					c0,0,275.477,68.125,398.412-174.692"/>
			</g>
			<g>
				<path fill="#315934" d="M500.608,1088.526c-50.919,0-86.343-8.559-88.391-9.066c-2.749-0.679-4.897-2.824-5.578-5.571
					c-16.074-64.658,33.468-132.961,35.586-135.837c1.7-2.312,4.557-3.483,7.388-3.008c90.85,14.925,169.421-3.339,233.53-54.297
					c47.734-37.94,68.902-80.466,69.11-80.891c1.859-3.789,6.436-5.352,10.217-3.5c3.789,1.857,5.355,6.431,3.5,10.217
					c-0.912,1.862-22.92,46.069-73.324,86.131c-45.862,36.453-124.645,75.832-240.705,58.17
					c-9.417,14.247-40.821,66.344-31.489,114.754c16.598,3.383,76.337,13.623,146.032,2.503
					c108.967-17.386,189.433-76.004,239.161-174.227c1.902-3.761,6.506-5.265,10.264-3.363c3.761,1.907,5.268,6.501,3.363,10.264
					c-64.962,128.31-172.31,170.063-250.927,182.495C544.039,1087.144,521.072,1088.526,500.608,1088.526z"/>
			</g>
		</g>
		<g>
			<path fill="#315934" d="M473.042,1033.051c-2.016,0-3.963-0.798-5.402-2.24c-1.646-1.646-2.449-3.953-2.185-6.265l8.972-78.562
				c0.48-4.191,4.281-7.202,8.455-6.719c4.189,0.477,7.199,4.263,6.719,8.455l-7.883,69.026l42.827-4.848l-1.131-62.988
				c-0.075-4.216,3.284-7.696,7.5-7.773c0.047,0,0.092,0,0.139,0c4.154,0,7.557,3.329,7.634,7.5l1.255,69.931
				c0.07,3.938-2.864,7.281-6.777,7.726l-59.264,6.709C473.614,1033.036,473.328,1033.051,473.042,1033.051z"/>
		</g>
		<g>
			<path fill="#315934" d="M319.327,586.834c9.931,62.231-1.269,115.752-25.012,119.537c-23.753,3.795-51.059-43.589-60.984-105.817
				c-9.935-62.232,1.268-115.757,25.017-119.548C282.088,477.22,309.396,524.602,319.327,586.834z"/>
		</g>
	</g>
	<g>
		<path fill="#315934" d="M583.155,942.602c-1.412,0-2.841-0.39-4.117-1.211c-3.55-2.277-4.582-7-2.302-10.55
			c51.878-80.831,10.098-151.724,8.293-154.705c-2.18-3.602-1.039-8.298,2.56-10.485c3.595-2.195,8.286-1.059,10.483,2.538
			c2.014,3.299,48.694,81.813-8.484,170.901C588.131,941.361,585.668,942.602,583.155,942.602z"/>
	</g>
	<g>
		<path fill="#315934" d="M615.613,153.641c-2.938,0.001-5.673-1.699-6.936-4.446c-0.979-2.094-24.692-51.422-76.17-29.336
			c-3.871,1.667-8.368-0.131-10.028-4.007c-1.663-3.876,0.132-8.365,4.007-10.028c34.134-14.648,60.261-3.99,77.157,11.458
			c-6.456-19.64-22.291-43.708-60.877-52.182c-4.119-0.905-6.724-4.978-5.822-9.097c0.905-4.119,4.967-6.732,9.098-5.821
			c80.623,17.706,77.242,95.463,77.197,96.247c-0.194,3.504-2.752,6.424-6.2,7.079C616.563,153.597,616.085,153.641,615.613,153.641
			z"/>
	</g>
	<g>
		<g>
			<path fill="#FFFFFF" d="M795.465,929.138c0,0,33.999,1.987,63.932-20.725"/>
		</g>
		<g>
			<path fill="#315934" d="M797.71,936.822c-1.539,0-2.474-0.047-2.69-0.06c-4.211-0.246-7.425-3.858-7.179-8.069
				c0.249-4.209,3.843-7.413,8.054-7.179c0.512,0.017,31.795,1.372,58.886-19.184c3.361-2.55,8.151-1.892,10.699,1.467
				c2.551,3.361,1.892,8.151-1.467,10.699C836.811,935.136,806.781,936.822,797.71,936.822z"/>
		</g>
	</g>
	<g>
		<g>
			<path fill="#DAFBEB" d="M780.566,1061.118c87.089-62.184,82.286-139.229,82.286-139.229s-33.884,9.28-65.464,10.432
				c0,0-54.472,90.489-169.259,128.798H780.566z"/>
		</g>
	</g>
	<g>
		<g>
			<path fill="#DAFBEB" d="M671.601,900.56c7.017-10.246,14.988-18.53,23.754-26.212c12.028-63.062-25.66-106.574-25.66-106.574
				l-78.141,4.394c0,0,45.985,76.098-6.134,156.589c14.852-0.341,30.032-0.281,45.559-2.823
				C645.717,923.827,661.556,913.629,671.601,900.56z"/>
		</g>
	</g>
	<g>
		<path fill="#FFFFFF" d="M225.444,545.096c27.47,22.729,40.248-45.354,24.289-77.465
			C223.468,414.764,178.766,506.466,225.444,545.096z"/>
	</g>
	<g>
		<path fill="#FFFFFF" d="M232.612,643.275c21.367,3.092,26.882-61.354,1.706-70.165
			C209.144,564.304,195.221,637.85,232.612,643.275z"/>
	</g>
</g>
</svg>
