<?xml version="1.0" encoding="utf-8"?>
<!-- Designed by Vexels.com - 2016 All Rights Reserved - https://vexels.com/terms-and-conditions/  -->

<svg version="1.1" id="Layer_1" xmlns="http://www.w3.org/2000/svg" xmlns:xlink="http://www.w3.org/1999/xlink" x="0px" y="0px"
	 width="1200px" height="1200px" viewBox="0 0 1200 1200" enable-background="new 0 0 1200 1200" xml:space="preserve">
<path fill="#575756" d="M1074.638,392.904h-0.908v-92.716c0-57.422-37.478-105.226-87.784-117.941
	c0.093-1.02,0.275-2.045,0.275-3.046c0-31.13-25.29-56.374-56.397-56.374H729.699c-30.931,0-56.034,24.834-56.402,55.782H164.163
	C101.032,178.611,50,233.033,50,300.189v119.594c0-2.226,0.457-4.252,0.55-6.525v539.588c0,1.956,0.996,3.819,2.179,5.752
	l-0.088,1.16c0,67.202,42.844,117.414,105.882,117.414h795.315c63.132,0,98.063-63.495,114.252-121.578l76.592-441.023
	C1161.695,443.866,1137.77,392.904,1074.638,392.904z M237.844,392.904c-47.026,0-99.516,30.245-123.347,73.364V349.944
	c1.82-8.57,10.278-39.206,43.938-51.12c1.998-0.14,3.819-0.615,5.729-0.615h509.134c0.367-30.907,25.471-55.875,56.402-55.875
	h200.125c31.107,0,56.397,25.22,56.397,56.49c0,1.025-0.182,1.956-0.275,2.957c42.117,10.642,74.957,46.095,84.509,91.123H237.844z"
	/>
</svg>
