<svg xmlns="http://www.w3.org/2000/svg" viewBox="0 0 194.17 194.17"><defs><style>.cls-1{fill:#fdebeb;}.cls-2{fill:#fbd8d7;}.cls-3{fill:#fac7c6;}.cls-4{fill:#cc2a56;}.cls-5{fill:#fff;}.cls-6{fill:#f5f5f6;}</style></defs><g id="Layer_2" data-name="Layer 2"><g id="Capa_1" data-name="Capa 1"><circle class="cls-1" cx="97.08" cy="97.08" r="97.08"/><circle class="cls-2" cx="97.08" cy="97.08" r="85.73"/><circle class="cls-3" cx="97.08" cy="97.08" r="73.81"/><circle class="cls-4" cx="96.76" cy="70.16" r="5.65"/><path class="cls-5" d="M79.35,123.81h31.39a34.08,34.08,0,0,0,55.57-38.35A34.05,34.05,0,0,0,137.75,70H56.14A34.07,34.07,0,0,0,25.68,119.4a34,34,0,0,0,53.67,4.41Z"/><path class="cls-4" d="M67.8,97.94H61.24a.55.55,0,0,1-.55-.55V90.83a.56.56,0,0,0-.55-.56H53.2a.55.55,0,0,0-.55.56v6.56a.55.55,0,0,1-.55.55H45.53a.55.55,0,0,0-.55.55v6.94a.55.55,0,0,0,.55.55H52.1a.56.56,0,0,1,.55.56v6.56a.55.55,0,0,0,.55.55h6.94a.55.55,0,0,0,.55-.55v-6.56a.56.56,0,0,1,.55-.56H67.8a.55.55,0,0,0,.56-.55V98.49A.56.56,0,0,0,67.8,97.94Z"/><path class="cls-6" d="M166.31,85.46A34.05,34.05,0,0,0,137.75,70h-41l-.14,53.84h14.12a34.08,34.08,0,0,0,55.57-38.35Z"/><path class="cls-4" d="M148.34,106.79a4.8,4.8,0,1,0,.32-9.51,4.8,4.8,0,0,0-2.93,8.17A4.74,4.74,0,0,0,148.34,106.79Z"/><path class="cls-4" d="M134.54,109.88h0c-.11.1-.22.19-.32.3a4.79,4.79,0,0,0,0,6.79,4.87,4.87,0,0,0,.92.72,4.8,4.8,0,1,0-.6-7.81Z"/><path class="cls-4" d="M134.25,94a4.8,4.8,0,1,0,.08-7.28A3.92,3.92,0,0,0,134,87a4.81,4.81,0,0,0,0,6.79Z"/><path class="cls-4" d="M129.3,105.26a4.8,4.8,0,1,0-6.79,0A4.81,4.81,0,0,0,129.3,105.26Z"/><path class="cls-4" d="M98,64.51H95.48V46.39a14.78,14.78,0,0,1,14.77-14.76H131.7a12.23,12.23,0,0,0,12.21-12.21h2.55A14.78,14.78,0,0,1,131.7,34.18H110.25A12.22,12.22,0,0,0,98,46.39Z"/></g></g></svg>