<?xml version="1.0" encoding="utf-8"?>
<!--Designed by Vexels.com - 2017 All Rights Reserved - https://vexels.com/terms-and-conditions/-->
<svg version="1.1" id="Layer_1" xmlns="http://www.w3.org/2000/svg" xmlns:xlink="http://www.w3.org/1999/xlink" x="0px" y="0px"
	 viewBox="0 0 1200 1200" enable-background="new 0 0 1200 1200" xml:space="preserve">
<g>
	<g>
		<g>
			<polygon fill="#315C72" points="956.569,665.12 1142.144,217.656 1126.916,164.932 647.216,312.11 662.449,364.834 
				744.629,444.883 551.862,581.301 696.47,733.349 870.801,583.603 			"/>
		</g>
		<g>
			<path fill="#315C72" d="M696.471,741.206c-2.082,0-4.156-0.824-5.696-2.442L546.168,586.716
				c-1.573-1.652-2.348-3.908-2.125-6.177c0.22-2.271,1.417-4.333,3.279-5.652l185.06-130.963l-75.418-73.461
				c-0.974-0.951-1.685-2.141-2.064-3.448l-15.233-52.724c-1.192-4.12,1.143-8.435,5.243-9.693l479.7-147.178
				c2.015-0.614,4.189-0.402,6.043,0.601c1.852,1.003,3.225,2.706,3.808,4.732l15.228,52.724c0.496,1.711,0.394,3.542-0.289,5.189
				L963.827,668.131c-0.992,2.391-3.097,4.138-5.629,4.675c-2.535,0.537-5.169-0.207-7.041-1.99l-80.622-76.627L701.589,739.308
				C700.108,740.579,698.287,741.206,696.471,741.206z M563.813,582.468l133.203,140.055L865.68,577.644
				c3.056-2.629,7.609-2.517,10.532,0.263l77.479,73.64l180.14-434.357l-12.248-42.404L656.908,317.353l12.512,43.305l80.691,78.597
				c1.67,1.629,2.532,3.916,2.35,6.243c-0.184,2.327-1.391,4.453-3.294,5.801L563.813,582.468z"/>
		</g>
	</g>
	<g>
		<g>
			<polygon fill="#FFFFFF" points="941.341,612.398 1126.916,164.932 647.216,312.11 729.398,392.166 536.632,528.577 
				681.237,680.627 855.573,530.879 			"/>
		</g>
		<g>
			<path fill="#315C72" d="M681.238,688.484c-2.082,0-4.156-0.824-5.696-2.442l-144.605-152.05
				c-1.573-1.652-2.348-3.908-2.125-6.179c0.22-2.269,1.417-4.33,3.279-5.65l185.06-130.955l-75.42-73.469
				c-1.987-1.939-2.806-4.78-2.153-7.476c0.652-2.698,2.68-4.852,5.333-5.665l479.7-147.178c2.908-0.895,6.069-0.028,8.118,2.228
				c2.049,2.251,2.609,5.483,1.445,8.294L948.599,615.409c-0.992,2.391-3.097,4.138-5.629,4.675c-2.54,0.54-5.169-0.21-7.041-1.99
				l-80.622-76.63l-168.95,145.122C684.875,687.857,683.054,688.484,681.238,688.484z M548.583,529.743l133.201,140.057
				L850.452,524.92c3.056-2.629,7.609-2.514,10.532,0.263l77.479,73.643l174.8-421.487L662.195,315.731l72.686,70.809
				c1.67,1.627,2.532,3.913,2.35,6.24c-0.184,2.327-1.391,4.453-3.294,5.801L548.583,529.743z"/>
		</g>
	</g>
	<g>
		<g>
			<path fill="#79E4E9" d="M681.237,680.627c0,0,34.026,130.137-78.814,193.073l-7.397-53.883c0,0-26.749,109.704-117.965,133.51
				l24.412-59.796c0,0-104.733,101.126-199.227,123.587l32.041-78.482l-276.43,96.433l169.559-209.815l-79.551-10.675
				c0,0,37.427-87.914,122.727-87.968l-73.909-31.624c0,0,75.719-105.702,169.306-89.3l-65.013-33.79
				c0,0,83.773-92.231,235.654-43.32L681.237,680.627z"/>
		</g>
		<g>
			<path fill="#315C72" d="M57.86,1042.927c-2.506,0-4.926-1.199-6.427-3.335c-2.02-2.87-1.893-6.732,0.315-9.46l160.776-198.948
				l-65.704-8.816c-2.43-0.327-4.568-1.77-5.783-3.9c-1.212-2.133-1.361-4.708-0.402-6.964c1.419-3.333,31.704-72.591,99.927-89.195
				l-46.967-20.097c-2.189-0.936-3.836-2.816-4.478-5.107c-0.639-2.294-0.207-4.755,1.182-6.691
				c2.808-3.921,61.74-84.832,141.633-93.571l-34.578-17.972c-2.161-1.125-3.68-3.189-4.11-5.588
				c-0.43-2.399,0.279-4.862,1.918-6.665c0.903-0.995,22.576-24.535,63.619-41.952c37.655-15.98,99.502-29.571,180.26-3.565
				c1.251,0.402,2.379,1.113,3.284,2.064l144.605,152.05c0.916,0.962,1.573,2.141,1.908,3.427c0.363,1.389,8.836,34.525,3.09,76.001
				c-5.353,38.632-24.563,91.835-85.679,125.922c-2.263,1.266-5.008,1.332-7.335,0.169c-2.322-1.159-3.921-3.391-4.274-5.962
				l-2.969-21.624c-15.358,35.739-48.791,91.126-112.625,107.784c-2.885,0.747-5.939-0.189-7.895-2.425
				c-1.959-2.238-2.489-5.391-1.363-8.146l11.532-28.248c-37.248,31.65-109.172,86.469-177.257,102.653
				c-2.867,0.678-5.872-0.299-7.783-2.535c-1.916-2.235-2.419-5.353-1.307-8.079l25.458-62.356L60.445,1042.49
				C59.596,1042.784,58.721,1042.927,57.86,1042.927z M159.901,808.268l68.561,9.2c2.813,0.379,5.205,2.246,6.253,4.882
				c1.051,2.637,0.596,5.637-1.189,7.844l-152.237,188.38l250.409-87.356c2.928-1.015,6.164-0.228,8.286,2.01
				c2.128,2.24,2.744,5.519,1.575,8.379l-25.97,63.614c87.17-28.034,179.449-116.4,180.424-117.341
				c2.67-2.581,6.785-2.939,9.865-0.852c3.074,2.082,4.271,6.033,2.867,9.473l-17.952,43.972
				c73.075-30.018,96.356-121.538,96.599-122.523c0.9-3.66,4.286-6.118,8.041-5.977c3.765,0.197,6.862,3.038,7.373,6.775
				l5.778,42.077c87.709-56.947,68.811-161.073,65.484-176.334l-141.743-149.04c-60.121-18.967-116.193-17.836-166.689,3.373
				c-24.709,10.376-42.023,23.323-51.208,31.21l55.185,28.681c3.44,1.788,5.061,5.818,3.818,9.491
				c-1.24,3.673-4.992,5.893-8.798,5.22c-73.144-12.806-136.098,54.893-155.454,78.361l64.502,27.601
				c3.43,1.466,5.356,5.143,4.609,8.798c-0.749,3.655-3.964,6.279-7.693,6.281C207.846,734.507,172.109,786.503,159.901,808.268z"/>
		</g>
	</g>
	<g>
		<polygon fill="#31D6DD" points="643.162,653.399 540.977,796.763 515.368,747.579 306.359,861.084 436.713,695.676 
			357.096,681.972 463.414,619.89 424.027,585.493 558.491,564.372 		"/>
	</g>
</g>
</svg>
