<?xml version="1.0" encoding="utf-8"?>
<!-- Generator: Adobe Illustrator 23.0.3, SVG Export Plug-In . SVG Version: 6.00 Build 0)  -->
<svg version="1.1" id="Capa_1" xmlns="http://www.w3.org/2000/svg" xmlns:xlink="http://www.w3.org/1999/xlink" x="0px" y="0px"
	 viewBox="0 0 1200 1200" enable-background="new 0 0 1200 1200" xml:space="preserve">
<path fill="#472E93" d="M55.872,641.182c-1.698,49.068,1.216,97.783,1.515,146.817c0.32,52.413-1.964,104.856,0.272,157.25
	c1.435,33.63,4.608,66.961,5.286,100.645c0.295,14.67,0.471,29.344,0.863,44.011c0.198,7.414-1.417,18.246,4.123,24.156
	c10.13,10.807,37.836,6.178,50.404,5.628c27.552-1.207,55.016-3.888,82.502-6.044c10.49-0.822,20.997-1.305,31.511-1.612
	c3.712,3.276,10.046,3.164,13.596-0.3c20.289-0.301,40.598-0.062,60.875-0.073c101.175-0.053,202.343,1.314,303.516,1.855
	c101.268,0.542,202.558,0.206,303.782-3.125c35.906-1.181,70.891-1.611,106.748,0.026c30.238,1.38,63.028,3.869,92.569-4.311
	c23.686-6.56,28.145-19.521,31.461-42.479c4.546-31.469,5.942-63.892,4.639-95.652c-4.105-100.07-13.003-199.784-14.957-299.986
	c-2.62-134.379-1.175-268.929-1.963-403.336c-0.102-17.323-0.206-34.646-0.315-51.969c-0.052-8.218,0.041-12.719-5.71-19.003
	c-28.931-31.617-63.577-59.405-94.893-88.665c-7.657-7.154-16.837-19.843-26.509-24.456c-6.631-3.163-16.972-0.987-23.96-0.804
	c-43.074,1.127-86.148,2.25-129.222,3.371c-99.083,2.577-198.168,5.605-297.28,6.827c-102.246,1.26-204.534,0.815-306.732-2.774
	c-48.986-1.721-97.854-5.062-146.803-7.373c-21.393-1.01-41.708-0.755-46.989,23.707c-3.792,17.564-2.564,37.035-2.913,54.833
	c-0.465,23.768-0.621,47.538-1.29,71.302c1.443,86.163,10.612,172.146,11.042,258.28C61.298,539.064,57.64,590.101,55.872,641.182z
	 M880.423,1092.276c-47.023,1.255-94.06,1.913-141.098,2.184c-95.83,0.552-191.659-0.523-287.485-1.271
	c-67.344-0.526-135.732-3.664-203.348-1.325c-0.386-121.551-4.15-243.13-5.339-364.678c-0.289-29.613-0.92-59.221-1.29-88.834
	c-0.174-13.942-0.372-27.891-0.315-41.835c0.043-10.38-1.109-23.845,4.698-33.042c7.854-12.439,25.914-11.041,38.82-11.699
	c14.695-0.749,29.417-0.614,44.123-0.418c32.31,0.428,64.602,0.466,96.914,0.312c122.874-0.588,245.748-2.239,368.618-3.312
	c28.093-0.245,55.551-5.02,83.529-6.588c18.46-1.035,47.761-7.021,65.117,0.572c22.057,9.649,14.997,45.724,13.917,64.909
	c-1.671,29.677,0.041,59.527-0.305,89.242c-0.8,68.785,7.359,137.37,3.768,206.107c-1.835,35.125-2.235,70.281-2.248,105.449
	c-0.007,17.63,0.118,35.259,0.07,52.889c-0.027,9.764-0.438,19.304,0.838,28.721
	C933.078,1090.034,906.744,1091.574,880.423,1092.276z M994.34,96.261c-0.041,0.163,0.046,0.409,0.13,0.652
	C994.342,96.736,994.273,96.529,994.34,96.261z M788.922,103.883c32.708-0.847,65.416-1.701,98.123-2.553
	c4.094,15.855,3.39,32.011,4.033,48.409c0.807,20.566,3.226,41.143,4.967,61.651c3.388,39.912,12.53,81.789,7.852,121.834
	c-1.722,14.738-5.106,34.428-17.693,43.759c-12.775,9.47-31.93,9.302-47.047,9.133c-33.959-0.38-67.175-2.838-101.253-1.086
	c-42.493,2.185-84.879,6.443-127.441,7.242c-41.032,0.77-82.037-1.622-123.064-1.667c-15.37-1.107-28.239-5.964-32.653-25.361
	c-6.577-28.899-4.99-58.958-5.367-88.378c-0.717-55.931,2.689-111.394,3.562-167.179c4.016,0.001,8.032,0.02,12.048,0.015
	C573.008,109.566,680.953,106.68,788.922,103.883z M278.241,107.254c51.832,1.509,103.685,2.25,155.539,2.409
	c-0.844,33.972-4.062,67.83-4.189,101.855c-0.134,35.747,0.097,71.64,1.044,107.371c0.568,21.424-0.034,53.896,13.849,72.772
	c-30.598,1.507-61.159,4.043-91.815,3.699c-14.595-0.164-29.196-0.678-43.544-3.554c-16.467-3.301-22.57-6.252-23.746-23.581
	C279.517,281.803,277.451,193.901,278.241,107.254z M70.408,158.347c0.186-9.504,0.4-19.008,0.767-28.507
	c0.254-6.548-1.284-21.023,2.909-27.059c5.029-7.239,19.273-4.226,27.107-3.856c24.057,1.135,48.088,2.952,72.144,4.176
	c28.591,1.455,57.195,2.607,85.807,3.546c-0.406,48.189,0.961,96.352,2.846,144.5c1.552,39.638,1.405,79.751,4.404,119.293
	c0.757,9.98,1.364,21.236,9.049,28.529c8.815,8.364,23.803,10.621,35.237,12.459c39.938,6.423,81.235,2.253,121.356-0.032
	c49.586-2.824,98.98-0.474,148.584,0.062c50.092,0.541,99.837-4.076,149.795-6.9c39.133-2.212,77.587,1.628,116.539,0.661
	c28.534-0.709,55.707-7.378,67.586-35.782c17.583-42.044,6.706-89.881,2.719-133.385c-2.364-25.795-4.874-51.667-6.579-77.513
	c-1.277-19.356,0.022-38.829-4.06-57.72c9.423-0.246,18.846-0.49,28.27-0.736c16.07-0.419,32.139-0.839,48.209-1.26
	c3.742-0.098,8.532,0.451,12.414-0.177c5.334,6.909,27.368,24.277,29.806,26.555c17.948,16.77,35.897,33.541,53.845,50.311
	c6.892,6.44,13.785,12.88,20.677,19.32c3.003,2.806,8.52,10.195,12.786,12.545c-0.432,3.783,0.585,9.674,0.603,12.427
	c0.697,111.955,1.316,223.912,1.587,335.869c0.199,82.174,1.393,164.167,5.669,246.252c4.207,80.75,15.431,162.746,7.459,243.548
	c-0.94,9.532-0.428,27.744-6.373,35.944c-5.581,7.699-24.091,8.766-32.742,9.654c-30.335,3.11-61.178,0.503-91.536-0.933
	c-6.163-0.292-12.327-0.43-18.492-0.509c-2.533-12.948-1.105-26.983-1.12-40.021c-0.021-17.632-0.093-35.264-0.047-52.895
	c0.088-33.91,0.913-67.735,2.669-101.598c3.43-66.15-4.963-132.399-4.205-198.623c0.35-30.595-1.395-61.329,0.473-91.88
	c1.242-20.32,4.213-45.18-6.572-63.713c-9.177-15.771-26.956-19.759-43.963-20.104c-24.867-0.505-50.707,1.683-75.353,4.468
	c-65.73,7.427-132.751,4.461-198.846,5.173c-67.708,0.729-135.415,1.568-203.126,1.99c-33.71,0.21-67.443,0.593-101.151,0.111
	c-29.603-0.424-63.014-3.983-92.076,3.113c-45.516,11.113-33.106,76.205-32.639,110.118c2.052,148.922,6.165,297.99,6.539,446.925
	c-8.388,0.428-16.764,0.928-25.119,1.566c-26.036,1.987-52.034,4.506-78.112,5.921c-11.04,0.599-22.16,1.18-33.22,0.797
	c-1.533-0.053-7.321-1.205-9.532-0.982c1.29,1.801-1.538,6.204-0.317,0.082c-0.133,0.031-0.303,0.049-0.384,0.099
	c0.256-0.16-3.498-0.226-2.421-0.561c1.489-0.463,2.362-0.295,2.869,0.141c0.027-0.13,0.04-0.223,0.071-0.362
	c2.244-10.108-0.608-24.129-0.798-34.509c-0.301-16.373-0.555-32.75-1.115-49.116c-1.318-38.522-5.299-76.735-5.485-115.352
	c-0.235-48.716,1.66-97.44,0.073-146.148c-1.55-47.591-1.83-94.702,0.282-142.298c2.048-46.153,4.757-92.339,3.811-138.557
	c-0.866-42.303-4.159-84.58-6.537-126.818c-2.193-38.961-3.674-77.932-4.328-116.949C69.787,205.885,69.943,182.115,70.408,158.347z
	 M727.922,365.924c37.728,4.109,73.259-0.811,110.941-2.647c5.23-0.255,9.466-4.175,9.559-9.559
	c1.263-73.018,1.458-146.25-2.404-219.191c-0.27-5.104-4.16-9.635-9.559-9.559c-36.83,0.518-73.689,0.75-110.516,0
	c-5.079-0.103-8.028,3.103-8.914,6.91c-0.305,0.816-0.549,1.68-0.645,2.65c-7.235,73.084-4.557,148.816,1.979,221.837
	C718.863,361.956,722.371,365.32,727.922,365.924z M827.346,144.194c3.209,66.741,3.165,133.704,2.095,200.509
	c-31.285,1.899-61.389,5.137-92.72,2.818c-5.691-67.049-7.93-136.192-2.095-203.311
	C765.527,144.713,796.444,144.585,827.346,144.194z M316.001,732.61c91.579,0.258,182.787,6.258,274.428,4.347
	c91.783-1.913,183.561-2.744,275.347-4.438c12.328-0.227,12.288,18.892,0,19.118c-91.786,1.694-183.564,2.524-275.347,4.438
	c-91.64,1.91-182.849-4.09-274.428-4.347C303.681,751.694,303.698,732.576,316.001,732.61z M315.13,842.211
	c-12.322,0.003-12.301-19.115,0-19.118c94.004-0.023,188.003-0.906,282.004-1.552c90.209-0.62,181.127,2.626,271.184-3.256
	c12.304-0.804,12.215,18.32,0,19.118c-90.057,5.882-180.975,2.636-271.184,3.256C503.133,841.305,409.134,842.188,315.13,842.211z
	 M322.911,913.822c181.243-0.091,362.413-6.902,543.656-6.993c12.322-0.006,12.301,19.112,0,19.118
	c-181.243,0.091-362.413,6.902-543.656,6.993C310.589,932.946,310.61,913.828,322.911,913.822z M871.812,1016.856
	c-182.39-0.045-364.762-3.451-547.152-3.496c-12.322-0.003-12.302-19.121,0-19.118c182.39,0.045,364.762,3.451,547.152,3.496
	C884.133,997.741,884.113,1016.859,871.812,1016.856z M107.958,297.11c5.496,1.232,10.832,1.396,16.267,1.385
	c3.081,22.799-2.42,45.978,3.388,68.729c1.075,4.213,5.053,6.825,9.218,7.018c13.359,0.62,26.653,0.557,40.016,0.02
	c5.282-0.212,9.397-4.211,9.559-9.559c0.733-24.167,0.39-48.344,0.887-72.514c5.639-0.711,11.371-1.193,16.82-0.325
	c10.23,1.631,15.464-11.399,9.367-16.544c-0.473-1.328-1.307-2.627-2.689-3.803c-16.489-14.031-36.755-50.237-62.72-45.79
	c-21.601,3.7-35.64,37.276-43.203,54.718c-0.028,0.065-0.035,0.128-0.062,0.193C99.561,285.153,99.324,295.174,107.958,297.11z
	 M150.756,245.412c11.041-2.107,24.946,14.945,35.819,27.922c-2.863,0.288-5.746,0.625-8.682,0.958
	c-5.263,0.596-9.389,3.9-9.559,9.559c-0.719,23.857-0.395,47.724-0.867,71.584c-7.599,0.173-15.189,0.161-22.789-0.044
	c-3.717-22.743,1.862-46.192-3.241-69.033c-0.908-4.066-5.172-7.019-9.218-7.018c-2.081,0.001-4.194,0.068-6.312,0.125
	C131.841,265.893,141.08,247.259,150.756,245.412z M1037.123,1033.403c19.255,0.948,38.497,0.884,57.753-0.008
	c6.503-0.301,10.487-5.843,9.218-12.1c-3.255-16.041-0.613-32.387-2.749-48.544c-0.706-5.344-3.818-9.262-9.559-9.559
	c-19.337-1-38.303-1.118-57.562,1.33c-0.911,0.116-1.73,0.36-2.504,0.66c-3.795,0.908-7.031,3.85-7.055,8.899
	c-0.084,17.519-0.939,35.138,3.241,52.305C1028.935,1030.611,1032.993,1033.2,1037.123,1033.403z M1083.033,981.931
	c0.615,10.92,0.172,21.832,1.055,32.727c-13.023,0.39-26.041,0.37-39.064-0.087c-1.663-10.507-1.524-21.246-1.349-31.914
	C1056.808,981.527,1069.859,981.456,1083.033,981.931z M185.901,984.922c-0.456-5.412-4.024-9.203-9.559-9.559
	c-18.591-1.197-35.79,1.064-53.525,6.982c-0.763,0.255-1.445,0.579-2.068,0.949c-2.899,1.329-5.069,4.059-4.95,8.269
	c0.389,13.775-2.631,29.82,1.295,43.256c3.474,11.889,14.388,15.834,25.807,15.942c11.436,0.107,30.706,0.477,38.706-9.245
	c4.842-5.884,5.017-13.546,4.831-20.815C186.134,1008.782,186.903,996.813,185.901,984.922z M167.108,1028.665
	c-1.846,3.106-19.253,3.06-24.207,2.977c-6.786-0.114-7.624-0.541-8.097-7.175c-0.608-8.533-0.025-17.201,0.116-25.809
	c10.736-2.967,21.235-4.398,32.268-4.428c0.081,5.346-0.034,10.69-0.058,16.062C167.109,1014.932,169.555,1024.547,167.108,1028.665
	z"/>
</svg>
