<svg xmlns="http://www.w3.org/2000/svg" viewBox="0 0 194.17 194.17"><defs><style>.cls-1{fill:#ffe8e5;}.cls-2{fill:#fcd0ca;}.cls-3{fill:#f7b3ab;}.cls-4{fill:#d92f5e;}.cls-5{fill:#fff;}.cls-6{fill:#cd558e;}.cls-7{fill:#a8244a;}.cls-8{fill:#cdcdcd;}</style></defs><g id="Layer_2" data-name="Layer 2"><g id="Capa_1" data-name="Capa 1"><circle class="cls-1" cx="97.08" cy="97.08" r="97.08"/><circle class="cls-2" cx="97.08" cy="97.08" r="85.73"/><circle class="cls-3" cx="97.08" cy="97.08" r="73.81"/><path class="cls-4" d="M161.37,65.91,95.06,36.61s-1.66-1.19-5.33,2.29-63,54.61-63,54.61L98.5,125.75l62.55-57.32Z"/><path class="cls-5" d="M72.84,67.94A8.94,8.94,0,0,0,82,66.78a48.92,48.92,0,0,0,4.4-3.64,47.57,47.57,0,0,1,4.33-3.61,16.9,16.9,0,0,1,16.31-2l1.26.49L106,59.6a2.17,2.17,0,0,1-2,.25h0c-3.54-1.37-6.6-.52-9.73,1.7a34.92,34.92,0,0,0-3.7,3.08,38.71,38.71,0,0,1-4,3.3A13.69,13.69,0,0,1,76,70.7l-.12.08c2.06,1.5,1.77,3.55-2,6.16a48.9,48.9,0,0,1-4.83,3,50.82,50.82,0,0,0-4.6,2.8c-3.25,2.31-3.67,4.12-.3,5.42l1.08.42L63.15,90a2.51,2.51,0,0,1-2.37.29h0c-5-1.93-6.61-4.85-.75-9a59.65,59.65,0,0,1,5.24-3.18c1.8-1,3.61-2,5.18-3.15,1.8-1.28,3.69-3.28-.57-4.93Z"/><path class="cls-5" d="M121.19,89.91A9.22,9.22,0,0,0,112,91.07a43.94,43.94,0,0,0-4.22,3.52,44.88,44.88,0,0,1-4.28,3.56,17.09,17.09,0,0,1-16.67,2.32l-1.24-.54,1.66-1.18a3.81,3.81,0,0,1,2.55-.69h0c3.42,1.26,6.6.59,9.85-1.72,1.39-1,2.48-2,3.75-3.12a37.47,37.47,0,0,1,3.93-3.32c3.72-2.63,7.37-3.38,10.65-2.81l.12-.08c-2-1.52-1.77-3.48,1.94-6.12A52.33,52.33,0,0,1,125,78c1.57-.92,3.21-1.81,4.54-2.76,3.13-2.22,3.67-4,.25-5.38l-1.08-.41,2.14-1.52a2.38,2.38,0,0,1,2.25-.28h0c5.1,2,6.5,5,1.16,8.78-1.62,1.15-3.43,2.17-5.29,3.23s-3.73,2.12-5.36,3.27c-2,1.44-3.69,3.28.57,4.93Z"/><rect class="cls-5" x="68.4" y="78.46" width="57.39" height="1" transform="translate(-23.53 45.61) rotate(-23.66)"/><polygon class="cls-6" points="161.01 93.46 142.09 83.36 97.81 120.1 31.86 92.73 26.72 98.42 26.72 116.79 29.3 121.57 98.18 155.18 160.09 97.69 161.01 93.46"/><polygon class="cls-7" points="161.01 93.46 142.09 83.36 97.81 120.1 31.86 92.73 26.72 98.42 26.72 116.79 29.3 121.57 98.18 155.18 160.09 97.69 161.01 93.46"/><path class="cls-5" d="M150,79.5A18.45,18.45,0,0,0,153.84,97L97.63,149.67s-3.67-15.8,1.47-23Z"/><path class="cls-8" d="M150,79.5A18.45,18.45,0,0,0,153.84,97L97.63,149.67s-3.67-15.8,1.47-23Z"/><path class="cls-5" d="M98.18,128.36s-3.49,5.7-.55,21.31L34.07,117.89a7.74,7.74,0,0,1-3.49-5.69c-.18-3.68,0-14.33,0-14.33v-1.1Z"/><path class="cls-7" d="M99.1,129.1,30.4,97.87s-2-.73-2,3.3v11s-.55,5.32,3.67,8.08,65.76,32.88,65.76,32.88L161,93.46v4.78l-63.2,59.52L31.87,124.69a13.41,13.41,0,0,1-7.53-12.49V100.63s0-9.19,4.59-7,69.8,30.86,69.8,30.86l62.64-58.6V70.5Z"/></g></g></svg>