<svg xmlns="http://www.w3.org/2000/svg" viewBox="0 0 194.17 194.17"><defs><style>.cls-1{fill:#fdecf5;}.cls-2{fill:#fbdbec;}.cls-3{fill:#facae3;}.cls-4{fill:#fff;}.cls-5{fill:#f5f5f6;}.cls-6{fill:#cd4192;}</style></defs><g id="Layer_2" data-name="Layer 2"><g id="Capa_1" data-name="Capa 1"><circle class="cls-1" cx="97.08" cy="97.08" r="97.08"/><circle class="cls-2" cx="97.08" cy="97.08" r="85.73"/><circle class="cls-3" cx="97.08" cy="97.08" r="73.81"/><circle class="cls-4" cx="97.08" cy="97.08" r="63.75"/><path class="cls-5" d="M97.08,33.33v127.5a63.75,63.75,0,0,0,0-127.5Z"/><circle class="cls-6" cx="97.97" cy="98.83" r="9.02"/><polygon class="cls-6" points="95.33 92.76 123.38 65.45 104.49 99.76 95.33 92.76"/><path class="cls-6" d="M46.2,97.08H41.09c0-1.8.09-3.58.26-5.33l5.08.48C46.27,93.83,46.2,95.44,46.2,97.08Zm.91-9.66-5-1a56.3,56.3,0,0,1,3-10.25l4.74,1.91A50.36,50.36,0,0,0,47.11,87.42Zm4.76-13.71-4.53-2.36a56,56,0,0,1,9.31-13l3.68,3.53A50.92,50.92,0,0,0,51.87,73.71Zm8.46-11.83-3.68-3.53q1.85-1.92,3.87-3.68l3.33,3.87C62.63,59.6,61.45,60.72,60.33,61.88Zm7.35-6.34-3-4.17A56.42,56.42,0,0,1,74,46.06l2.1,4.65A50.28,50.28,0,0,0,67.68,55.54Zm12.93-6.62L79,44.1a55.77,55.77,0,0,1,15.7-3h0c.81,0,1.65,0,2.44,0l0,5.11c-.72,0-1.45,0-2.18,0l-.15-3.35.14,3.36A50.44,50.44,0,0,0,80.61,48.92Z"/><path class="cls-6" d="M146.6,85.28a50.71,50.71,0,0,0-21.93-31L127.44,50A55.73,55.73,0,0,1,151.56,84.1ZM120.46,51.87A50.23,50.23,0,0,0,97.08,46.2V41.09a56,56,0,0,1,25.74,6.26Z"/><polygon class="cls-6" points="157.92 88.41 141.85 89.69 150.52 97.08 157.92 88.41"/><path class="cls-6" d="M122.19,138.15a45.93,45.93,0,0,1-47.47,0c-3.56-2.16-4.61-6.21-2.69-8.32h0c1.92-2.12,5.41-2.12,8-.54a35.58,35.58,0,0,0,36.76,0c2.63-1.58,6.12-1.58,8,.54h0C126.81,131.94,125.76,136,122.19,138.15Z"/></g></g></svg>