<?xml version="1.0" encoding="utf-8"?>
<!-- Svg Vector Icons : http://www.onlinewebfonts.com/icon -->
<!DOCTYPE svg PUBLIC "-//W3C//DTD SVG 1.1//EN" "http://www.w3.org/Graphics/SVG/1.1/DTD/svg11.dtd">
<svg version="1.1" xmlns="http://www.w3.org/2000/svg" xmlns:xlink="http://www.w3.org/1999/xlink" x="0px" y="0px" viewBox="0 0 1000 1000" enable-background="new 0 0 1000 1000" xml:space="preserve">
<g><g transform="translate(0.000000,511.000000) scale(0.100000,-0.100000)"><path d="M2894.1,4525.4c-69-15.3-195.4-63.2-279.6-105.3c-379.2-191.5-614.8-538.2-660.8-974.9c-9.6-90-17.2-1335-17.2-2763.8v-2599.1l-444.4-5.7c-430.9-5.7-452-7.7-589.9-57.5C321.9-2193.5-15.2-2815.9,136.1-3402c63.2-247.1,141.7-383.1,325.6-566.9c183.9-183.9,319.9-262.4,566.9-325.6c143.6-38.3,218.3-38.3,3041.5-38.3c3229.2,0,3031.9-7.7,3324.9,136c285.4,141.7,515.2,413.7,624.4,745.1c34.5,99.6,36.4,243.2,42.1,2848l3.8,2742.7l446.3,5.8c429,5.7,450.1,7.7,588,57.5c714.4,260.5,1017,1103.2,632.1,1760.2c-103.4,174.3-317.9,373.5-498,461.6c-285.4,137.9-91.9,130.2-3317.3,128.3C3520.4,4552.2,2997.6,4546.4,2894.1,4525.4z M7607.7,3870.3c-113-227.9-105.3,23-116.8-3692.7c-11.5-3889.9,7.7-3516.5-176.2-3715.7c-180-197.3-430.9-260.5-685.7-174.3c-147.5,51.7-323.7,229.8-375.4,375.4c-128.3,377.3,118.7,794.8,499.9,840.8l95.8,11.5l5.7,281.6l5.7,283.5l-2170,3.8l-2170,5.7V771.4c0,2543.5,1.9,2687.1,34.5,2781c38.3,109.2,166.6,266.2,270.1,329.4c155.1,97.7,107.3,95.8,2555,95.8l2283,1.9L7607.7,3870.3z M8979,3902.9c130.2-65.1,227.9-164.7,296.9-304.5c65.1-134.1,63.2-373.5-7.7-522.9c-59.4-126.4-174.3-245.2-298.8-306.4c-84.3-40.2-116.8-44.1-498-49.8l-408-5.8l5.7,398.4c5.7,356.2,9.6,407.9,46,486.5C8268.4,3927.8,8651.5,4063.8,8979,3902.9z M5805.4-2484.6c0-1.9-24.9-59.4-55.5-128.3c-65.1-143.6-116.8-373.5-116.8-517.1c0-145.6,47.9-346.7,114.9-490.3c30.7-67,57.5-126.4,57.5-130.2c0-5.8-1045.7-5.8-2321.3-3.8l-2323.2,5.7l-105.3,49.8C904.2-3628,816.1-3543.7,749-3407.8c-80.4,166.6-91.9,300.7-40.2,469.2c70.9,233.7,275.8,411.8,507.5,442.4C1302.5-2484.6,5805.4-2473.1,5805.4-2484.6z"/></g></g>
</svg>