<svg xmlns="http://www.w3.org/2000/svg" viewBox="0 0 194.17 194.17"><defs><style>.cls-1{fill:#e6f1f8;}.cls-2{fill:#cfe4f2;}.cls-3{fill:#bad8ec;}.cls-4{fill:#4f6cb0;}.cls-5,.cls-6{fill:#fff;}.cls-5{opacity:0.06;}.cls-7{fill:#f4f8fb;}</style></defs><g id="Layer_2" data-name="Layer 2"><g id="Capa_1" data-name="Capa 1"><circle class="cls-1" cx="97.08" cy="97.08" r="97.08"/><circle class="cls-2" cx="97.08" cy="97.08" r="85.73"/><circle class="cls-3" cx="97.08" cy="97.08" r="73.81"/><path class="cls-4" d="M42.3,42.75H88.5a15.32,15.32,0,0,1,15.31,15.31V86.13A15.32,15.32,0,0,1,88.5,101.44H65.17L46.71,114.5V101.44H42.3A15.32,15.32,0,0,1,27,86.13V58.06A15.32,15.32,0,0,1,42.3,42.75Z"/><path class="cls-5" d="M88.5,42.75a15.32,15.32,0,0,1,15.31,15.31V86.13A15.32,15.32,0,0,1,88.5,101.44H65.17V42.75Z"/><path class="cls-6" d="M152.91,62.3H90.57A20.66,20.66,0,0,0,69.91,83v37.87a20.66,20.66,0,0,0,20.66,20.66h31.48L147,159.11V141.49h5.95a20.66,20.66,0,0,0,20.66-20.66V83A20.66,20.66,0,0,0,152.91,62.3Z"/><path class="cls-7" d="M90.57,62.3A20.66,20.66,0,0,0,69.91,83v37.87a20.66,20.66,0,0,0,20.66,20.66h31.15V62.3Z"/><circle class="cls-4" cx="96.93" cy="101.69" r="6.38"/><circle class="cls-4" cx="121.74" cy="101.69" r="6.38"/><circle class="cls-4" cx="146.56" cy="101.69" r="6.38"/></g></g></svg>