<svg xmlns="http://www.w3.org/2000/svg" viewBox="0 0 194.17 194.17"><defs><style>.cls-1{fill:#e8fec1;}.cls-2{fill:#dbf4a6;}.cls-3{fill:#c5e883;}.cls-4{fill:#fff;}.cls-5{fill:#cdcdcd;}.cls-6{fill:#b1e838;}</style></defs><g id="Layer_2" data-name="Layer 2"><g id="Capa_1" data-name="Capa 1"><circle class="cls-1" cx="97.08" cy="97.08" r="97.08"/><circle class="cls-2" cx="97.08" cy="97.08" r="85.73"/><circle class="cls-3" cx="97.08" cy="97.08" r="73.81"/><rect class="cls-4" x="33.23" y="32.36" width="127.71" height="127.71" rx="11.23"/><path class="cls-5" d="M33.23,43.59A11.23,11.23,0,0,1,44.46,32.36H149.71a11.23,11.23,0,0,1,11.23,11.23"/><circle class="cls-6" cx="69.3" cy="132.41" r="9.36"/><circle class="cls-6" cx="124.87" cy="71.97" r="9.36"/><circle class="cls-6" cx="69.3" cy="71.97" r="9.36"/><rect class="cls-6" x="68.03" y="71.97" width="2.55" height="60.44"/><path class="cls-6" d="M70.58,132.41H68V130a29.09,29.09,0,0,1,29.05-29.06,26.53,26.53,0,0,0,26.51-26.5V72h2.55v2.44a29.08,29.08,0,0,1-29.06,29.05A26.54,26.54,0,0,0,70.58,130Z"/></g></g></svg>