<?xml version="1.0" encoding="utf-8"?>
<!-- Designed by Vexels.com - 2019 All Rights Reserved - https://vexels.com/terms-and-conditions/  -->
<svg version="1.1" id="Layer_1" xmlns="http://www.w3.org/2000/svg" xmlns:xlink="http://www.w3.org/1999/xlink" x="0px" y="0px"
	 viewBox="0 0 1200 1200" enable-background="new 0 0 1200 1200" xml:space="preserve">
<g>
	<path fill="#2A4C54" d="M284.201,330.403c13.272-0.463,26.544-0.925,40.493-1.411c-22.72-31.255-49.494-53.82-85.471-59.559
		c-17.734-2.829-42.898,12.845-51.538,30.767c-0.64,1.327-1.728,2.387-3.187,4.352c0.324-11.096,3.482-15.312,22.504-30.316
		c-10.266-1.622-19.051-3.01-27.836-4.398c16.93-3.352,34.643,5.921,50.941-8.561c-3.715-25.745-25.64-30.995-42.088-43.833
		c7.713,3.234,15.426,6.469,23.002,9.646c2.012-19.074-4.582-35.196-13.269-50.252c-2.5-4.334-7.433-7.281-11.754-9.803
		c-3.057-1.784-6.961-1.78-12.387-3.003c17.471-3.619,36.852,4.044,59.474,23.081c-3.471-21.227-6.636-40.583-9.801-59.939
		c-0.717,0.044-1.434,0.089-2.151,0.133c1.449,1.335,2.898,2.671,5.247,4.836c-0.169-4.589-0.291-7.877-0.412-11.164
		c0.651-0.112,1.302-0.225,1.952-0.337c2.329,15.236,5.297,30.39,6.802,45.733c1.436,14.64,8.088,25.116,18.382,35.597
		c0.725-6.058,1.276-10.654,1.866-15.584c0.492,0.403,1.072,0.715,1.039,0.874c-3.848,18.591,3.638,31.093,15.578,43.307
		c11.353,11.614,20.215,26.252,29.916,39.218c-2.662-26.849-5.395-54.419-8.128-81.989c0.502-0.127,1.004-0.254,1.506-0.382
		c1.878,7.167,3.755,14.334,6.375,24.333c0.956-10.716,1.64-18.382,2.325-26.048c0.772,0.029,1.544,0.058,2.317,0.087
		c-0.41,10.941-1.531,21.927-1.054,32.812c0.642,14.665,2.259,29.295,4.1,43.834c0.329,2.601,3.774,4.687,5.78,7.011l-0.204-0.272
		c0.556,4.551,0.192,9.574,1.821,13.576c9.334,22.927,27.052,37.758,43.098,54.136c4.235,4.322,8.998,8.002,14.366,12.722
		c2.342-7.977,4.174-14.794,6.338-21.481c6.065-18.74,12.272-37.425,18.413-56.135c4.329-13.189,7.643-26.129-0.539-39.268
		c-5.761-9.252-10.243-19.493-15.89-28.843c-4.126-6.832-21.75-8.667-30.405-4.134c-4.638,2.43-9.46,4.417-14.905,4.844
		c3.283-1.816,6.565-3.633,11.1-6.142c-4.58-1.755-7.905-3.03-11.229-4.304c0.066-0.361,0.132-0.722,0.198-1.083
		c10.79,0.414,21.58,0.827,34.325,1.315c-13.912-15.96-27.184-28.511-46.578-28.608c-13.948-0.07-25.515-5.919-35.785-16.092
		c-7.873-7.798-16.443-13.745-27.857-14.142c-6.996-0.244-13.886-3.557-21.739-5.748c25.742-5.271,45.049,8.03,64.41,21.7
		c-1.043-1.808-2.086-3.617-3.238-5.614c11.831,5.505,23.2,10.794,35.487,16.511c-0.4-19.158-7.874-42.149-14.591-49.322
		c6.301-8.981-3.89-15.564,0.089-24.004c5.472,18.352,12.674,36.32,15.912,55.166c3.02,17.573,13.604,25.498,25.049,33.859
		c1.951,1.425,4.166,2.405,8.587,4.908c-3.367-9.307-5.888-16.277-8.409-23.247c10.698,16.168,14.248,38.038,32.693,47.201
		c4.934-38.8-15.281-70.624-23.168-106.148c7.624,15.154,15.247,30.309,22.871,45.463c1.074-0.29,2.149-0.579,3.223-0.869
		c-0.202-12.112,0.55-24.374-0.878-36.293c-1.399-11.671-5.019-22.993-6.305-34.983c3.495,12.648,6.991,25.296,10.679,38.642
		c7.033-2.32,12.55-6.394,14.468-15.696c3.225-15.638,6.946-31.152,11.643-47.065c0.045,3.828,0.745,7.816,0.012,11.456
		c-2.223,11.046-5.473,21.858-7.423,32.951c-1.796,10.21-6.883,16.982-15.224,20.296c-5.066,2.013-5.219,5.16-5.207,10.162
		c0.094,38.234,2.219,76.182,10.49,113.398c1.502,6.757,3.494,13.476,4.099,20.349c0.391,4.446-0.751,9.377-2.197,13.685
		c-8.947,26.651-18.032,53.249-27.407,79.719c-2.449,6.914-0.575,11.938,3.442,16.702c15.984,18.955,31.85,38.039,48.054,56.757
		c14.215,16.42,28.823,32.415,45.119,50.685c12.893-17.193,24.412-32.254,35.472-47.722c1.253-1.752,0.36-5.925-0.289-8.756
		c-4.175-18.215-11.647-34.584-22.397-49.058c-1.145-1.541-2.07-3.285-4.197-6.701c3.359,1.703,5.015,2.543,7.608,3.857
		c-4.246-28.268-4.711-57.137-29.456-74.434c4.669,3.23,9.338,6.46,15.125,10.464c0.297-7.922,0.556-14.851,0.769-20.551
		c4.667,22.841,10.499,46.34,13.958,70.284c1.949,13.492,4.379,25.551,11.985,36.719c5.217,7.659,7.759,17.592,12.319,28.47
		c9.365-21.1,23.308-37.826,22.335-62.127c-1.015-25.346-0.833-50.764-1.042-76.154c-0.045-5.485,1.1-11.061,0.576-16.451
		c-0.614-6.321-0.776-14.02-4.039-18.458c-17.064-23.21-35.195-45.437-52.615-68.328c-4.635-6.09-8.159-13.255-12.038-20.037
		c-5.712-9.986-10.777-20.495-17.093-29.968c-4.416-6.623-10.463-11.887-15.781-17.758c0.855-0.942,1.709-1.884,2.564-2.827
		c7.048,7.197,14.097,14.394,22.592,23.069c-1.959-12.247-3.586-22.421-5.213-32.595c0.348-0.096,0.695-0.191,1.043-0.287
		c2.094,7.408,4.188,14.817,6.281,22.225c2.558-20.625-4.409-41.025,1.64-61.544c1.769,19.918,3.044,39.915,5.48,59.725
		c1.664,13.534,4.841,26.835,7.598,40.173c0.529,2.559,1.856,5.23,3.493,7.118c7.416,8.553,15.075,16.845,23.149,25.787
		c8.209-25.291,16.706-50.183,12.454-77.813c4.073,28.244,2.494,56.095-2.698,83.816c-0.465,2.485-0.714,6.161,0.521,7.704
		c9.334,11.659,19.065,22.923,29.407,35.182c1.917-3.223,4.267-6.335,5.793-9.883c6.892-16.025,18.395-26.156,32.242-34.325
		c21.009-12.393,42.107-24.933,57.765-45.899c3.637-4.869,7.532-9.5,11.308-14.24c0.753,0.717,1.505,1.433,2.258,2.15
		c-7.656,9.904-15.311,19.809-21.843,28.26c13.776,6.711,28.196,13.735,42.615,20.759c-0.668,1.679-1.337,3.358-2.005,5.037
		c-5.609-2.688-11.291-5.207-16.799-8.128c-3.315-1.757-6.236-4.425-9.548-6.192c-16.264-8.679-20.496-7.876-32.972,6.753
		c-8.983,10.534-20.009,16.958-31.125,24.312c-15.033,9.945-29.858,25.793-30.129,47.985c-0.368,30.107,2.019,60.232,3.339,93.191
		c9.591-5.983,17.531-10.738,25.296-15.828c10.645-6.978,21.068-14.381,31.751-21.282c10.059-6.497,16.712-15.952,21.457-27.596
		c2.353-5.775,5.752-11.028,8.677-16.517c0.815,0.555,1.63,1.11,2.446,1.665c-7.572,14.194-15.145,28.387-22.954,43.025
		c26.51,17.086,44.818-1.435,64.932-16.356c-2.546,3.28-4.94,6.728-7.679,9.792c-2.757,3.083-5.857,5.783-8.7,11.621
		c7.902,1.235,15.804,2.47,22.145,3.461c-5.352,7.372-5.886,7.605-15.388,1.987c-8.551-5.055-16.867-6.038-26.559-2.578
		c-6.288,2.245-14.298,2.199-20.558-0.087c-13.153-4.804-23.24-2.751-33.606,8.299c-10.676,11.38-23.632,20.055-34.934,30.775
		c-3.486,3.306-6.381,9.262-6.868,14.304c-1.946,20.148-6.761,38.545-16.767,56.108c-10.058,17.655-15.995,38.209-26.045,55.871
		c-8.21,14.429-5.737,24.728,1.942,37.541c11.25,18.771,20.156,39.284,31.119,58.29c6.514,11.292,15.059,21.117,22.69,31.602
		c1.095-0.449,2.191-0.897,3.286-1.346c0.146-3.892,0.233-7.787,0.446-11.675c1.823-33.299,3.141-66.643,5.732-99.873
		c1.265-16.218,4.635-32.288,7.685-48.281c0.757-3.972,3.315-8.259,6.161-10.907c17.897-16.655,36.972-31.209,59.133-40.168
		c2.482-1.004,5.056-4.914,5.671-7.946c1.552-7.646,2.01-15.56,3.578-23.38c-0.344,9.182-0.687,18.365-1.097,29.301
		c4.468-1.785,7.894-2.902,11.138-4.489c24.623-12.048,49.29-23.992,73.714-36.529c3.35-1.72,6.739-6.073,7.88-9.997
		c4.286-14.732,7.223-29.943,11.52-44.671c2.438-8.355,0.406-14.861-3.93-20.961c-10.663-15.002-20.928-30.455-32.637-44.383
		c-4.829-5.743-12.619-9.253-19.66-11.586c-7.862-2.605-16.394-2.79-24.648-3.904c-18.104-2.445-33.469,3.408-45.595,19.117
		c-2.555,3.31-5.377,6.365-9.596,8.12c2.136-3.956,4.271-7.912,6.986-12.94c-4.074,0.185-7.369,0.335-11.457,0.521
		c6.654-4.57,12.495-8.582,18.336-12.594c-0.301-1.245-0.602-2.49-0.902-3.735c25.496-0.377,50.992-0.755,75.825-1.122
		c-4.601-13.912-9.06-30.288-15.356-45.721c-8.419-20.636-16.337-42.091-28.075-60.289c-10.208-15.827-26.435-25.047-45.413-25.377
		c-7.813-0.136-15.596-1.754-23.24-4.35c8.379,0.321,16.759,0.888,25.137,0.78c1.943-0.025,3.877-2.352,6.527-4.085
		c9.746,6.601,21.099,14.29,33.555,22.727c1.276-5.042,2.312-9.134,3.702-14.63c1.769,26.84,19.649,44.037,26.52,67.33
		c1.807-14.838,12.203-26.958,7.748-43.36c-1.387-5.107,4.204-12.624,5.66-16.521c-0.282,7.54-0.382,17.348-1.125,27.101
		c-0.384,5.04-1.14,10.384-3.061,14.893c-6.232,14.63-5.069,28.574,1.211,42.54c4.545,10.107,9.684,20.011,13.077,30.606
		c6.1,19.048,18.514,31.326,32.493,42.791c4.377,3.59,6.729,10.237,10.008,15.484c1.354-0.791,2.707-1.582,4.061-2.373
		c2.059-9.472,3.324-19.273,6.398-28.323c3.135-9.231,7.423-18.191,12.372-26.399c4.26-7.064,5.18-12.976,2.158-20.987
		c-3.161-8.381-4.202-17.743-6.585-26.533c-1.57-5.79-3.708-11.411-5.904-16.952c-1.792-4.523-4.047-8.816-5.323-11.552
		c4.113,3.976,9.469,8.534,14.039,13.923c1.51,1.781,1.55,5.757,1.307,8.637c-1.18,14.012,3.196,25.987,9.53,37.88
		c11.625-8.588,22.922-16.184,33.384-25.016c4.417-3.729,7.722-9.679,10.406-15.283c6.671-13.929,12.393-28.421,19.142-42.299
		c2.328-4.787,6.568-8.429,9.935-12.594c0.582,0.541,1.164,1.081,1.745,1.622c-1.929,3.184-3.858,6.367-5.787,9.551
		c0.386,0.678,0.772,1.355,1.158,2.033c11.892-7.993,23.784-15.986,35.677-23.979c0.53,0.727,1.061,1.454,1.591,2.182
		c-3.929,3.518-7.62,7.452-11.835,10.473c-10.37,7.433-22.412,12.805-31.029,22.16c-6.572,7.135-8.927,19.104-13.411,29.512
		c19.386-11.983,37.168-24.425,58.918-27.573c6.641-0.961,12.962-7.093,18.869-11.745c4.472-3.522,8.056-8.454,13.026-11.729
		c-4.944,5.475-9.887,10.95-14.831,16.425c0.252,0.588,0.505,1.177,0.757,1.765c5.266-1.041,10.533-2.081,15.799-3.122
		c0.179,0.511,0.358,1.022,0.537,1.533c-8.88,3.298-17.76,6.596-26.64,9.895c0.017,0.8,0.033,1.6,0.05,2.4
		c9.046,0.347,18.092,0.693,27.138,1.04c0.037,0.955,0.075,1.91,0.112,2.865c-1.801,0.406-3.699,1.44-5.388,1.126
		c-37.985-7.053-69.222,9.585-97.784,35.358c-13.468,12.152-27.409,23.854-39.632,37.442c-6.888,7.657-12.276,18.118-15.614,28.398
		c-8.258,25.423-9.874,52.335-12.185,79.05c-0.815,9.426-3.696,18.647-5.929,29.377c24.978-7.709,50.168-13.052,64.846-40.649
		c-0.789,4.513-1.578,9.026-2.403,13.746c30.169-0.818,59.701-26.214,67.761-56.712c2.245-8.495,4.84-17.727,9.746-24.351
		c12.38-16.715,16.431-36.694,21.239-56.577c0.553-2.287,1.249-4.532,4.017-6.788c0.131,8.974,0.263,17.948,0.394,26.922
		c0.689,0.701,1.378,1.403,2.066,2.104c6.348-6.98,12.749-13.904,19.014-20.975c1.921-2.168,3.228-6.49,5.235-6.858
		c20.9-3.83,28.086-23.272,37.677-40.083c1.537-2.694,3.647-4.984,6.625-6.677c-4.359,9.216-2.153,20.854-11.495,28.225
		c-9.493,7.489-17.689,17.1-26.111,26.176c-2.256,2.431-3.263,6.304-3.914,10.402c37.519-15.918,67.682-40.292,79.206-86.677
		c0.806,0.528,1.612,1.055,2.418,1.583c-1.029,3.871-2.055,7.742-3.086,11.612c-1.033,3.877-2.07,7.752-1.563,13.062
		c4.076-3.678,8.153-7.357,12.229-11.035c0.438,0.528,0.875,1.056,1.313,1.585c-8.124,7.972-16.247,15.944-24.371,23.917
		c0.549,0.96,1.098,1.919,1.647,2.879c9.399-5.045,18.799-10.09,28.198-15.135c0.467,0.754,0.933,1.509,1.4,2.263
		c-17.825,13.564-35.651,27.128-54.557,41.514c7.605,1.033,14.855,2.018,22.104,3.002c0.074,0.959,0.147,1.917,0.221,2.876
		c-7.73,0.994-15.476,2.842-23.186,2.73c-6.978-0.102-12.398,1.557-18.773,5.492c-10.664,6.584-22.714,10.8-34.562,14.423
		c-18.274,5.587-29.312,18.822-35.229,37.999c-5.028,16.297-9.424,32.832-13.944,48.714c6.275-1.528,14.91-4.346,23.715-5.614
		c14.83-2.136,29.745-3.846,44.666-4.724c23.239-1.368,47.03,1.812,68.309-13.01c2.036-1.418,4.783-1.558,7.655-0.631
		c-10.545,4.931-21.09,9.863-33.655,15.739c20.868,14.739,43.655,12.41,64.01,20.301c-6.022-0.231-12.044-0.462-18.528-0.71
		c0.696,6.033,1.34,11.624,1.985,17.216l0.202-0.199c-2.97-17.487-15.011-20.934-28.244-23.016c-4.201-0.661-8.29-2.594-12.275-4.37
		c-17.186-7.658-23.185-8.292-43.709-3.868c2.899,9.085,4.864,18.574,8.84,26.85c4.802,9.995,6.432,19.384,2.433,30.11
		c-1.86,4.988-2.588,10.493-5.551,15.722c0.188-5.013-0.419-10.258,0.72-14.994c2.815-11.705,2.022-22.276-4.422-32.305
		c-2.654-4.13-4.786-8.901-6.241-13.73c-4.027-13.365-14.8-16.969-28.66-8.075c-3.684,2.364-7.881,3.738-11.871,5.485
		c-16.908,7.405-33.887,14.609-50.718,22.229c-9.939,4.5-19.649,9.641-27.706,13.626c8.072,9.13,16.821,20.04,26.612,29.63
		c4.254,4.167,10.485,6.176,16.104,8.194c13.255,4.761,26.682,8.938,40.039,13.352c-0.315,1.177-0.629,2.354-0.944,3.531
		c-11.101-3.909-22.203-7.818-33.304-11.726c-0.683,0.645-1.367,1.29-2.05,1.935c13.832,21.28,28.543,42.217,22.929,73.964
		c-1.052-8.859-2.042-14.754-2.408-20.702c-1.386-22.522-10.892-39.501-28.481-50.061c-12.595-7.562-23.233-17.321-33.137-28.647
		c-3.225-3.688-8.704-6.196-13.417-6.789c-29.521-3.711-55.342,9.177-80.671,24.017c-3.997,2.342-8.416,3.79-12.661,5.587
		c-37.496,15.873-72.492,37.105-105.131,63.027c-18.987,15.08-29.014,34.76-20.77,61.523c0.099,0.32,0.075,0.686,0.159,1.013
		c9.901,38.574,12.44,78.289,14.061,118.159c0.236,5.8,1.016,11.568,1.766,19.772c7.55-6.796,14.072-12.297,20.21-18.288
		c7.211-7.039,13.879-14.777,21.173-21.699c6.12-5.808,4.915-10.771,0.167-16.438c-3.899-4.653-7.393-9.73-9.732-12.843
		c4.278,1.33,11.027,6.027,14.668,3.932c5.03-2.894,7.718-10.906,12.336-18.188c-1.165,5.127-0.911,11.258-3.234,12.946
		c-8.708,6.326-6.351,14.418-4.984,23.66c9.467-3.136,18.715-5.671,27.538-9.457c2.535-1.088,4.366-5.545,5.634-8.871
		c10.615-27.845,21.911-55.464,24.154-86.214c0.222-3.044,2.469-5.92,4.195-9.821c0.263,36.822-12.086,69.164-23.341,105.113
		c9.973-3.868,17.867-6.979,25.793-9.984c4.654-1.764,9.37-3.319,14.039-5.035c9.296-3.417,18.746-6.402,27.828-10.433
		c14.885-6.606,29.841-10.837,46.019-7.944c11.903,2.129,23.866-7.962,30.15-25.119c0.437,2.741,0.726,4.547,1.227,7.689
		c5.124-3.4,9.518-6.316,13.912-9.232c0.418,0.555,0.837,1.109,1.255,1.664c-10.498,9.109-20.996,18.218-31.941,27.714
		c15.111,8.864,44.455,2.357,59.312-9.05c26.102-20.04,46.168-46.705,67.434-72.112c4.549-5.434,7.749-12.272,12.072-19.276
		c-1.006,3.808-1.841,6.968-3.219,12.182c8.786-5.803,16.191-10.694,23.596-15.585c0.329,0.331,0.659,0.662,0.988,0.993
		c-1.35,2.179-2.699,4.359-5.144,8.308c9.755-2.535,17.672-4.593,27.31-7.098c-4.692,3.352-7.824,5.59-9.401,6.717
		c-7.87,2.455-14.893,3.764-21.272,6.787c-30.053,14.247-48.99,42.065-69.583,72.139c4.535-1.124,6.994-1.414,9.244-2.346
		c11.839-4.901,23.59-10.068,35.441-14.929c6.468-2.653,10.011-7.457,13.368-14.413c4.337-8.986,11.523-16.28,17.482-24.302
		c0.747,0.686,1.494,1.371,2.241,2.057c-7.233,9.979-14.465,19.958-21.698,29.937c16.882,5.182,24.623-10.882,37.126-14.346
		c12.798-3.545,25.373-8.122,38.57-11.298c-2.98,2.094-5.961,4.187-8.941,6.281c0.133,0.592,0.267,1.184,0.4,1.777
		c9.972-0.422,19.944-0.844,29.916-1.266c0.2,0.994,0.4,1.988,0.6,2.982c-26.065,3.541-52.825,3.767-78.59,17.039
		c9.162,7.641,17.799,3.656,25.944,3.874c8.942,0.238,17.955,1.513,26.8,0.578c8.372-0.884,16.566-4.045,25.448-4.332
		c-7.741,3.248-15.483,6.496-23.753,9.966c1.801,1.348,3.642,2.725,7.541,5.642c-17.131-1.923-31.941-15.701-47.894-3.152
		c-24.832-12.511-47.37-0.194-70.435,12.016c18.964,4.792,39.438,6.041,49.041,31.277c-4.566-3.17-8.688-5.245-11.937-8.427
		c-12.41-12.149-27.626-15.876-43.292-18.43c-1.489-0.243-3.256-0.443-4.553,0.202c-10.86,5.399-21.64,11.001-33.431,17.047
		c3.758,0.865,7.126,2.787,10.036,2.122c17.494-4.001,33.275,5.116,49.951,7.187c23.527,2.923,46.931,6.984,70.428,10.212
		c9.183,1.262,13.133-5.944,15.891-14.158c1.364-4.062,2.43-8.246,5.594-11.672c-2.232,7.648-4.464,15.295-6.696,22.943
		c0.328,0.464,0.655,0.928,0.982,1.391c3.748-4.646,7.496-9.292,11.244-13.938c0.612,0.47,1.224,0.94,1.836,1.41
		c-3.58,5.989-7.159,11.978-11.881,19.879c9.192-2.795,17.126-5.208,25.059-7.62c0.233,0.509,0.466,1.018,0.699,1.526
		c-6.604,3.033-13.208,6.066-22.279,10.233c10.865,5.26,20.33,9.842,29.796,14.424c-0.183,0.628-0.366,1.256-0.55,1.885
		c-8.773-3.403-18.01-5.791-26.224-10.415c-18.762-10.559-38.803-13.806-61.928-15.716c20.995,14.73,42.716,24.643,51.052,51.372
		c-6.881-6.63-13.762-13.26-21.731-20.939c-1.48,7.385-2.648,13.214-3.817,19.043c-0.581-0.064-1.161-0.128-1.742-0.191
		c0.086-2.286-0.392-4.829,0.349-6.814c4.524-12.12-0.868-19.833-9.291-25.556c-13.5-9.171-26.38-19.573-44.168-16.795
		c-7.619,1.19-15.826-2.555-24.352-4.169c4.824,11.239,8.328,21.049,13.174,29.942c2.179,3.999,6.935,6.342,10.704,9.131
		c8.197,6.065,16.511,11.934,24.777,17.884c-0.642,1.315-1.285,2.631-1.927,3.946c-7.281-4.616-14.45-9.472-21.908-13.704
		c-2.329-1.322-5.437-0.955-10.316-1.675c-2.354-6.702-5.796-16.502-10.082-28.706c-3.162,5.894-4.688,8.738-6.214,11.583
		c-0.417-0.128-0.834-0.256-1.251-0.384c0.272-2.427,0.3-4.925,0.859-7.27c2.473-10.367-2.946-20.09-12.319-20.938
		c-33.766-3.057-67.512-7.153-101.348-8.195c-15.29-0.471-30.825,5.028-46.151,8.393c-7.187,1.578-14.142,4.518-21.747,8.437
		c28.088,6.288,55.984,14.231,84.353,18.098c12.323,1.68,25.62-5.022,38.405-7.901c-0.234,0.387-0.93,1.536-2.226,3.673
		c4.667,0.973,8.994,1.875,13.32,2.778c-0.004,0.527-0.009,1.054-0.013,1.581c-11.16,0.458-22.32,0.917-33.48,1.376
		c-0.067,0.664-0.135,1.327-0.202,1.991c5.987,1.346,11.974,2.692,18.762,4.218c-1.766,1.678-2.95,2.803-4.459,4.237
		c2.596,2.336,4.945,4.451,6.218,5.596c-0.849,4.469-1.478,7.776-2.164,11.383c-1.979-3.656-3.412-7.628-5.875-10.502
		c-2.749-3.208-6.173-7.153-9.751-7.79c-30.668-5.463-61.378-10.759-92.208-14.966c-11.152-1.522-22.666-0.074-34.01,0.274
		c-4.606,0.141-9.427,2.191-13.756,1.232c-11.068-2.453-18.055,3.807-24.748,12.05c-5.809,7.155-11.809,14.139-18.001,20.883
		c-12.558,13.677-20.996,29.723-28.356,47.706c-10.962,26.784-13.602,53.641-14.518,82.567c-0.936,29.545,7.27,57.026,8.234,85.698
		c1.201,35.709,0.324,71.524,1.582,107.229c0.772,21.897,3.519,43.727,6.174,65.46c0.6,4.913,3.861,9.948,6.996,13.819
		c23.182,28.625,46.156,57.499,70.283,85.112c8.321,9.523,19.734,15.685,31.157,24.478c-3.194,0.229-6.134,1.28-8.583,0.488
		c-28.142-9.106-57.137-15.204-83.974-29.006c-2.773-1.426-6.56-0.429-10.361,1.828c6.269,5.248,12.538,10.497,18.807,15.745
		c-0.22,0.732-0.439,1.464-0.659,2.196c-3.636-1.431-7.476-2.425-10.873-4.369c-16.356-9.357-32.543-19.077-48.927-28.371
		c-2.287-1.297-5.719-2.118-7.96-1.174c-12.324,5.192-24.693,10.417-36.539,16.814c-7.289,3.936-13.672,9.986-20.6,15.191
		c-7.667-10.235-0.898-17.77,3.277-26.91c-10.754,2.937-20.269,6.364-30.014,7.999c-13.897,2.331-28.13,5.602-41.918,4.434
		c-24.983-2.117-49.19,1.331-73.443,6.933c-4.002,0.924-8.093,1.353-12.355,0.715c17.702-11.976,36.513-21.263,56.932-21.631
		c30.917-0.557,48.071-21.249,61.479-48.11c12.739-25.52,16.268-52.866,16.797-82.317c1.643-91.463,5.896-182.891,9.441-274.321
		c0.299-7.707-0.671-13.949-5.205-19.865c-3.154-4.115-5.485-9.083-7.847-13.877c-14.052-28.514-28.172-56.989-41.873-85.714
		c-3.342-7.007-7.075-4.908-11.286-2.27c-7.786,4.877-15.003,12.001-23.318,14.445c-11.671,3.43-24.258,5.342-36.218,4.431
		c-14.786-1.126-29.099-3.072-43.836,1.632c-13.979,4.462-21.728,13.401-22.49,29.626c-0.465,9.886-0.758,19.781-1.128,29.672
		c-1.225,0.025-2.451,0.049-3.676,0.074c-0.466-12.016-0.932-24.033-1.495-38.551c-3.722,4.584-6.061,7.464-8.4,10.344
		c-0.555-0.488-1.11-0.976-1.666-1.464c3.95-4.933,7.618-10.203,11.93-14.705c4.365-4.557,9.368-8.353,14.091-12.483
		c-0.234-1.033-0.469-2.065-0.703-3.098c-18.432-3.696-36.865-7.392-54.203-10.868c8.97-2.182,19.357-4.708,29.092-7.076
		c11.504,2.773,23.483,7.352,35.691,8.182c15.903,1.082,31.998-0.547,47.992-1.487c21.735-1.278,37.004-17.792,53.934-30.098
		c1.492-1.084,1.352-7.601,0.039-10.493c-14.231-31.346-32.556-59.405-52.679-86.499c-12.444-16.755-26.755-22.33-44.711-22.407
		c-19.413-0.084-38.839-1.029-58.232-0.342c-15.031,0.533-15.855,3.07-9.299,18.112c0.487,1.117,0.714,2.375-0.152,4.513
		c-2.836-3.621-5.672-7.243-10.356-13.225c-10.598,14.223-20.633,27.69-32.415,43.503c4.002-8.096,6.79-13.736,10.645-21.533
		c-5.721,3.596-9.752,6.131-13.783,8.665c-0.358-0.545-0.715-1.09-1.073-1.634c12.465-10.799,24.931-21.599,39.21-33.969
		c-3.674-0.695-4.977-1.279-6.211-1.126c-22.968,2.846-45.94,5.665-68.886,8.727c-27.033,3.607-46.452,20.561-61.682,44.661
		c-1.423,2.252-2.343,5.2-4.21,6.75c-8.294,6.886-14.537,14.779-14.079,27.475c-0.334-3.634-0.668-7.268-1.109-12.067
		c-14.911,8.057-14.993,27.984-27.189,38.057c5.131-11.088,9.811-21.443,14.727-31.658c1.296-2.694,2.859-5.957,5.089-7.251
		c13.399-7.777,21.872-20.801,30.634-33.772c6.669-9.873,14.18-19.042,21.316-28.524c0.992,0.733,1.984,1.466,2.975,2.199
		c-2.917,0.853-5.828,1.735-8.753,2.555c-17.623,4.939-35.143,10.473-52.929,14.482c-6.725,1.516-14.081-0.322-21.123-0.963
		c-4.636-0.422-7.792-0.39-9.757,6.12c-1.635,5.416-6.24,9.739-11.055,16.776c1.399-11.63,15.204-16.107,6.255-28.004
		c30.584,5.118,58.742-2.604,86.835-13.914c-20.232,2.34-37.156-4.87-51.288-21.341c27.661,25.8,59.673,7.411,89.186,14.472
		c0.561-1.493,1.122-2.986,1.684-4.479c-1.524-1.066-2.972-2.31-4.585-3.171c-13.572-7.251-21.555-19.743-27.024-34.901
		c-2.619-7.257-9.979-7.502-19.102-4.427c-10.78,3.633-22.129,5.174-33.28,7.293c-1.455,0.277-3.197-1.402-5.297-2.411
		c17.316-4.168,33.919-8.164,50.516-12.159c-3.794-23.412-14.168-43.113-32.414-53.396c-19.111-10.77-37.837,1.476-56.012,10.066
		c5.727-5.081,10.878-11.654,17.349-14.807c6.027-2.937,13.461-2.233,20.288-4.88c-4.302-0.749-8.604-1.498-12.905-2.247
		c0.056-0.451,0.112-0.903,0.168-1.354c10.715,1.077,21.43,2.154,33.111,3.329c0.24-6.409,0.515-13.752,0.79-21.095
		c0.824,0.019,1.648,0.038,2.472,0.057c-0.316,8.447-2.818,17.838-0.346,25.082c2.578,7.555,9.95,13.043,15.841,20.179
		c3.125-10.995,5.813-20.457,8.502-29.919c1.052,0.395,2.104,0.79,3.155,1.184c-1.983,6.239-5.221,12.39-5.621,18.74
		c-0.467,7.424,0.483,15.44,2.679,22.463c5.807,18.569,15.28,34.479,26.922,49.642c16.586,21.604,37.391,25.706,59.354,19.374
		c35.54-10.246,71.092-13.356,107.319-10.054c6.023,0.549,12.028,1.334,19.342,2.156c-8.928-14.595-16.73-28.459-25.555-41.455
		c-8.259-12.163-17.508-23.498-26.493-35.03c-9.773-12.544-23.79-15.406-37.288-17.671c-10.366-1.739-21.227,0.083-31.867,0.196
		c-6.468,0.069-12.969-0.616-19.397-0.053c-11.974,1.049-22.444,5.655-28.812,18.141c-0.634-0.675-1.267-1.35-1.901-2.025
		c5.023-5.621,10.045-11.241,16.288-18.227c-7.133-1.71-13.378-3.207-19.622-4.704c0.157-0.781,0.313-1.563,0.47-2.344
		c6.063,1.27,12.102,3.46,18.196,3.616c12.014,0.308,24.059-0.512,36.091-0.865L284.201,330.403z M288.597,276.453
		c-3.387-5.815-5.763-10.524-8.673-14.778c-13.364-19.537-26.47-39.322-40.472-58.278c-10.379-14.05-20.779-28.872-40.276-31.367
		c2.195,3.964,4.321,6.817,5.491,10.101c3.587,10.062,6.799,20.292,10.172,30.45c1.951,5.876,3.151,12.293,6.088,17.473
		c4.064,7.169,9.073,13.807,14.393,19.895c3.505,4.011,7.91,7.619,12.536,9.725C260.576,265.463,273.623,270.365,288.597,276.453z"
		/>
	<path fill="#2A4C54" d="M314.724,269.448c3.592-4.17,6.532-9.953,10.909-12.184c9.998-5.097,23.112-2.154,30.175-16.225
		c-0.199,4.93-10.59,10.309,0.282,11.613c-13.537,4.36-29.916,2.553-41.577,16.514C314.52,269.176,314.724,269.448,314.724,269.448z
		"/>
	<path fill="#2A4C54" d="M1063.832,325.014c11.698,3.591,23.397,7.181,35.095,10.772c-0.3,1.08-0.599,2.16-0.899,3.241
		c-3.502-1.392-7.005-2.783-12.466-4.953c3.505,6.602,5.883,11.082,8.262,15.562c0.16-0.443,0.32-0.887,0.48-1.33
		c-10.081-7.84-20.162-15.68-30.256-23.505C1064.034,324.815,1063.832,325.014,1063.832,325.014z"/>
	<path fill="#2A4C54" d="M704.762,542.836c-8.047-12.509-2.054-39.923,9.885-51.246
		C706.627,506.788,699.704,522.275,704.762,542.836z"/>
	<path fill="#2A4C54" d="M534.607,140.313c11.125-5.306,22.135-10.971,33.484-15.576c1.961-0.796,5.363,2.907,8.045,4.949
		c-15.702-3.901-27.093,7.669-40.12,13.146C535.546,141.993,535.076,141.153,534.607,140.313z"/>
	<path fill="#2A4C54" d="M284.217,330.391c-2.373-0.05-5.319,0.898-7.024-0.312c-11.003-7.812-21.734-16.096-31.444-26.252
		c8.385,6.094,16.712,12.29,25.18,18.237c4.288,3.012,8.832,5.575,13.266,8.34C284.201,330.403,284.217,330.391,284.217,330.391z"/>
	<path fill="#2A4C54" d="M466.362,348.588c-9.495-1.449-18.99-2.899-28.484-4.348c0.065-0.592,0.13-1.184,0.195-1.776
		c9.535,1.164,19.071,2.327,28.606,3.491C466.573,346.832,466.468,347.71,466.362,348.588z"/>
	<path fill="#2A4C54" d="M763.569,466.97c5.705-8.669,11.409-17.338,17.114-26.007c0.545,0.434,1.09,0.868,1.635,1.302
		c-5.63,8.73-11.261,17.459-16.891,26.189C764.808,467.959,764.188,467.464,763.569,466.97z"/>
</g>
</svg>
