<svg xmlns="http://www.w3.org/2000/svg" xmlns:xlink="http://www.w3.org/1999/xlink" viewBox="0 0 976.7 726.41"><defs><style>.cls-1{fill:none;}.cls-2{fill:#e8d1c9;}.cls-3{fill:#18343b;}.cls-4{fill:#de936c;}.cls-5{fill:#fdc56e;}.cls-6{fill:#c37f5e;}.cls-7{clip-path:url(#clip-path);}.cls-8{fill:#e3b065;}.cls-9{fill:#fdbf9d;}.cls-10{fill:#2a535e;}.cls-11{fill:#ff7252;}.cls-12{fill:#ff8d6a;}.cls-13{fill:#fff;}.cls-14{fill:#5c1c0c;}.cls-15{fill:#752912;}.cls-16{fill:#e0511e;}.cls-17{fill:#872910;}.cls-18{fill:#d1d8e3;}.cls-19{fill:#ffebe0;}</style><clipPath id="clip-path"><path class="cls-1" d="M475.66,306.39S521,287,564.39,297.15s66.55,51.76,109.07,55.46,77.65-43.44,77.65-43.44L777,218.58s-.93-13.86-44.37-27.73c0,0-138.71,32.18-230.91-10.4-6.95-3.22-58.4,27-58.4,27l-.93,32.35Z"/></clipPath></defs><g id="Layer_2" data-name="Layer 2"><g id="background"><polygon class="cls-2" points="283.23 634.75 238.77 723.92 383.67 723.92 312.18 637.46 283.23 634.75"/><path class="cls-3" d="M401.38,266.31c-62.19,32.18,26.11,50.6,26.11,50.6l70.12,169.36,58.28-29.59L495.63,245C488.87,226.56,463.58,234.13,401.38,266.31Z"/><path class="cls-4" d="M517.16,321.73c-1.07-.71-65.51,6.72-65.51,6.72s-19.12,11.69-21.6,11.69,22.66,37.53,22.66,37.53l45.78,116.88c-2.92,2.6-5.9,5.18-8.87,7.64A469.05,469.05,0,0,0,436.67,555c-19.12,22.31-54.92,61.22-54.92,61.22l9.4,17.94c-12,9.72-21.8,17.82-24.27,20.23-7.38,7.23,9.27,10.75,9.27,10.75L576.43,509.17S518.22,322.43,517.16,321.73Z"/><path class="cls-5" d="M381.75,616.17s-20.5,20-26.68,27.92c-2,2.61-11.89,10.34-8.5,19.9s13.27,18,9.78,3.56,12.92,2.93,13.85,1.94,30.41-23.64,30.41-23.64Z"/><path class="cls-4" d="M867.61,667.54c.49.74,32.17,35.13,32.17,35.13s-3.82,3-7.27,1.24-17.63-12.08-17.63-12.08Z"/><path class="cls-4" d="M794.82,189.47s-16,18.27-63.18,10.66c0,0,37.3,54.81,39.58,54.81s24.36-14.46,24.36-14.46,35-2.29,68.52,3.8-41.87-57.85-41.87-57.85Z"/><path class="cls-4" d="M817.9,681.56l-1.4-8.41-6.45-7.56-7.49-15.75L796.09,627l7-1.26s-21.55-134.88-27.36-171.33c.63-18.58,3.57-142.56,2.21-183.37C776.6,229.84,766,203,743,202s-43,16.68-40.67,52c2.14,32.85,22,180,24.76,200.51.57,9.15,4.8,20.18,8.81,32.75C743.12,510,777.76,630.3,777.76,630.3s-4.84,24.61-2,35.8a109.06,109.06,0,0,0,5.83,17.73h.15l-3.57,39s0,3.29,2.66,3.29c1.74,0,4.6,0,4.6,0s2.8-34.2,3.08-33.36c.22.67,3.91,21.55,5.79,29.89.79,3.52,3.45,3.47,3.45,3.47H805l-5.61-37.84,12,33.85s1.57,4.27,4.55,4.27h6.77l-12.62-40.08,14.72,35.41s2.15,4.39,5.39,4.39h5.12Z"/><path class="cls-4" d="M803.13,625.74s17,58.45,22.73,67.43c0,0-5.57,6.19-11.56-4.89a250.3,250.3,0,0,1-11.2-24.56S791.73,653.35,789,639.88s-1.19-20.06-1.19-20.06Z"/><path class="cls-6" d="M787.11,637.82c-2.7,24.84,18,25.74,18,25.74C787.41,656.08,787.11,637.82,787.11,637.82Z"/><path class="cls-6" d="M811.41,681l-6.34-17.47-2,.16,5.51,17.55c4.14,14.73,14.69,13.3,14.69,13.3l2.56-1.4C814.68,693.32,811.41,681,811.41,681Z"/><path class="cls-5" d="M475.66,306.39S521,287,564.39,297.15s66.55,51.76,109.07,55.46,77.65-43.44,77.65-43.44L777,218.58s-.93-13.86-44.37-27.73c0,0-138.71,32.18-230.91-10.4-6.95-3.22-58.4,27-58.4,27l-.93,32.35Z"/><g class="cls-7"><path class="cls-8" d="M493.74,267.12s34.54-10.63,66.41.88,65.53,41.62,65.53,41.62-9.74-9.74-9.74-23c0,0,8,15.93,36.3,20.36s46.93-1.77,54.9-13.28c0,0-30.17-81.63,35.83-91.73,0,0,28.61.86,34,16.63s-22,106.09-22,106.09-19.48,58.44-25.68,61.1S649.58,417.64,639.84,415s-96.51-34.53-96.51-34.53l-39-5.31-39-29.22-9.74-61.1Z"/></g><path class="cls-9" d="M879.51,681.56l-1.4-8.41-6.45-7.56-21.53-45.27.1,0s-34-132.91-43.05-168.69c-1-18.88-9-142.72-13.92-183.32-5-41-18-67-41.06-65.95s-41.47,20.45-36.06,55.55c5,32.63,37.82,177.92,42.39,198.15,1.38,9.09,6.57,19.74,11.68,31.94,9.12,21.78,52.67,137.39,53.89,140.63-.64,7.9-1.42,23.07,1.19,30.63,3.61,10.51,18.06,25.14,18.06,25.14l-3.61,38.43s0,3.29,2.66,3.29c1.74,0,4.6,0,4.6,0s2.8-34.2,3.08-33.36c.22.67,3.91,21.55,5.79,29.89.79,3.52,3.45,3.47,3.45,3.47h7.3L861,688.29l12,33.85s1.57,4.27,4.55,4.27h6.76l-12.61-40.08,14.71,35.41s2.16,4.39,5.4,4.39h5.12Z"/><path class="cls-10" d="M501.71,180.45c-77.77-30.72-125.83-16.84-127-16.56-37,9.12-46,52-41.16,96.72,5.27,48.77,87.27,210.23,87.27,210.23l57.44-8.25L476,306.87l25.56-8.31C482.74,249.52,501.71,180.45,501.71,180.45Z"/><path class="cls-9" d="M833.7,221.29s17.68,18.17,19.69,20.19,39.38,34.84,75.74,34.33c0,0,15.11-11.37,10.45-20.52-.86-1.69-.36-15.32-.36-15.32l3.13-5,13.53-10.77s-14.82-10.14-6-12.53c5.55-1.51,12.11-4,15.14-11.1,0,0-14.64-10.61-22.72-27.27l-1.51-10.1S970,128.89,951.85,98.1c0,0-13.64-19.7-51-35.35s-62.6-10.6-86.84,0-35.34,47-35.34,47-13.12,16.15-3,25.24S833.7,221.29,833.7,221.29Z"/><path class="cls-11" d="M918.05,242.68s12.92,9.84,21.53,12.61c0,0,7.69-5.85,8.92-10.15,0,0,.92-5.23-6.15-10.15l-5.54-1.54Z"/><path class="cls-12" d="M918.05,242.68l18.45-12.92s12.92-5.23,19.38-5.54c0,0-6.15,8.31-13.53,10.77C942.35,235,927.28,237.76,918.05,242.68Z"/><path class="cls-13" d="M918.4,186.34s7.68-4.22,8.25-26.86c0,0-8.95-2.45-9.72-2.08s-13.49,8-13.49,8L900,167.31A26.09,26.09,0,0,0,918.4,186.34Z"/><path class="cls-9" d="M900,167.31c2,.26,12.86-2.78,30.94-.88l-4.33-9.79-13.07-4.36L903.44,165.4Z"/><path class="cls-14" d="M943.6,149.15s-6.93,15-22.36,17.22C921.24,166.37,940.92,155.63,943.6,149.15Z"/><path class="cls-14" d="M938,150.71s-5.14,12.3-16.77,15.66C921.24,166.37,935.1,155.86,938,150.71Z"/><path class="cls-14" d="M933.09,149.82s-3.13,12.3-11.85,16.55C921.24,166.37,930.63,155.63,933.09,149.82Z"/><path class="cls-14" d="M929.07,149.15c.13-.91,0,10.51-7.83,17.22C921.24,166.37,928.39,153.84,929.07,149.15Z"/><path class="cls-14" d="M897.54,168.29s25.29-1.3,34.85-15.92C932.39,152.37,915.35,165.51,897.54,168.29Z"/><path class="cls-14" d="M924.09,152.83c.54-.55-3.13,11.25-25.54,15.13C898.55,168,914.74,162.49,924.09,152.83Z"/><path class="cls-14" d="M913.05,165.93l10-1.63s6.32-9.67,6.06-15.15c0,0-5.34,13.52-13.85,15.15Z"/><path class="cls-14" d="M944.19,156.52s-8.43,12.28-23,9.85C921.24,166.37,934.05,164.66,944.19,156.52Z"/><path class="cls-14" d="M923.49,166.59s11.9.14,16.67-3.78A16.44,16.44,0,0,1,923.49,166.59Z"/><path class="cls-14" d="M900,167.31s6.4,17.27,22.14,19.83C922.16,187.14,902.68,185.44,900,167.31Z"/><path class="cls-14" d="M924.32,176.37c-1.09,5-3.52,8.78-5.43,8.36s-2.58-4.83-1.49-9.86,3.52-8.78,5.43-8.36S925.41,171.33,924.32,176.37Z"/><path class="cls-13" d="M923.36,177.28c-.49,2.28-1.59,4-2.46,3.79s-1.17-2.19-.67-4.47,1.59-4,2.46-3.78S923.85,175,923.36,177.28Z"/><path class="cls-14" d="M909.49,166s11.38.42,13,.42l1-2.68-9.69.77Z"/><path class="cls-4" d="M952.68,206.3a3.36,3.36,0,0,0-1.69-1,9.28,9.28,0,0,0-2-.29,21.08,21.08,0,0,0-4,.31c-1.32.23-2.63.5-3.93.84s-2.59.73-3.89,1.09l-.35.11-.19-.24a7.11,7.11,0,0,1-1.15-2.19,11,11,0,0,1-.46-2.32,12,12,0,0,1,0-2.32,14.07,14.07,0,0,1,.41-2.26c0,.76,0,1.52,0,2.27a16.08,16.08,0,0,0,.28,2.21,10.4,10.4,0,0,0,.62,2.1,6.48,6.48,0,0,0,1,1.79l-.55-.14a37.69,37.69,0,0,1,8-1.93,16.1,16.1,0,0,1,4.16,0,7.57,7.57,0,0,1,2,.6A3.09,3.09,0,0,1,952.68,206.3Z"/><path class="cls-14" d="M908.77,135.87c-.55.45,14.44-5.87,23.32-4.28,0,0,10,2.22,11.9,15.71,0,0,2.7-10.16-9-21C935,126.35,922.26,124.77,908.77,135.87Z"/><path class="cls-15" d="M796.85,49.32S771.63,6.09,740.11.68,680.67,23.2,679.77,38.51c0,0,8.1-9,29.72-12.61,0,0-25.22,9-23.42,41.43S714,127.67,691.47,152c0,0,43.23-4.51,52.24-29.72S783.34,79,783.34,79Z"/><path class="cls-4" d="M864.62,227.26l5.13,8.86s10.72-.46,18.65-3.73c0,0-17.72-18.65-15.39-37.31s5.6-42.91,24.72-56.44,47.6-21.39,54.12-40.54S865.08,127,865.08,127s-24.25,37.78-23.78,39.65S864.62,227.26,864.62,227.26Z"/><path class="cls-15" d="M944,48.13C883.57,47,835.89,25.4,835.89,25.4c-67.55,19.65-78.69,63.3-77.73,108.67,3.34,45,31.84,79.63,78.37,92.46,25.07,21.33,57.55,21.33,57.55,21.33a104.24,104.24,0,0,1-20.8-14.72,75.09,75.09,0,0,0,18.49-4.22c-37.72-25.43-17.3-65.81-17.3-65.81l9.64-19.65,12.31-11.27c12.2-7.5,33.07-13.32,49.79-23.08,20-11.64,30.49-35.48,30.49-35.48Z"/><path class="cls-14" d="M891.77,228.92a55.85,55.85,0,0,1-9.38-7.64,59.5,59.5,0,0,1-7.69-9.41,49.87,49.87,0,0,1-5.36-11,43.77,43.77,0,0,1-2.23-12.07,45.75,45.75,0,0,1,1.15-12.23l.36-1.5.18-.75.22-.74c.31-1,.6-2,.93-2.93L872,165c.72-1.89,1.54-3.75,2.32-5.63.37-.94.85-1.84,1.27-2.77l1.31-2.75c.45-.92,1-1.8,1.44-2.7s1-1.8,1.5-2.67l1.63-2.6c.28-.43.54-.87.84-1.29l.91-1.24a50.81,50.81,0,0,1,18.61-15.83A115.78,115.78,0,0,1,913,122.55c3.76-1.5,7.54-2.88,11.24-4.4s7.36-3.18,11-5a116.9,116.9,0,0,0,10.51-5.82,111.76,111.76,0,0,0,9.9-6.85q2.39-1.84,4.69-3.8l2.3-2,2.26-2a120.61,120.61,0,0,1-18.54,15.55,135.26,135.26,0,0,1-21.39,11.46c-1.85.83-3.73,1.57-5.59,2.35s-3.75,1.49-5.6,2.26a117.8,117.8,0,0,0-10.88,5,48.9,48.9,0,0,0-17.77,15.27C880.39,151,877,158.34,874,165.75l-2.14,5.61c-.33.94-.62,1.88-.93,2.82l-.23.71-.18.71-.37,1.44a45.9,45.9,0,0,0-1.31,11.73,43.37,43.37,0,0,0,1.87,11.67,49.58,49.58,0,0,0,4.89,10.84A61.8,61.8,0,0,0,891.77,228.92Z"/><path class="cls-14" d="M860.2,223.85a106,106,0,0,1-16.45-22.28,74.59,74.59,0,0,1-9.16-26.31,50.75,50.75,0,0,1,.13-14.14A46.53,46.53,0,0,1,839,147.58c4.31-8.51,10.49-15.72,17.3-22.16a137.24,137.24,0,0,1,22.41-16.82,243.29,243.29,0,0,1,24.68-13c8.41-3.93,17.08-7.33,25.42-11a46.54,46.54,0,0,0,5.86-3q2.81-1.83,5.4-3.92a46.78,46.78,0,0,0,4.8-4.52A32.12,32.12,0,0,0,947,70.62c.33-.42.63-.86.91-1.29s.58-.93.73-1.21L952,70.88a116.55,116.55,0,0,1-11.92,7.31q-6.1,3.32-12.52,6A131.46,131.46,0,0,1,901,92.43c-9.18,1.84-18.65,1.79-27.76,1.26s-18.1-1.08-26.83.67a71.91,71.91,0,0,0-24.58,10.16,65.8,65.8,0,0,0-19.55,18.15,56.77,56.77,0,0,0-9.84,24.83,63.17,63.17,0,0,0-.63,6.75c0,2.26-.05,4.53.18,6.79a58.82,58.82,0,0,0,2.45,13.39c-6.21-17.15-4.27-37.42,6-53,5-7.84,12-14.25,19.76-19.39a74.31,74.31,0,0,1,25.49-11.12c9.2-2,18.66-1.58,27.71-1.17s18,.35,26.75-1.49a131.5,131.5,0,0,0,25.62-8.1c4.12-1.76,8.18-3.72,12.11-5.88a114.06,114.06,0,0,0,11.38-7L956.67,62l-4,8a16.65,16.65,0,0,1-1,1.77c-.34.53-.71,1-1.08,1.53-.74,1-1.55,1.92-2.36,2.82a51.35,51.35,0,0,1-5.3,4.94,67.26,67.26,0,0,1-5.81,4.19,51.24,51.24,0,0,1-6.46,3.3c-4.28,1.89-8.55,3.61-12.8,5.4s-8.47,3.6-12.65,5.47A237.93,237.93,0,0,0,880.78,112q-5.88,3.51-11.43,7.5A112.1,112.1,0,0,0,858.72,128a94.73,94.73,0,0,0-9.45,9.77,68.16,68.16,0,0,0-7.61,11.14,43.67,43.67,0,0,0-4.39,12.63,49.31,49.31,0,0,0-.49,13.46,73,73,0,0,0,8,26,110.54,110.54,0,0,0,7,11.86A103.78,103.78,0,0,0,860.2,223.85Z"/><path class="cls-14" d="M915.9,68.84a4.84,4.84,0,0,1-1.72,1.42,8.77,8.77,0,0,1-1,.5,6.76,6.76,0,0,1-1,.42l-1.06.38-1.1.3c-.72.21-1.46.37-2.2.51-1.48.32-3,.46-4.47.67s-3,.31-4.5.35a157.5,157.5,0,0,1-18-.19c-6-.38-12-1-17.94-1.56s-11.92-1.14-17.88-1.5-11.91-.65-17.84-.51a106,106,0,0,0-17.64,1.6,79.57,79.57,0,0,0-16.87,4.9,90.21,90.21,0,0,0-15.33,8.61l-2.62,1.8,0-3c0-6.38,3.11-11.56,7-15.72a43.74,43.74,0,0,1,14-9.2,67.76,67.76,0,0,1,15.91-4.66l4.12-.54c1.37-.12,2.76-.13,4.14-.2.69,0,1.38-.07,2.06-.07l2.07.07c1.37.06,2.75.06,4.12.18a131,131,0,0,1,16.2,2.43c5.32,1.16,10.59,2.42,15.84,3.73s10.51,2.55,15.83,3.43A86.24,86.24,0,0,0,892,64.17a76.9,76.9,0,0,1-16.26-.35c-5.4-.65-10.73-1.69-16-2.74s-10.6-2.22-15.91-3.18a141.36,141.36,0,0,0-16-2c-1.33-.09-2.66,0-4-.08l-2,0-2,.12c-1.32.1-2.65.14-4,.28L812,56.8a30.3,30.3,0,0,0-3.87.83l-1.92.47-1,.24-.94.32-3.77,1.28c-1.24.45-2.43,1-3.66,1.52A42.25,42.25,0,0,0,784,70.07a25.52,25.52,0,0,0-4.35,6.18L778.89,78c-.17.59-.4,1.18-.53,1.78a16.27,16.27,0,0,0-.34,1.8,11.36,11.36,0,0,0-.09,1.67L775.29,82a88.12,88.12,0,0,1,16-9,82.7,82.7,0,0,1,17.61-5A104.55,104.55,0,0,1,827,66.62c6.05-.06,12.08.3,18.08.82s12,1.22,17.92,1.92,11.88,1.57,17.83,2.13a159.49,159.49,0,0,0,17.88,1c1.49,0,3-.1,4.47-.15s3-.21,4.44-.47c.74-.1,1.48-.2,2.2-.37l1.1-.23,1.07-.31a8.22,8.22,0,0,0,1.06-.35,9.22,9.22,0,0,0,1-.44A4.84,4.84,0,0,0,915.9,68.84Z"/><path class="cls-14" d="M776.56,80.78c.12-4.2.89-8.34,1.19-12.49A44.26,44.26,0,0,0,777.23,56a25.2,25.2,0,0,0-5-10.94,28.8,28.8,0,0,0-9.39-7.49,39,39,0,0,0-11.44-4,34.89,34.89,0,0,0-12-.13A23.13,23.13,0,0,0,728.79,38a14.71,14.71,0,0,0-3.62,4.29c-.25.4-.41.83-.62,1.25L724,45c-.39.94-.69,1.92-1,2.87A83.69,83.69,0,0,0,719,72a105.82,105.82,0,0,0,.48,12.33c.41,4.11,1.2,8.14,1.87,12.31a91.45,91.45,0,0,1,1.33,12.65A34.09,34.09,0,0,1,720.61,122,39,39,0,0,1,714,132.83a74.07,74.07,0,0,1-8.91,8.89c1.45-1.51,2.89-3,4.25-4.61s2.71-3.17,3.92-4.86A38.52,38.52,0,0,0,719,121.4a32.34,32.34,0,0,0,1.4-12,89.09,89.09,0,0,0-1.71-12.25c-.82-4-1.67-8.23-2.19-12.45A96.58,96.58,0,0,1,715.76,72a82.84,82.84,0,0,1,4-25.19c.37-1,.7-2,1.12-3l.61-1.5a15,15,0,0,1,.78-1.55,17.78,17.78,0,0,1,4.45-5.22,25.52,25.52,0,0,1,12.22-5,39.33,39.33,0,0,1,25,5,31.75,31.75,0,0,1,5.33,3.67,26.31,26.31,0,0,1,4.46,4.73A25,25,0,0,1,777,49.48a28.85,28.85,0,0,1,1.65,6.22,45.55,45.55,0,0,1-.11,12.67c-.27,2.09-.61,4.16-1,6.21S776.74,78.69,776.56,80.78Z"/><path class="cls-14" d="M794.46,174.43s-36.91-63.22,39.95-90.24c0,0-17.68-8.51-57.18.55,0,0,7.23-10.26,32.2-13.51S848,67.46,861,70.41s43.44,3.33,53.14-.15c0,0-25.13,11.53-40.74,12.73,0,0,45.06.66,71.46-9.88L909.53,89S863.83,93.2,862,93.2a75.82,75.82,0,0,0-32.42,7.21c-16.67,7.66-15.78,9.43-15.78,9.43S785.13,119.37,794.46,174.43Z"/><path class="cls-14" d="M705.06,141.72s28.05-10.34,27.65-34-2.4-42,2.8-45.23a17.76,17.76,0,0,1,10.81-2.4s-15.61,13.6-4.41,40.82c0,0,4.81-32.82,18.42-33.62s14.28,19.21,14.28,19.21l2.53-15.61,1.2-11.2s2.8-16.82-18-24.82-24-2.4-24-2.4-7.11,1.27-11.76,11-9,26.58-6.65,39S730.26,123.65,705.06,141.72Z"/><path class="cls-9" d="M476.1,337.71,363.75,350.28l58.14,126.5.81.61c-11,1.83-35.14,3.3-73.72,26.14-25.28,15-102.27,81.67-102.27,81.67L251.08,608l-35.89,17c-9.35,4.4,5.22,13.19,5.22,13.19l260-117.36Z"/><path class="cls-5" d="M250.18,582.39s-27,21.14-35.43,26.58c-2.78,1.79-.41,16-.35,26.2s4.36,20.35,5.81,5.52-.72-2.13.49-2.76S271,615,271,615Z"/><path class="cls-4" d="M867.7,675.2s5.68,5.93,5.68,6.7a26.72,26.72,0,0,1-1.72,4.43l-.09-4.69Z"/><path class="cls-4" d="M857.11,677.4s5.67,5.93,5.67,6.7a26.72,26.72,0,0,1-1.72,4.43l-.09-4.69Z"/><path class="cls-4" d="M849.18,684.61s2.92,5,2.8,5.49a19.4,19.4,0,0,1-1.84,2.8l.66-3.25Z"/><path class="cls-4" d="M432,517.51s12.58-12.59,28.48-15.24C460.46,502.27,442.49,499.56,432,517.51Z"/><path class="cls-3" d="M465,252.91c-.63-1,11.27,40.61,11.05,54l5.2-1.74S480.81,279.21,465,252.91Z"/><path class="cls-3" d="M494.49,269.47s-7.49,25-3.2,37.17l10.27-8.08S494.82,276.07,494.49,269.47Z"/><path class="cls-16" d="M380,695.25l-8.28-20.86,9.56-4.58v-5.7l-14.62-13.3-2.86-19.29c-35.38.69-50.94,9.1-50.94,9.1C315.44,684,337,715.32,337,715.32l-16.1,4.17,55.69,2a61.37,61.37,0,0,1,1.54-6.77c12.48.55,32.06.78,32.92-.36C415.8,708,392.8,700.23,380,695.25Z"/><path class="cls-17" d="M328.17,635.49c2,7.4.27,12.57-7.54,18.7,0,0,13.48,44.67,24.65,57l-11.94-1.92s-20.08-32.92-20.44-68.64C312.9,640.62,317.76,637.69,328.17,635.49Z"/><path class="cls-18" d="M359.34,681.4a.88.88,0,0,1-.44-1.65,5.7,5.7,0,0,0,.61-.47,20.77,20.77,0,0,1,11.17-4.74.82.82,0,0,1,.81.75.75.75,0,0,1-.51.93,19.78,19.78,0,0,0-10.63,4.5A3.21,3.21,0,0,1,359.34,681.4Z"/><path class="cls-18" d="M361.94,687.82a.76.76,0,0,1-.85-.66.78.78,0,0,1,.41-1,5.7,5.7,0,0,0,.61-.47A20.81,20.81,0,0,1,373.28,681a.82.82,0,0,1,.81.75.73.73,0,0,1-.51.92A19.76,19.76,0,0,0,363,687.15,3,3,0,0,1,361.94,687.82Z"/><path class="cls-18" d="M364.54,694.25a.88.88,0,0,1-.44-1.64,6.7,6.7,0,0,0,.62-.47,20.65,20.65,0,0,1,11.16-4.74.82.82,0,0,1,.81.75.73.73,0,0,1-.51.92,19.76,19.76,0,0,0-10.63,4.51A3,3,0,0,1,364.54,694.25Z"/><path class="cls-18" d="M367.14,700.68a.88.88,0,0,1-.44-1.64,6.7,6.7,0,0,0,.62-.47,20.65,20.65,0,0,1,11.16-4.74.81.81,0,0,1,.81.75.73.73,0,0,1-.51.92A19.72,19.72,0,0,0,368.16,700,3.14,3.14,0,0,1,367.14,700.68Z"/><rect class="cls-19" x="14.69" y="699.54" width="14.45" height="24.39"/><rect class="cls-19" x="310.69" y="399.09" width="14.45" height="635.83" transform="translate(-399.09 1034.92) rotate(-90)"/><rect class="cls-19" x="45.85" y="699.54" width="14.45" height="24.39"/><rect class="cls-19" x="77" y="699.54" width="14.45" height="24.39"/><rect class="cls-19" x="108.16" y="699.54" width="14.45" height="24.39"/><rect class="cls-19" x="139.32" y="699.54" width="14.45" height="24.39"/><rect class="cls-19" x="170.48" y="699.54" width="14.45" height="24.39"/><rect class="cls-19" x="201.64" y="699.54" width="14.45" height="24.39"/><rect class="cls-19" x="232.8" y="699.54" width="14.45" height="24.39"/><rect class="cls-19" x="263.96" y="699.54" width="14.45" height="24.39"/><rect class="cls-19" x="295.12" y="699.54" width="14.45" height="24.39"/><rect class="cls-19" x="326.28" y="699.54" width="14.45" height="24.39"/><rect class="cls-19" x="357.44" y="699.54" width="14.45" height="24.39"/><rect class="cls-19" x="388.6" y="699.54" width="14.45" height="24.39"/><rect class="cls-19" x="419.76" y="699.54" width="14.45" height="24.39"/><rect class="cls-19" x="450.91" y="699.54" width="14.45" height="24.39"/><rect class="cls-19" x="482.07" y="699.54" width="14.45" height="24.39"/><rect class="cls-19" x="513.23" y="699.54" width="14.45" height="24.39"/><rect class="cls-19" x="544.39" y="699.54" width="14.45" height="24.39"/><rect class="cls-19" x="575.55" y="699.54" width="14.45" height="24.39"/><rect class="cls-19" x="606.71" y="699.54" width="14.45" height="24.39"/><polygon class="cls-19" points="131.33 634.75 82.93 723.89 229.52 723.89 160.29 637.46 131.33 634.75"/><polygon class="cls-2" points="131.33 634.75 155.01 712.73 212.44 712.73 182.73 665.21 160.29 637.46 131.33 634.75"/><path class="cls-17" d="M354.07,673.73s.42-8,2.94-13.86a51,51,0,0,1,3.5-7.28l20.8,17.22v-5.7L360.79,645S348.19,656.79,354.07,673.73Z"/><path class="cls-16" d="M227.11,601.23l3.7,15.34,18.52,6.88,2.12,5.3L235,649.39l5.19,31.54s32.82,11.49,37.06,31.6H218.54L196,704.92s-19.9-37.72-25-90.46C171,614.46,191.65,607.05,227.11,601.23Z"/><path class="cls-17" d="M187.65,609.53s2.31,12.33-6.93,21.57c0,0,3.34,22.07,4.88,29l11.55,40.82L222.3,703s18.49-8.72,37.22-5.9,15.41,19.25,15.41,19.25-85,2.57-84.71,0-10.53-54.16-10.53-54.16a266.38,266.38,0,0,1-8.68-47.7S174.81,612.62,187.65,609.53Z"/><path class="cls-18" d="M218.54,654.78a.85.85,0,0,1,0-1.7,8.29,8.29,0,0,0,.91-.3A32.88,32.88,0,0,1,234.73,651a.85.85,0,1,1-.16,1.7A31.22,31.22,0,0,0,220,654.38,4.8,4.8,0,0,1,218.54,654.78Z"/><path class="cls-18" d="M219.72,661.66a.86.86,0,0,1,0-1.71,9.11,9.11,0,0,0,.9-.3,32.9,32.9,0,0,1,15.32-1.83.85.85,0,1,1-.16,1.7,31.36,31.36,0,0,0-14.57,1.73A5,5,0,0,1,219.72,661.66Z"/><path class="cls-18" d="M220.91,668.53a.86.86,0,0,1-.86-.85.85.85,0,0,1,.83-.85,9,9,0,0,0,.91-.31,32.92,32.92,0,0,1,15.31-1.82.85.85,0,1,1-.16,1.69,31.5,31.5,0,0,0-14.57,1.73A4.61,4.61,0,0,1,220.91,668.53Z"/><path class="cls-18" d="M222.09,675.4a.85.85,0,0,1,0-1.7,9.11,9.11,0,0,0,.9-.3,32.76,32.76,0,0,1,15.32-1.83.85.85,0,1,1-.16,1.7A31.22,31.22,0,0,0,223.56,675,4.84,4.84,0,0,1,222.09,675.4Z"/><path class="cls-17" d="M216.09,643.72l5.57-20.25,9.15-6.9-1.3-4-11.9,6.59S214.57,634.36,216.09,643.72Z"/></g></g></svg>