<svg xmlns="http://www.w3.org/2000/svg" viewBox="0 0 194.17 194.17"><defs><style>.cls-1{fill:#e6f5ed;}.cls-2{fill:#cfebdd;}.cls-3{fill:#bae2cd;}.cls-4{fill:#8cc5b3;}.cls-11,.cls-5{fill:#4a934f;}.cls-10,.cls-5{opacity:0.1;}.cls-6{fill:#dedfe1;}.cls-7{fill:#fff;}.cls-8{fill:#f2f2f3;}.cls-9{opacity:0.15;}.cls-12{opacity:0.5;}.cls-13{fill:#76af9c;}.cls-14{fill:#fcfdff;}.cls-15{fill:#cdcdcd;}</style></defs><g id="Layer_2" data-name="Layer 2"><g id="Capa_1" data-name="Capa 1"><circle class="cls-1" cx="97.08" cy="97.08" r="97.08"/><circle class="cls-2" cx="97.08" cy="97.08" r="85.73"/><circle class="cls-3" cx="97.08" cy="97.08" r="73.81"/><rect class="cls-4" x="32.35" y="23.47" width="126.6" height="79.12"/><rect class="cls-5" x="95.72" y="23.47" width="63.23" height="79.12"/><path class="cls-6" d="M95.65,97.29H37v-74c19.34-.74,48.26-10,58.63,0Z"/><path class="cls-6" d="M95.65,97.29h58.63v-74c-19.34-.74-48.27-10-58.63,0Z"/><path class="cls-7" d="M38.89,21.09V94.93c18.72-.75,46.72-10,56.76,0V21.09C85.61,11.06,57.61,20.35,38.89,21.09Z"/><path class="cls-8" d="M95.65,21.09V94.93c10-10,38-.75,56.76,0V21.09C133.69,20.35,105.68,11.06,95.65,21.09Z"/><g class="cls-9"><path class="cls-6" d="M95.65,21.09V94.93c10-10,38-.75,56.76,0V21.09C133.69,20.35,105.68,11.06,95.65,21.09Z"/></g><path class="cls-4" d="M142.19,128.32H49a6.17,6.17,0,0,0-6.17,6.17v35A6.17,6.17,0,0,0,49,175.71h93.17a6.17,6.17,0,0,0,6.17-6.17v-35A6.17,6.17,0,0,0,142.19,128.32Z"/><g class="cls-10"><path class="cls-11" d="M142.19,128.32H49a6.17,6.17,0,0,0-6.17,6.17v35A6.17,6.17,0,0,0,49,175.71h93.17a6.17,6.17,0,0,0,6.17-6.17v-35A6.17,6.17,0,0,0,142.19,128.32Z"/></g><g class="cls-12"><path class="cls-13" d="M142.19,128.32H95.92v47.39h46.27a6.17,6.17,0,0,0,6.17-6.17v-35A6.17,6.17,0,0,0,142.19,128.32Z"/></g><rect class="cls-14" x="54.16" y="137.92" width="6.47" height="6.47"/><rect class="cls-14" x="65.05" y="137.92" width="6.47" height="6.47"/><rect class="cls-14" x="75.95" y="137.92" width="6.47" height="6.47"/><rect class="cls-14" x="86.84" y="137.92" width="6.47" height="6.47"/><rect class="cls-14" x="97.74" y="137.92" width="6.47" height="6.47"/><rect class="cls-14" x="108.63" y="137.92" width="6.47" height="6.47"/><rect class="cls-14" x="119.52" y="137.92" width="6.47" height="6.47"/><rect class="cls-14" x="130.42" y="137.92" width="6.47" height="6.47"/><rect class="cls-14" x="54.24" y="159.12" width="6.47" height="6.47"/><rect class="cls-14" x="65.13" y="159.12" width="6.47" height="6.47"/><rect class="cls-14" x="76.03" y="159.12" width="6.47" height="6.47"/><rect class="cls-14" x="86.92" y="159.12" width="28.17" height="6.47"/><rect class="cls-14" x="119.6" y="159.12" width="6.47" height="6.47"/><rect class="cls-14" x="130.5" y="159.12" width="6.47" height="6.47"/><rect class="cls-14" x="54.16" y="148.52" width="11.34" height="6.47"/><rect class="cls-14" x="69.93" y="148.52" width="6.47" height="6.47"/><rect class="cls-14" x="80.82" y="148.52" width="6.47" height="6.47"/><rect class="cls-14" x="91.72" y="148.52" width="6.47" height="6.47"/><rect class="cls-14" x="102.61" y="148.52" width="6.47" height="6.47"/><rect class="cls-14" x="113.5" y="148.52" width="6.47" height="6.47"/><rect class="cls-14" x="124.4" y="148.52" width="12.49" height="6.47"/><path class="cls-13" d="M97.17,128.32H94.61a10.12,10.12,0,0,0-10.1-10.11H18A12.66,12.66,0,0,1,5.35,105.56V75.42A12.67,12.67,0,0,1,18,62.76H33.49v2.56H18A10.11,10.11,0,0,0,7.9,75.42v30.14A10.11,10.11,0,0,0,18,115.66H84.51A12.68,12.68,0,0,1,97.17,128.32Z"/><path class="cls-15" d="M63.18,56.75H56.83l-1.31,3H53.76l5.41-11.95h1.69l5.43,11.95H64.5Zm-.6-1.37L60,49.52l-2.58,5.86Z"/><path class="cls-15" d="M77.74,48.89a4.17,4.17,0,0,1,0,6.11,5.51,5.51,0,0,1-3.65,1.11h-3v3.62H69.43V47.78h4.66A5.51,5.51,0,0,1,77.74,48.89Zm-1.23,5a2.73,2.73,0,0,0,0-4A3.85,3.85,0,0,0,74,49.27h-2.9v5.36H74A3.85,3.85,0,0,0,76.51,53.94Z"/><path class="cls-15" d="M83,47.78h1.71V59.73H83Z"/><path class="cls-15" d="M109,62.5a34.71,34.71,0,0,1-1-8.71A35.15,35.15,0,0,1,109,45a24.75,24.75,0,0,1,3-7.14h3.09a28.28,28.28,0,0,0-3,7.47,37.79,37.79,0,0,0,0,16.84,28.56,28.56,0,0,0,3,7.47H112A26,26,0,0,1,109,62.5Z"/><path class="cls-15" d="M131.84,69.68a28.94,28.94,0,0,0,3-7.47,34.67,34.67,0,0,0,1-8.42,34.67,34.67,0,0,0-1-8.42,28.65,28.65,0,0,0-3-7.47h3.09A24.18,24.18,0,0,1,138,45a36.9,36.9,0,0,1,0,17.48,24.78,24.78,0,0,1-3,7.17Z"/><path class="cls-15" d="M118.85,60.65h8.54v1.06h-8.54Z"/></g></g></svg>