<?xml version="1.0" encoding="iso-8859-1"?>
<!-- Generator: Adobe Illustrator 21.0.2, SVG Export Plug-In . SVG Version: 6.00 Build 0)  -->
<svg xmlns="http://www.w3.org/2000/svg" xmlns:xlink="http://www.w3.org/1999/xlink" version="1.1" id="Layer_1" x="0px" y="0px" viewBox="0 0 40 40" style="enable-background:new 0 0 40 40;" xml:space="preserve">
<path style="fill:none;stroke:#4788C7;stroke-miterlimit:10;" d="M6.5,35v-4.808c0-5.353,4.339-9.692,9.692-9.692h7.615  c5.353,0,9.692-4.339,9.692-9.692V5.962"/>
<line style="fill:none;stroke:#4788C7;stroke-miterlimit:10;" x1="6.5" y1="32.5" x2="6.5" y2="6.5"/>
<g>
	<circle style="fill:#DFF0FE;" cx="6.5" cy="6.5" r="4"/>
	<path style="fill:#4788C7;" d="M6.5,3C8.43,3,10,4.57,10,6.5S8.43,10,6.5,10S3,8.43,3,6.5S4.57,3,6.5,3 M6.5,2   C4.015,2,2,4.014,2,6.5C2,8.985,4.015,11,6.5,11S11,8.985,11,6.5C11,4.014,8.985,2,6.5,2L6.5,2z"/>
</g>
<g>
	<circle style="fill:#DFF0FE;" cx="33.5" cy="6.5" r="4"/>
	<path style="fill:#4788C7;" d="M33.5,3C35.43,3,37,4.57,37,6.5S35.43,10,33.5,10S30,8.43,30,6.5S31.57,3,33.5,3 M33.5,2   C31.015,2,29,4.014,29,6.5c0,2.485,2.015,4.5,4.5,4.5S38,8.985,38,6.5C38,4.014,35.985,2,33.5,2L33.5,2z"/>
</g>
<g>
	<circle style="fill:#DFF0FE;" cx="6.5" cy="33.5" r="4"/>
	<path style="fill:#4788C7;" d="M6.5,30c1.93,0,3.5,1.57,3.5,3.5S8.43,37,6.5,37S3,35.43,3,33.5S4.57,30,6.5,30 M6.5,29   C4.015,29,2,31.014,2,33.5C2,35.985,4.015,38,6.5,38s4.5-2.015,4.5-4.5C11,31.014,8.985,29,6.5,29L6.5,29z"/>
</g>
</svg>
