<?xml version="1.0" encoding="iso-8859-1"?>
<!-- Generator: Adobe Illustrator 19.0.0, SVG Export Plug-In . SVG Version: 6.00 Build 0)  -->
<svg version="1.1" id="Layer_1" xmlns="http://www.w3.org/2000/svg" xmlns:xlink="http://www.w3.org/1999/xlink" x="0px" y="0px"
	 viewBox="0 0 512 512" style="enable-background:new 0 0 512 512;" xml:space="preserve">
<path style="fill:#0E7886;" d="M256.001,0.001c141.384,0,255.999,114.615,255.999,256S397.385,511.999,256.001,511.999
	C114.616,511.999,0,397.385,0,256.001S114.616,0.001,256.001,0.001z"/>
<path style="fill:#20D0C2;" d="M40.133,27.61h431.733V310.28H40.133V27.61z"/>
<path style="fill:#DFE1E3;" d="M463.387,27.61H256v271.079h207.387V27.61z"/>
<path style="fill:#FFFFFF;" d="M456.042,27.61c-66.679,0-130.366-28.434-200.042,0v253.924h200.042V27.61z"/>
<path style="fill:#DFE1E3;" d="M48.613,27.61H256v271.079H48.613V27.61z"/>
<path style="fill:#FFFFFF;" d="M55.956,27.61c66.679,0,163.042-27.939,200.045,0v253.924H55.956V27.61z"/>
<path style="fill:#ECF0F1;" d="M252.609,27.61h6.781v253.924h-6.781V27.61z"/>
<path style="fill:#FBB429;" d="M73.05,49.05h77.205v10.607H73.05V49.05z"/>
<path style="fill:#DFE1E3;" d="M73.05,139.981h154.411v5.017H73.05V139.981z M278.815,139.981L278.815,139.981h154.414v5.017
	H278.815V139.981z M278.815,73.806L278.815,73.806h154.414v5.018H278.815V73.806z M278.815,124.399L278.815,124.399h67.609v5.017
	h-67.609V124.399z M278.815,114.282L278.815,114.282h154.414v5.017H278.815V114.282z M278.815,104.161L278.815,104.161h154.414
	v5.017H278.815V104.161z M278.815,94.044L278.815,94.044h67.609v5.017h-67.609V94.044z M278.815,83.926L278.815,83.926h154.414
	v5.016H278.815V83.926z M278.815,190.574L278.815,190.574h53.143v5.017h-53.143V190.574z M278.815,180.455L278.815,180.455h154.414
	v5.016H278.815V180.455z M278.815,170.336L278.815,170.336h154.414v5.018H278.815V170.336z M278.815,160.218L278.815,160.218
	h154.414v5.017H278.815V160.218z M278.815,150.099L278.815,150.099h154.414v5.017H278.815V150.099z M73.05,73.806L73.05,73.806
	h154.411v5.018H73.05V73.806z M73.05,124.399L73.05,124.399h67.61v5.017H73.05V124.399z M73.05,114.282L73.05,114.282h154.411v5.017
	H73.05V114.282z M73.05,104.161L73.05,104.161h154.411v5.017H73.05V104.161z M73.05,94.044L73.05,94.044h154.411v5.017H73.05V94.044
	z M73.05,83.926L73.05,83.926h154.411v5.016H73.05V83.926z M73.05,190.574L73.05,190.574h53.144v5.017H73.05V190.574z
	 M73.05,180.455L73.05,180.455h154.411v5.016H73.05V180.455z M73.05,170.336L73.05,170.336h154.411v5.018H73.05V170.336z
	 M73.05,160.218L73.05,160.218h154.411v5.017H73.05V160.218z M73.05,150.099L73.05,150.099h154.411v5.017H73.05V150.099z"/>
<path style="fill:#FF5B61;" d="M294.74,16.526l20.891-1.795v108.447l-10.513-7.65l-10.378,7.65V16.526z"/>
<path style="fill:#FFFFFF;" d="M357.964,290.987v25.129c0.425,5.337-1.462,8.633-4.512,10.585h-0.007
	c-2.866,1.832-6.695,2.337-10.493,2.227v0.006h-74.387l-0.068-0.007c-2.926-0.119-4.954,0.39-6.187,1.45l-0.005-0.002
	c-1.151,0.992-1.675,2.599-1.654,4.732l0.007,0.014v19.044h-3.536V335.12h0.007c-0.029-3.192,0.879-5.7,2.873-7.417v-0.007
	c1.903-1.637,4.72-2.44,8.564-2.293v-0.006h74.387l0.048,0.007c3.202,0.099,6.362-0.277,8.548-1.67l-0.002-0.005
	c1.992-1.275,3.212-3.565,2.889-7.412l-0.007-0.144v-25.187H357.964L357.964,290.987z"/>
<path style="fill:#FF5B61;" d="M87.07,351.876h337.86c9.153,0,16.637,7.487,16.637,16.638v131.262H70.433V368.514
	C70.433,359.363,77.92,351.876,87.07,351.876L87.07,351.876z"/>
<path style="fill:#EC4B53;" d="M87.07,351.876h337.858c6.13,0,11.506,3.354,14.396,8.317H72.68
	C75.568,355.23,80.944,351.876,87.07,351.876z"/>
<g>
	<path style="fill:#FFFFFF;" d="M251.962,339.632h17.707c1.371,0,2.488,1.121,2.488,2.486v9.708h-22.684v-9.708
		C249.473,340.753,250.59,339.632,251.962,339.632L251.962,339.632z"/>
	<path style="fill:#FFFFFF;" d="M132.99,384.078h20.546v20.547H132.99V384.078z M100.985,465.112L100.985,465.112h20.544v20.547
		h-20.544V465.112z M390.469,437.984L390.469,437.984h20.547v47.675h-20.547V437.984z M358.467,465.112L358.467,465.112h20.548
		v20.547h-20.548V465.112z M326.465,465.112L326.465,465.112h20.547v20.547h-20.547V465.112z M292.999,465.112L292.999,465.112
		h20.548v20.547h-20.548V465.112z M260.998,465.112L260.998,465.112h20.547v20.547h-20.547V465.112z M164.989,465.112
		L164.989,465.112h86.787v20.547h-86.787V465.112z M132.989,465.112L132.989,465.112h20.546v20.547h-20.546V465.112z
		 M100.985,438.102L100.985,438.102h52.424v20.544h-52.424V438.102z M358.467,438.102L358.467,438.102h20.548v20.544h-20.548
		V438.102z M326.465,438.102L326.465,438.102h20.547v20.544h-20.547V438.102z M292.999,438.102L292.999,438.102h20.548v20.544
		h-20.548V438.102z M260.998,438.102L260.998,438.102h20.547v20.544h-20.547V438.102z M228.994,438.102L228.994,438.102h20.546
		v20.544h-20.546V438.102z M196.993,438.102L196.993,438.102h20.547v20.544h-20.547V438.102z M164.989,438.102L164.989,438.102
		h20.544v20.544h-20.544V438.102z M100.985,411.091L100.985,411.091h20.544v20.544h-20.544V411.091z M390.469,411.091
		L390.469,411.091h20.547v20.544h-20.547V411.091z M358.467,411.091L358.467,411.091h20.548v20.544h-20.548V411.091z
		 M326.464,411.091L326.464,411.091h20.547v20.544h-20.547V411.091z M261.799,411.091L261.799,411.091h51.747v20.544h-51.747
		V411.091z M228.994,411.091L228.994,411.091h20.546v20.544h-20.546V411.091z M196.993,411.091L196.993,411.091h20.547v20.544
		h-20.547V411.091z M164.989,411.091L164.989,411.091h20.544v20.544h-20.544V411.091z M132.989,411.091L132.989,411.091h20.546
		v20.544h-20.546V411.091z M100.985,384.078L100.985,384.078h20.544v20.547h-20.544V384.078z M390.469,384.078L390.469,384.078
		h20.547v20.547h-20.547V384.078z M358.466,384.078L358.466,384.078h20.548v20.547h-20.548V384.078z M326.464,384.078
		L326.464,384.078h20.547v20.547h-20.547V384.078z M292.998,384.078L292.998,384.078h20.548v20.547h-20.548V384.078z
		 M260.997,384.078L260.997,384.078h20.547v20.547h-20.547V384.078z M228.994,384.078L228.994,384.078h20.546v20.547h-20.546
		V384.078z M196.993,384.078L196.993,384.078h20.547v20.547h-20.547V384.078z M164.989,384.078L164.989,384.078h20.544v20.547
		h-20.544V384.078z"/>
</g>
<path style="fill:#FBB429;" d="M164.553,364.665h15.553c1.75,0,3.18,1.43,3.18,3.179c0,1.752-1.43,3.186-3.18,3.186h-15.553
	c-1.752,0-3.181-1.434-3.181-3.186C161.372,366.095,162.802,364.665,164.553,364.665z M193.296,364.665L193.296,364.665h15.549
	c1.752,0,3.185,1.43,3.185,3.179c0,1.752-1.433,3.186-3.185,3.186h-15.549c-1.752,0-3.184-1.434-3.184-3.186
	C190.112,366.095,191.545,364.665,193.296,364.665z"/>
<g>
</g>
<g>
</g>
<g>
</g>
<g>
</g>
<g>
</g>
<g>
</g>
<g>
</g>
<g>
</g>
<g>
</g>
<g>
</g>
<g>
</g>
<g>
</g>
<g>
</g>
<g>
</g>
<g>
</g>
</svg>
