<svg xmlns="http://www.w3.org/2000/svg" viewBox="0 0 194.17 194.17"><defs><style>.cls-1{fill:#fef4ea;}.cls-2{fill:#fcead5;}.cls-3{fill:#fbe0c3;}.cls-4{fill:#fff;}.cls-5{fill:#cdcdcd;}.cls-6{fill:#d98d2f;}</style></defs><g id="Layer_2" data-name="Layer 2"><g id="Capa_1" data-name="Capa 1"><circle class="cls-1" cx="97.08" cy="97.08" r="97.08"/><circle class="cls-2" cx="97.08" cy="97.08" r="85.73"/><circle class="cls-3" cx="97.08" cy="97.08" r="73.81"/><rect class="cls-4" x="33.23" y="32.36" width="127.71" height="127.71" rx="11.23"/><path class="cls-5" d="M33.23,43.59A11.23,11.23,0,0,1,44.46,32.36H149.71a11.23,11.23,0,0,1,11.23,11.23"/><path class="cls-6" d="M78.47,94.37a1.26,1.26,0,0,1-1-.55L66.75,78.35,77.42,62.88a1.28,1.28,0,0,1,2.1,1.45l-9.67,14,9.67,14a1.28,1.28,0,0,1-.33,1.78A1.27,1.27,0,0,1,78.47,94.37Z"/><path class="cls-6" d="M114.47,94.37a1.27,1.27,0,0,1-.72-.22,1.28,1.28,0,0,1-.33-1.78l9.68-14-9.68-14a1.28,1.28,0,0,1,2.1-1.45L126.2,78.35,115.52,93.82A1.25,1.25,0,0,1,114.47,94.37Z"/><path class="cls-6" d="M112.52,144.44a17.11,17.11,0,0,1-12.18-5.14H86.89a17,17,0,0,1-26.47-2.61l-.07-.13a16.83,16.83,0,0,1-1.84-7.67,17.1,17.1,0,0,1,17.08-17.07H113.4a17,17,0,0,1,14.29,7.75l.08.12a17.06,17.06,0,0,1-15.25,24.75Zm-26.73-7.69h15.66l.38.42a14.51,14.51,0,0,0,25.22-9.81,14.37,14.37,0,0,0-1.53-6.45,14.47,14.47,0,0,0-12.12-6.54H75.59a14.51,14.51,0,0,0-13,21,14.49,14.49,0,0,0,22.82,1.82Z"/><path class="cls-6" d="M81,126.05H78a.26.26,0,0,1-.26-.26v-3a.25.25,0,0,0-.25-.25H74.23a.25.25,0,0,0-.25.25v3a.26.26,0,0,1-.26.26h-3a.25.25,0,0,0-.25.25v3.22a.25.25,0,0,0,.25.25h3A.26.26,0,0,1,74,130v3a.25.25,0,0,0,.25.25h3.22a.25.25,0,0,0,.25-.25v-3a.26.26,0,0,1,.26-.26h3a.25.25,0,0,0,.25-.25V126.3A.25.25,0,0,0,81,126.05Z"/><path class="cls-6" d="M118.3,130.15a2.25,2.25,0,0,0,1.94-.62,2.23,2.23,0,1,0-1.94.62Z"/><path class="cls-6" d="M111.91,131.58h0l-.15.13a2.21,2.21,0,0,0,.43,3.48,2.2,2.2,0,0,0,2.71-.33,2.22,2.22,0,0,0-3-3.28Z"/><path class="cls-6" d="M111.77,124.2a2.22,2.22,0,1,0,0-3.37l-.14.13a2.22,2.22,0,0,0,0,3.14A.94.94,0,0,0,111.77,124.2Z"/><path class="cls-6" d="M109.48,129.44a2.22,2.22,0,1,0-3.14,0A2.23,2.23,0,0,0,109.48,129.44Z"/><path class="cls-6" d="M95,113.11H92.44A10.17,10.17,0,0,1,102.6,103h25.11a7.62,7.62,0,0,0,7.6-7.61v-8a7.61,7.61,0,0,0-7.6-7.6h-3.06V77.15h3.06a10.17,10.17,0,0,1,10.16,10.16v8a10.17,10.17,0,0,1-10.16,10.16H102.6A7.61,7.61,0,0,0,95,113.11Z"/><circle class="cls-5" cx="86.88" cy="77.44" r="2.87"/><circle class="cls-5" cx="96.47" cy="77.44" r="2.87"/><circle class="cls-5" cx="106.06" cy="77.44" r="2.87"/></g></g></svg>