<svg xmlns="http://www.w3.org/2000/svg" viewBox="0 0 194.17 194.17"><defs><style>.cls-1{fill:#e6f8fa;}.cls-2{fill:#cff1f5;}.cls-3{fill:#baebf1;}.cls-4,.cls-6{fill:#fff;}.cls-5{fill:#f5f5f6;}.cls-6{opacity:0.05;}.cls-7{fill:#6ebdcf;}.cls-8{fill:#1cb3c3;}</style></defs><g id="Layer_2" data-name="Layer 2"><g id="Capa_1" data-name="Capa 1"><circle class="cls-1" cx="97.08" cy="97.08" r="97.08"/><circle class="cls-2" cx="97.08" cy="97.08" r="85.73"/><circle class="cls-3" cx="97.08" cy="97.08" r="73.81"/><path class="cls-4" d="M112.32,62.74a2.22,2.22,0,0,1-2.22-2.22V33.17l-.15,0a88.89,88.89,0,0,0-13.14-1,90.25,90.25,0,0,0-13.13,1h0V60.52a2.23,2.23,0,0,1-2.22,2.22H65a2.22,2.22,0,0,0-1.57,3.79l31.9,31.89a2.22,2.22,0,0,0,3.14,0l31.89-31.89a2.22,2.22,0,0,0-1.57-3.79Z"/><path class="cls-5" d="M112.32,62.74a2.22,2.22,0,0,1-2.22-2.22V33.17l-.15,0a87.92,87.92,0,0,0-10.86-.94,2.24,2.24,0,0,0-2.27,2.25L96.89,98a.83.83,0,0,0,1.42.59l32-32a2.22,2.22,0,0,0-1.57-3.79Z"/><path class="cls-6" d="M123.35,63.35l-25,23.7a2.24,2.24,0,0,1-3,0L69.68,63.33a2.21,2.21,0,0,0-1.5-.59H59.64L95.32,98.42a2.22,2.22,0,0,0,3.14,0l35.68-35.68h-9.27A2.16,2.16,0,0,0,123.35,63.35Z"/><polygon class="cls-7" points="59 124.78 59 161.78 97.14 170.22 97.14 120.5 59 124.78"/><polygon class="cls-8" points="135.28 124.78 135.28 161.78 97.14 170.22 97.14 120.5 135.28 124.78"/><polygon class="cls-7" points="97.14 120.5 109.83 110.86 146.54 116.56 135.28 124.78 97.14 120.5"/><polygon class="cls-8" points="97.41 120.5 84.72 110.86 48.01 116.56 59.27 124.78 97.41 120.5"/></g></g></svg>