<?xml version="1.0" encoding="iso-8859-1"?>
<!-- Generator: Adobe Illustrator 21.0.2, SVG Export Plug-In . SVG Version: 6.00 Build 0)  -->
<!DOCTYPE svg PUBLIC "-//W3C//DTD SVG 1.1//EN" "http://www.w3.org/Graphics/SVG/1.1/DTD/svg11.dtd">
<svg version="1.1" xmlns="http://www.w3.org/2000/svg" xmlns:xlink="http://www.w3.org/1999/xlink" x="0px" y="0px"
	 viewBox="0 0 63 63" style="enable-background:new 0 0 63 63;" xml:space="preserve">
<g id="games_x5F_black">
	<g id="games_x5F_black_1_">
		<path style="fill:#010101;" d="M31.5,40.399c0,0,5.209,0,8.103,0c2.894,0,4.196,0.723,6.511,5.643C48.429,50.961,50.6,54,52.77,54
			s3.183,0,3.183,0s6.511-1.013,6.511-12.01c0-6.222-0.62-14.167-3.473-22.862C55.953,9.868,48.863,9,48.863,9H47.55
			c-1.285,0-3.09,0.534-3.966,1.474l-2.824,3.389c-1.1,1.32-2.729,2.083-4.446,2.083H31.5h-4.813c-1.718,0-3.347-0.763-4.446-2.083
			l-2.824-3.389C18.541,9.534,16.735,9,15.45,9h-1.314c0,0-7.09,0.868-10.129,10.129c-2.853,8.695-3.473,16.64-3.473,22.862
			C0.535,52.987,7.047,54,7.047,54s1.013,0,3.183,0s4.341-3.039,6.656-7.958c2.315-4.92,3.617-5.643,6.511-5.643
			C26.291,40.399,31.5,40.399,31.5,40.399z"/>
		<circle style="fill:#FFFFFF;" cx="15.873" cy="25.206" r="6.945"/>
		<circle style="fill:#FFFFFF;" cx="42.207" cy="25.206" r="2.315"/>
		<circle style="fill:#FFFFFF;" cx="51.757" cy="25.206" r="2.315"/>
		<circle style="fill:#FFFFFF;" cx="47.127" cy="19.997" r="2.315"/>
		<circle style="fill:#FFFFFF;" cx="47.127" cy="30.415" r="2.315"/>
	</g>
</g>
<g id="Layer_1">
</g>
</svg>
