<?xml version="1.0" encoding="UTF-8" standalone="no"?>
<svg
   xmlns:dc="http://purl.org/dc/elements/1.1/"
   xmlns:cc="http://creativecommons.org/ns#"
   xmlns:rdf="http://www.w3.org/1999/02/22-rdf-syntax-ns#"
   xmlns:svg="http://www.w3.org/2000/svg"
   xmlns="http://www.w3.org/2000/svg"
   xml:space="preserve"
   enable-background="new 0 0 1200 1200"
   viewBox="0 0 1200 1200"
   y="0px"
   x="0px"
   id="Layer_1"
   version="1.1"><metadata
   id="metadata19"><rdf:RDF><cc:Work
       rdf:about=""><dc:format>image/svg+xml</dc:format><dc:type
         rdf:resource="http://purl.org/dc/dcmitype/StillImage" /><dc:title></dc:title></cc:Work></rdf:RDF></metadata><defs
   id="defs17" />
<g
   id="g12">
	<path
   id="path2"
   d="M1086.007,342.279c-28.808-54.781-39.573-62.402-69.664-102.015   c-27.304-35.946-90.384-85.759-130.519-110.41c-28.367-17.406-58.432-31.969-92.115-44.866   c-71.208-27.264-156.316-40.276-239.821-32.989c-113.198,9.875-211.849,51.228-295.133,116.61   c-31.661,24.846-60.368,54.856-86.228,85.387l-29.46,39.841C75.086,397.421,41.368,516.586,52.078,646.788   c9.074,110.487,52.306,212.632,116.529,294.349c112.181,142.75,292.274,222.441,477.346,206.956   c132.57-11.085,238.26-63.987,332.173-147.943c33.724-30.147,67.416-75.83,91.896-114.382   C1171.581,725.787,1175.557,512.552,1086.007,342.279z M878.612,1022.798c-20.248,16.049-40.112,29.388-65.898,43.054   c-104.148,55.164-259.539,57.582-369.573,21.553c-45.079-14.758-86.963-39.377-123.537-67.866c-2.982-2.32-4.869-3.682-7.5-5.806   c-8.486-6.869-9.368-5.32-6.06-6.789c11.5,9.932,47.716,29.673,67.647,39.319c22.918,11.099,49.373,22.265,75.412,30.261   c145.859,44.802,301.463,23.484,426.02-62.204l59.7-45.756C925.069,984.205,892.005,1012.189,878.612,1022.798z M378.682,1018.315   c38.438,13.721,50.868,27.295,111.824,41.589c44.849,10.512,92.173,15.658,140.753,12.359   c61.578-4.189,126.928-21.628,179.021-50.174l47.2-28.367c-8.909,10.307-29.886,24.428-44.823,34.101   c-89.992,58.21-225.945,63.575-327.315,38.787C448.809,1057.684,400.626,1035.673,378.682,1018.315z M881.039,957.555   c-77.253,51.056-154.339,81.93-259.637,85.704c-96.144,3.455-198.77-24.806-272.557-72.807   c-35.603-23.172-85.468-61.806-109.735-96.322c15.577-8.503,147.337-30.131,172.961-33.822   c195.272-28.14,380.059-14.931,573.637,14.874C969.486,884.609,910.916,937.797,881.039,957.555z M994.364,842.93   c-12.079-2.296-29.696-9.33-42.789-13.052c-194.002-55.115-448.149-58.507-638.359,7.082   c-21.023,7.252-76.939,32.848-78.573,33.249c-4.189-8.901-30.033-38.634-36.381-55.574c30.09-5.071,63.105-15.053,94.616-21.285   c103.451-20.475,201.946-30.644,308.715-33.102c144.029-3.302,283.607,12.39,421.969,33.96   C1020.901,803.005,1000.124,837.882,994.364,842.93z M1070.479,620.441c-0.383,17.861-2.253,48.419-8.347,66.009   c-1.559,4.535-0.994,2.591-1.755,3.898c-18.795-5.987-36.069-8.747-57.706-6.904c13.542,9.763,49.39,16.491,55.746,21.196   l-10.938,36.683c-22.25-5.791-23.262-12.816-64.206-12.923c25.702,10.137,25.702,17.847,60.475,20.861   c-3.334,12.938-10.742,24.112-14.718,36.141c-15.07-2.809-32.263-9.001-48.209-12.969c-222.7-55.452-526.336-58.613-741.49,23.662   c-11.762,4.5-33.603,15.827-42.889,17.813l-19.406-40.028c33.652-3.031,43.339-6.797,65.555-20.674   c-7.27-5.513,0.098-2.68-10.659-2.671c-9.54,0.009-19.481,2.043-27.967,5.227c-11.166,4.183-18.795,10.733-28.145,14.473   c-8.103-10.837-22.838-58.962-25.607-76.106c41.515-3.593,41.46-7.777,71.401-23.506c-46.243,2.957-35.536,4.876-71.972,20.158   c-8.97-25.091-10.676-79.12-9.901-108.459c10.267,1.585,22.648,7.44,32.468,6.377c5.227-0.571,25.981-5.936,29.396-7.947   c-3.619-1.59-24.708-5.333-29.537-5.74c-10.339-0.89-21.423,3.331-32.139,4.466c1.259-30.367,6.887-52.225,11.191-79.846   c23.8,9.408,15.216,17.282,55.426,9.358c-21.155-9.598-27.117-11.663-52.83-13.493c-2.115-14.202,27.264-85.18,35.308-93.167   c6.357,4.938,8.748,5.731,15.248,11.352c15.626,13.485,33.295,18.548,51.566,23.53l-3.57-3.798   c-1.446-1.38-1.919-1.625-3.619-3.111c-3.584-3.13-3.904-3.562-7.114-6.028c-4.866-3.723-8.218-7.596-13.802-10.97   c-7.777-4.688-27.584-11.05-37.582-13.338c8.97-26.921,43.396-69.597,63.734-90.833c18.818,21.039,2.76,18.052,36.159,35.317   c4.558,2.354,12.488,9.794,15.796,7.155c-19.807-19.037-20.199-28.903-47.765-45.607c6.201-16.049,62.238-58.138,75.798-66.24   c18.637,28.595,12.782,19.389,33.413,37.308c5.426,4.705,7.157,6.797,13.275,9.679c-2.533-6.501-12.563-23.163-16.712-29.37   c-6.117-9.149-15.764-13.917-24.143-21.507c16.605-13.018,97.276-55.752,124.54-57.827c7.212,32.713,17.691,38.265,34.297,62.394   c-19.579-65.203-20.337-44.342-28.938-64.01c16.94-10.693,97.115-19.201,122.918-19.749c-1.121,14.447-3.93,27.313-1.677,42.046   c1.66,10.866,3.196,28.767,7.451,37.408c3.74-8.119,4.728-29.036,5.44-39.867c0.962-14.972-3.44-25.834-5.783-39.769   c40.607-0.424,71.997,3.882,110.329,10.759c-16.165,29.272-20.983,22.247-22.648,64.425l1.925-1.91   c17.3-19.13,18.934-45.771,27.904-60.555c17.478,2.85,69.874,18.484,80.728,26.938c-6.477,3.553-20.925,14.888-24.812,19.643   c-6.299,7.693-12.18,17.193-15.061,30.18c26.183-5.921,31.258-30.482,46.612-47.307c19.896,6.353,44.342,22.844,61.152,32.099   c-10.618,11.909-16.539,6.371-21.066,29.477c18.804-1.951,20.617-14.358,30.255-23.27c1.265,1.936,14.537,9.915,18.182,12.701   l34.68,29.583c5.895,5.218,11.157,9.549,16.26,15.053c-26.627,12.416-23.489,18.386-41.368,36.559   c17.095-5.619,35.678-17.847,47.413-30.162c4.443,3.878,7.229,8.076,11.477,12.505c12.226,12.75,24.584,25.956,32.989,41.956   c-15.591,4.118-29.471,14.465-39.924,26.146c31.347-6.094,30.024-8.575,45.183-19.251c6.567,7.97,27.641,43.207,30.629,54.234   c-16.17,0.009-25.644,0.676-40.005,5.373l-31.404,16.165c28.056-0.262,50.583-7.351,76.4-11.812   c6.624,13.713,18.173,42.293,21.098,58.464c-20.648,2.55-48.223,6.812-64.287,15.234c57.933,4.956,37.308,0.905,67.22-6.945   c2.435,14.825,10.177,39.256,9.073,54.358c-27.811-5.129-42.022-2.36-69.908,0.752c17.536,8.944,49.986,10.511,72.219,8.411   l1.709,54.144c-11.606-1.291-53.133-11.214-61.676,0.467C1030.024,624.834,1042.039,622.523,1070.479,620.441z M1062.826,370.344   c-6.803-13.159-14.88-25.581-22.331-37.04l-45.347-60.328c-40.509-45.509-84.445-84.503-138.656-115.475   c-51.381-29.355-110.997-52.821-179.445-61.641c-67.572-8.717-142.779-0.916-206.129,25.696   c28.246,0.098,74.548-6.135,117.469-6.094c73.683,0.058,139.007,11.402,203.68,43.803c11.099,5.573,76.93,44.367,75.591,47.399   l-1.714,0.645c-12.889-11.329-53.401-32.468-76.351-42.319c-151.308-64.958-331.963-48.589-463.772,47.612   c-19.53,14.251-48.387,38.354-64.174,54.591c-16.286,16.761-39.426,44.711-52.724,64.477   c-67.367,100.169-105.035,232.454-70.323,378.638c20.043,84.373,53.205,137.235,99.287,196.223   c17.888,22.887,37.735,39.631,59.642,59.152l28.465,23.058c1.066,0.77,2.133,1.594,3.224,2.612l-3.224-2.612   c-2.03-1.465-4.06-2.657-6.267-4.07l-26.863-19.268c-54.853-41.484-103.851-107.35-132.988-172.339   c-64.082-142.951-59.714-252.888-2.916-397.857c9.924-25.336,30.58-67.874,36.545-84.839   c-8.299,12.131-19.366,24.593-27.944,37.334c-4.777,7.114-8.454,12.309-14.024,18.965c-4.99,5.947-7.791,11.958-12.056,19.311   C90.516,470.553,74.375,585.71,88.742,684.116c1.201,8.25,3.806,19.055,3.734,26.406c-0.236-12.096-7.238-37.562-9.264-53.808   c-15.761-126.79,14.401-247.843,80.313-352.316c34.519-54.715,71.574-91.07,120.673-131.786c5.463-4.541,11.736-7.988,18.32-13.053   c14.75-11.362,41.875-26.978,58.34-35.766c162.366-86.658,352.389-76.262,501.809,7.794c25.737,14.473,35.752,22.353,57.527,38.135   l17.51,13.843c24.227,17.887,43.405,40.406,63.44,62.027c29.992,32.376,85.108,118.913,93.383,156.927   c-4.028,4.181-6.503,4.768-10.857,7.84C1078.443,405.243,1066.886,378.193,1062.826,370.344z"
   fill="#232323" />
	<path
   id="path4"
   d="M756.724,339.478c3.391,0.017,8.512,0.326,11.655,0.129c6.633-0.414,4.968,0.427,8.143-3.405   c4.388-6.46,2.933-51.433,0.19-59.233c-9.379-2.677-38.896-1.599-51.205-1.372l-2.302,45.16   c-10.03-2.115-13.174-32.637-13.347-44.661l-59.492-0.499c-4.46,24.83,1.974,40.251-5.083,45.927   c-7.417-9.384-10.373-30.572-10.618-46.008l-55.213,0.139c-1.47,8.151-1.945,15.234-1.959,22.844   c-0.009,3.971,0.303,7.843,0.366,11.707c0.132,8.942-0.588,8.99-3.495,11.327c-7.359-9.701-10.365-30.335-10.609-46.016h-62.826   c-1.455,9.279-1.495,42.464-3.299,46.092c-5.524-1.962-5.564-4.576-9.477-18.493c-2.311-8.232-2.996-17.657-3.02-26.725   c-3.334-0.81-52.871-3.993-56.89,2.23c-3.7,5.725-1.959,54.34,0.663,58.953C437.088,342.092,700.833,339.185,756.724,339.478z"
   fill="#232323" />
	<path
   id="path6"
   d="M463.706,879.454c0.009,19.202-1.207,42.694,0.516,61.374c-32.589-7.198-58.057-41.492-61.241-42.342   c-5.497,44.391,42.53,66.249,77.086,77.789c101.255,33.799,335.173,26.203,346.476-87.297   c-6.037,3.227-31.537,35.139-65.604,43.674c0-19.936-0.066-39.882,0.009-59.813c0.107-30.099-3.294-26.12-32.28-26.103   l-239.297-0.009C459.321,846.595,463.692,851.064,463.706,879.454z M598.296,962.831c-27.313,0.156-58.948-2.034-85.877-7.48   l-22.567-5.97c-0.219-0.565-0.841-0.401-1.25-0.859l220.847,0.334C691.324,958.388,623.312,962.692,598.296,962.831z    M735.269,866.183c11.989,0,11.09,6.135,11.05,18.213c-2.899-1.634-4.371-2.761-9.402-2.761l-256.868,0.53   c-0.651-11.794-0.161-15.983,10.978-15.983H735.269z"
   fill="#232323" />
	<path
   id="path8"
   d="M783.44,654.72c-12.831-4.314-293.882-1.758-332.017-1.758c-9.719,0-13.232,2.189-13.232,11.952   c0,18.164-0.761,34.139,1.135,51.798c5.014,2.075,5.063,2.288,12.096,2.288h321.8c17.389,0,12.131-17.643,12.131-54.087   C785.353,660.731,784.477,657.547,783.44,654.72z M457.033,675.826c1.282-9.517,3-10.333,12.946-10.333h286.745   c5.907,0,6.175,0.383,10.569,2.035l0.49,10.151C758.415,672.867,490.759,674.593,457.033,675.826z"
   fill="#232323" />
	<path
   id="path10"
   d="M843.367,353.871L644.663,485.173c-52.804,34.622-27.442,12.202-57.346,25.175   c-39.23,17.003-54.617,69.179-22.299,107.012c23.452,27.437,81.8,32.721,107.865-13.231c8.201-14.457,3.242-15.185,15.142-26.072   c6.82-6.241,15.257-13.223,21.17-20.077c14.882-17.257,35.654-33.805,52.372-49.969l30.842-31.814   c14.033-13.819,28.275-26.275,42.783-39.786c22.786-21.219,39.098-40.207,62.546-61.207c8.561-7.679,5.008-12.335,4.403-33.905   C864.277,336.389,884.681,326.809,843.367,353.871z M620.584,619.509c-26.463,2.597-61.348-75.968,7.425-75.406   c14.318,0.124,21.645,4.95,32.165,6.209c-3.677-2.141-12.972-15.56-32.851-18.493c-17.046-2.498-31.551,5.539-39.409,13.796   c-7.791,8.201-16.026,22.616-13.462,39.431c2.541,16.647,13.078,24.268,22.406,31.667c-31.839-6.086-63.016-55.931-19.766-91.844   c34.548-28.688,89.191-6.567,95.236,32.98C677.678,592.923,648.836,616.741,620.584,619.509z"
   fill="#232323" />
</g>
</svg>