<?xml version="1.0" encoding="iso-8859-1"?>
<!-- Generator: Adobe Illustrator 16.0.0, SVG Export Plug-In . SVG Version: 6.00 Build 0)  -->
<!DOCTYPE svg PUBLIC "-//W3C//DTD SVG 1.1//EN" "http://www.w3.org/Graphics/SVG/1.1/DTD/svg11.dtd">
<svg xmlns="http://www.w3.org/2000/svg" xmlns:xlink="http://www.w3.org/1999/xlink" version="1.1" id="Capa_1" x="0px" y="0px" width="512px" height="512px" viewBox="0 0 31.403 31.404" style="enable-background:new 0 0 31.403 31.404;" xml:space="preserve">
<g>
	<g>
		<path d="M31.403,21.306c0-4.597-4.388-8.32-9.8-8.32c-5.414,0-9.802,3.725-9.802,8.32c0,4.597,4.388,8.322,9.802,8.322    c1.701,0,3.302-0.369,4.697-1.019l3.863,1.671l-0.447-4.309C30.782,24.642,31.403,23.034,31.403,21.306z M18.301,19.052    c-0.771,0-1.395-0.625-1.395-1.395s0.623-1.395,1.395-1.395c0.77,0,1.393,0.625,1.393,1.395S19.069,19.052,18.301,19.052z     M24.905,19.052c-0.769,0-1.394-0.625-1.394-1.395s0.625-1.395,1.394-1.395c0.771,0,1.396,0.625,1.396,1.395    S25.676,19.052,24.905,19.052z" fill="#006DF0"/>
		<path d="M21.604,11.885c1.515,0,2.957,0.27,4.271,0.755c0.009-0.175,0.03-0.345,0.03-0.521c0-6.074-5.801-10.996-12.953-10.996    C5.799,1.123,0,6.044,0,12.119c0,2.284,0.822,4.408,2.229,6.167L1.638,23.98l5.104-2.213c1.264,0.59,2.661,0.986,4.136,1.189    c-0.111-0.538-0.179-1.087-0.179-1.65C10.7,16.111,15.591,11.885,21.604,11.885z M17.317,5.457c1.017,0,1.84,0.824,1.84,1.84    c0,1.018-0.823,1.842-1.84,1.842c-1.019,0-1.841-0.824-1.841-1.842C15.476,6.281,16.301,5.457,17.317,5.457z M8.586,9.139    c-1.017,0-1.84-0.824-1.84-1.842c0-1.016,0.823-1.84,1.84-1.84c1.018,0,1.841,0.824,1.841,1.84    C10.427,8.313,9.603,9.139,8.586,9.139z" fill="#006DF0"/>
	</g>
</g>
<g>
</g>
<g>
</g>
<g>
</g>
<g>
</g>
<g>
</g>
<g>
</g>
<g>
</g>
<g>
</g>
<g>
</g>
<g>
</g>
<g>
</g>
<g>
</g>
<g>
</g>
<g>
</g>
<g>
</g>
</svg>
