<?xml version="1.0" encoding="utf-8"?>
<!-- Designed by Vexels.com - 2018 All Rights Reserved - https://vexels.com/terms-and-conditions/  -->
<svg version="1.1" id="Layer_1" xmlns="http://www.w3.org/2000/svg" xmlns:xlink="http://www.w3.org/1999/xlink" x="0px" y="0px"
	 viewBox="0 0 1200 1200" enable-background="new 0 0 1200 1200" xml:space="preserve">
<g>
	<g>
		<g>
			<g>
				<path fill="#232122" d="M269.27,682.319H87.166c-20.492,0-37.166-16.67-37.166-37.161V208.615
					c0-20.492,16.674-37.161,37.166-37.161h671.663c20.492,0,37.161,16.67,37.161,37.161v156.994c0,5.39-4.37,9.76-9.76,9.76
					s-9.76-4.37-9.76-9.76V208.615c0-9.726-7.915-17.642-17.642-17.642H87.166c-9.731,0-17.647,7.915-17.647,17.642v436.543
					c0,9.726,7.915,17.642,17.647,17.642H269.27c5.39,0,9.76,4.37,9.76,9.76C279.03,677.949,274.66,682.319,269.27,682.319z"/>
			</g>
			<g>
				<path fill="#232122" d="M366.434,682.319H87.166c-20.492,0-37.166-16.67-37.166-37.161v-49.78h316.434
					c5.39,0,9.76,4.37,9.76,9.76s-4.37,9.76-9.76,9.76H69.519v30.261c0,9.726,7.915,17.642,17.647,17.642h279.268
					c5.39,0,9.76,4.37,9.76,9.76C376.193,677.949,371.823,682.319,366.434,682.319z"/>
			</g>
			<g>
				<path fill="#232122" d="M423.529,783.557H316.32V662.8h107.209V783.557z M335.839,764.038h68.17v-81.719h-68.17V764.038z"/>
			</g>
			<g>
				<path fill="#232122" d="M413.769,783.557H243.007c-5.39,0-9.76-4.37-9.76-9.76c0-5.39,4.37-9.76,9.76-9.76h170.762
					c5.39,0,9.76,4.37,9.76,9.76C423.529,779.187,419.159,783.557,413.769,783.557z"/>
			</g>
		</g>
		<g>
			<g>
				<path fill="#232122" d="M658.454,333.361H187.537c-5.39,0-9.76-4.37-9.76-9.76s4.37-9.76,9.76-9.76h470.917
					c5.39,0,9.76,4.37,9.76,9.76S663.843,333.361,658.454,333.361z"/>
			</g>
			<g>
				<path fill="#232122" d="M658.454,399.239H187.537c-5.39,0-9.76-4.37-9.76-9.76s4.37-9.76,9.76-9.76h470.917
					c5.39,0,9.76,4.37,9.76,9.76S663.843,399.239,658.454,399.239z"/>
			</g>
		</g>
	</g>
	<g>
		<g>
			<g>
				<path fill="#232122" d="M1112.834,927.308H441.171c-20.492,0-37.161-16.674-37.161-37.166V453.604
					c0-20.492,16.67-37.166,37.161-37.166h671.663c20.492,0,37.166,16.674,37.166,37.166v436.538
					C1150,910.634,1133.326,927.308,1112.834,927.308z M441.171,435.957c-9.726,0-17.642,7.915-17.642,17.647v436.538
					c0,9.731,7.915,17.647,17.642,17.647h671.663c9.731,0,17.647-7.916,17.647-17.647V453.604c0-9.731-7.916-17.647-17.647-17.647
					H441.171z"/>
			</g>
			<g>
				<path fill="#232122" d="M1112.834,927.308H441.171c-20.492,0-37.161-16.674-37.161-37.166v-49.78H1150v49.78
					C1150,910.634,1133.326,927.308,1112.834,927.308z M423.529,859.881v30.261c0,9.731,7.915,17.647,17.642,17.647h671.663
					c9.731,0,17.647-7.916,17.647-17.647v-30.261H423.529z"/>
			</g>
			<g>
				<path fill="#232122" d="M883.68,1028.547H670.324V907.789H883.68V1028.547z M689.844,1009.027h174.317v-81.719H689.844V1009.027
					z"/>
			</g>
			<g>
				<path fill="#232122" d="M956.993,1028.547H597.012c-5.39,0-9.76-4.37-9.76-9.76s4.37-9.76,9.76-9.76h359.981
					c5.39,0,9.76,4.37,9.76,9.76S962.383,1028.547,956.993,1028.547z"/>
			</g>
		</g>
		<g>
			<g>
				<path fill="#232122" d="M1012.463,578.35H541.542c-5.39,0-9.76-4.37-9.76-9.76s4.37-9.76,9.76-9.76h470.921
					c5.39,0,9.76,4.37,9.76,9.76S1017.853,578.35,1012.463,578.35z"/>
			</g>
			<g>
				<path fill="#232122" d="M1012.463,644.229H541.542c-5.39,0-9.76-4.37-9.76-9.76s4.37-9.76,9.76-9.76h470.921
					c5.39,0,9.76,4.37,9.76,9.76S1017.853,644.229,1012.463,644.229z"/>
			</g>
			<g>
				<path fill="#232122" d="M1012.463,710.107H541.542c-5.39,0-9.76-4.37-9.76-9.76c0-5.39,4.37-9.76,9.76-9.76h470.921
					c5.39,0,9.76,4.37,9.76,9.76C1022.223,705.737,1017.853,710.107,1012.463,710.107z"/>
			</g>
		</g>
	</g>
	<g>
		<g>
			<path fill="#232122" d="M1017.5,386.039c-0.11,0-0.219,0-0.329-0.005c-5.385-0.181-9.607-4.689-9.431-10.079
				c0.014-0.472,0.877-50.467-40.945-88.49c-41.827-38.024-114.343-26.93-115.058-26.811c-5.371,0.796-10.332-2.773-11.185-8.082
				c-0.858-5.318,2.75-10.327,8.068-11.189c3.336-0.538,82.453-12.767,131.308,31.643c48.708,44.281,47.402,101.176,47.321,103.578
				C1027.074,381.879,1022.742,386.039,1017.5,386.039z"/>
		</g>
		<g>
			<path fill="#232122" d="M886.359,326.322c-3.198,0-6.333-1.568-8.201-4.456l-48.861-75.462l70-45.782
				c4.513-2.95,10.56-1.682,13.51,2.826c2.95,4.513,1.687,10.56-2.826,13.51l-53.74,35.146l38.3,59.154
				c2.931,4.522,1.639,10.565-2.888,13.496C890.014,325.817,888.174,326.322,886.359,326.322z"/>
		</g>
	</g>
	<g>
		<g>
			<path fill="#232122" d="M350.941,977.713c-28.274,0-71.597-5.333-102.677-33.587c-48.708-44.281-47.402-101.176-47.321-103.578
				c0.181-5.385,4.718-9.517,10.079-9.431c5.385,0.181,9.607,4.689,9.431,10.079c-0.014,0.472-0.877,50.467,40.945,88.49
				c41.817,38.014,114.343,26.935,115.058,26.815c5.29-0.839,10.327,2.759,11.185,8.082c0.858,5.318-2.754,10.327-8.068,11.189
				C378.357,975.969,367.106,977.713,350.941,977.713z"/>
		</g>
		<g>
			<path fill="#232122" d="M323.563,1018.124c-3.183,0-6.305-1.554-8.178-4.418c-2.95-4.513-1.687-10.56,2.826-13.51l53.74-35.15
				l-38.3-59.149c-2.931-4.522-1.639-10.565,2.888-13.496c4.527-2.94,10.565-1.639,13.496,2.888l48.861,75.457l-70,45.787
				C327.247,1017.61,325.393,1018.124,323.563,1018.124z"/>
		</g>
	</g>
</g>
</svg>
