<svg id="Layer_1" data-name="Layer 1" xmlns="http://www.w3.org/2000/svg" viewBox="0 0 252.58 256"><defs><style>.cls-1{fill:#282828;}.cls-2{fill:#dbd371;}.cls-3{fill:#faf28e;}.cls-4{fill:#fff;}.cls-5{fill:#46b973;}.cls-6{fill:#27a05c;}.cls-7{fill:#eaeaea;}.cls-8{fill:#6ec285;}</style></defs><path class="cls-1" d="M6,177.25c6.46,13.33,28.63,43.19,70.17,24.75-1.42-12.8-11.45-22.83-11.45-22.83Z" transform="translate(-1.71 0)"/><path class="cls-2" d="M196,113.38a47.71,47.71,0,0,0-18.51-3.72H86.87c-3.55,2-6.72,3.73-9,5l-.09.05-.09.06c-2.43,1.42-28.88,16.89-39.34,23.17-11,6.58-19.46,1.07-25-11.85a47.75,47.75,0,1,0,73.78,60.59h52.6A47.76,47.76,0,1,0,196,113.38Z" transform="translate(-1.71 0)"/><path class="cls-3" d="M170.1,197.14a41.35,41.35,0,0,1-32.83-16.06,4.1,4.1,0,0,0-3.25-1.59H83.68a4.1,4.1,0,0,0-3.25,1.59,42.09,42.09,0,0,1-13.14,11.11,41.6,41.6,0,0,1-54.85-58.86c5.31,8.44,11.48,10.41,16.07,10.41a20.62,20.62,0,0,0,10.59-3.25c8.65-5.19,28.9-17.06,37.21-21.92l.58-.34c1.8-1,4.34-2.49,7.57-4.27H170.1a41.57,41.57,0,0,1,41.59,41.59A41.64,41.64,0,0,1,170.1,197.14Z" transform="translate(-1.71 0)"/><path class="cls-4" d="M202.12,139.72a2.13,2.13,0,0,1-1.87-1.09,35.36,35.36,0,0,0-17-15.06,34.89,34.89,0,0,0-13.61-2.73H94.91a2.15,2.15,0,1,1,0-4.3h74.76A39.23,39.23,0,0,1,185,119.61a39.67,39.67,0,0,1,19,16.9,2.15,2.15,0,0,1-1.87,3.21Z" transform="translate(-1.71 0)"/><path class="cls-5" d="M146.4,8.45C118.73-12.63,60,9.45,36.62,33.92c-29,30.3-30.3,75.74-23.24,92.22,5.54,12.92,14,18.43,25,11.85,10.46-6.28,36.91-21.75,39.34-23.17l.09-.06.09-.05c2.25-1.32,5.42-3.09,9-5h88.36C176.76,50.82,172.65,28.45,146.4,8.45Z" transform="translate(-1.71 0)"/><path class="cls-6" d="M77.81,114.76l.09-.05c2.25-1.32,5.42-3.09,9-5h88.36c1.53-58.84-2.58-81.21-28.83-101.21a38.83,38.83,0,0,0-12.73-6.27c25.68,14.46,14.24,57.45-2.23,68.21s-70.89,44-85.6,51.88-24.91,8.36-29.69,3.33l-1.84,2.58c5.54,11.44,13.69,16,24.07,9.81s36.91-21.75,39.34-23.17Z" transform="translate(-1.71 0)"/><path class="cls-1" d="M77.31,74.07a80.32,80.32,0,0,1,34.4-.51c-2.64-1.86-4.72-3.17-4.72-3.17s6.58-7.12,6.36-17S103.5,30.33,88,30.21C79,57.31,77.31,74.07,77.31,74.07Z" transform="translate(-1.71 0)"/><path class="cls-5" d="M242.12,68.17s-.85,48.72-2.33,82.53c-1.31,30-12.39,61.57-36,83.57-22.39,20.9-65.76,28-93.86,15.69-23.58-10.32-33.87-27.75-37.87-50.48a47.8,47.8,0,0,0,15.08-12.75h52.6A47.76,47.76,0,1,0,196,113.38c2.76-30.37,9.46-58.8,19.37-67.61,11.85-10.53,32-7.9,37.76,2.2S242.12,68.17,242.12,68.17Z" transform="translate(-1.71 0)"/><path class="cls-6" d="M253.1,48c-2.85-5-9.33-8.23-16.57-8.84h0C252,51.69,238.61,63,219.07,76c4.17,1.75,12.29,1.09,12.29,1.09s.44,32.72-8.34,55.77c-.71,1.88-1.4,3.5-2,4.88a47.76,47.76,0,0,1-81.22,49H87.16a47.8,47.8,0,0,1-15.08,12.75c4,22.73,14.29,40.16,37.87,50.48,28.1,12.29,71.47,5.21,93.86-15.69,23.59-22,34.67-53.59,36-83.57,1.48-33.81,2.33-82.53,2.33-82.53S258.81,58.07,253.1,48Z" transform="translate(-1.71 0)"/><path class="cls-1" d="M226.7,165.41a47.7,47.7,0,0,0-2.09-15.6,47.76,47.76,0,0,1-84.85,36.92H87.16a47.8,47.8,0,0,1-15.08,12.75c.18,1,.37,2,.57,3a47.74,47.74,0,0,0,15.14-12.1L140.36,192a47.75,47.75,0,0,0,86.34-26.59Z" transform="translate(-1.71 0)"/><path class="cls-1" d="M71,23c.25-.34.52-.67.79-1s.57-.63.87-.94a11,11,0,0,1,.93-.88c.15-.15.32-.29.48-.43s.33-.27.5-.4l.51-.4a6.3,6.3,0,0,1,.53-.37c.35-.25.71-.48,1.08-.72l1.12-.65c.38-.21.77-.4,1.16-.59a25.76,25.76,0,0,1,15.4-2,24.16,24.16,0,0,1,5,1.45A21,21,0,0,1,107.69,22c-1.62-.56-3.15-1.12-4.69-1.57a46.68,46.68,0,0,0-4.6-1.13,41.94,41.94,0,0,0-9.18-.78,41.39,41.39,0,0,0-4.57.37,46.09,46.09,0,0,0-4.54.9c-.37.11-.76.18-1.13.3l-1.14.33c-.74.24-1.51.48-2.26.76l-.57.2-.57.22L73.3,22l-.57.23c-.2.08-.39.15-.58.24C71.77,22.63,71.38,22.8,71,23Z" transform="translate(-1.71 0)"/><path class="cls-1" d="M42.82,106.81a6.06,6.06,0,0,1-1.08,3.48A6.13,6.13,0,0,1,36.67,113a6.05,6.05,0,0,1-2.81-.69,6.15,6.15,0,1,1,9-5.46Z" transform="translate(-1.71 0)"/><path class="cls-1" d="M137.39,76.65s-87,51.25-97.59,56.19-14.49,5.27-20.42-4.61c-5.08-8.48-11.52-35.79-2.66-62.16-9.07,24.17-8.15,48.84-3.34,60.07,5.54,12.92,14,18.43,25,11.85,10.46-6.28,36.91-21.75,39.34-23.17l.09-.06.09-.05c2.25-1.32,5.42-3.09,9-5h20.51Z" transform="translate(-1.71 0)"/><path class="cls-1" d="M253.1,48c-2.85-5-9.33-8.23-16.57-8.84,5.71,2.95,10,7.48,9.76,11.38C246,56.77,244,62,229.5,73.56a75.55,75.55,0,0,0,9.88-3.17s1,64.08-3.95,93.75-18.78,61.24-43.81,75.4-64.87,18.78-89.24-4.61a58.12,58.12,0,0,1-18.09-44.85,51.31,51.31,0,0,1-12.69,9.66c4,22.73,14.77,39.9,38.35,50.22,28.1,12.29,71.47,5.21,93.86-15.69,23.59-22,34.67-53.59,36-83.57,1.48-33.81,2.33-82.53,2.33-82.53S258.81,58.07,253.1,48Z" transform="translate(-1.71 0)"/><path class="cls-1" d="M154.47,15.37c5.61,8.25,11.4,18.88,13.11,29.51,3.46,21.41,3.54,41.67,2.15,64.78h5.5C176.58,57.47,173.5,34,154.47,15.37Z" transform="translate(-1.71 0)"/><path class="cls-1" d="M76,92.26s.85,18.12-17,30l4.5-.63,7.74-4.47s8.29-12.1,6.38-24.73C77.53,92.11,76,92.26,76,92.26Z" transform="translate(-1.71 0)"/><path class="cls-1" d="M68.09,94.35s9.13-4.94,16.06,1.17a7,7,0,0,0,.86-.68s-1.8-4.1-8.45-4.46-9.21,3.44-9.21,3.44Z" transform="translate(-1.71 0)"/><path class="cls-7" d="M77.31,74.07a94.15,94.15,0,0,1,17.38-2c2.39-.06,4.73,0,7,.05a23.22,23.22,0,1,0-24.36,1.92Z" transform="translate(-1.71 0)"/><path class="cls-4" d="M105.59,48.17a22.15,22.15,0,0,0-5.31-14.42A23.22,23.22,0,0,0,66.75,62.91a22.22,22.22,0,0,0,38.84-14.74Z" transform="translate(-1.71 0)"/><path class="cls-1" d="M88.13,44.88a6.4,6.4,0,0,1,.31,2A6.48,6.48,0,0,1,82,53.33a6.38,6.38,0,0,1-2.48-.49,5.68,5.68,0,0,0,0,.59,8.56,8.56,0,1,0,8.68-8.55Z" transform="translate(-1.71 0)"/><path class="cls-2" d="M135.93,149.74H123a3,3,0,0,0-3,3v.86a3,3,0,0,0,3,3h12.93a3,3,0,0,0,3-3v-.86A3,3,0,0,0,135.93,149.74Zm-30.52,0H92.48a3,3,0,0,0-3,3v.86a3,3,0,0,0,3,3h12.93a3,3,0,0,0,3-3v-.86A3,3,0,0,0,105.41,149.74Zm54.37,4.39a6.59,6.59,0,1,0,9.31,0A6.6,6.6,0,0,0,159.78,154.13Zm-100.09-.48h-4.1a3,3,0,0,1-3-3v-4.1a3,3,0,0,0-3-3H45.05a3,3,0,0,0-3,3v4.1a3,3,0,0,1-3,3H35a3,3,0,0,0-3,3v4.59a3,3,0,0,0,3,3H39.1a3,3,0,0,1,3,3v4.09a3,3,0,0,0,3,3h4.59a3,3,0,0,0,3-3v-4.09a3,3,0,0,1,3-3h4.1a3,3,0,0,0,3-3v-4.59A3,3,0,0,0,59.69,153.65Zm116.2-5.71a6.59,6.59,0,1,0,.11-10q-.21.18-.42.39a6.6,6.6,0,0,0,0,9.32ZM201,154.4a6.58,6.58,0,0,0-5.3-1.9,6.58,6.58,0,1,0,5.3,11.21A6.58,6.58,0,0,0,201,154.4Zm-24.67,15.39h0a5.62,5.62,0,0,0-.44.41,6.57,6.57,0,0,0,0,9.31,6.36,6.36,0,0,0,1.27,1,6.59,6.59,0,1,0-.83-10.72Z" transform="translate(-1.71 0)"/><path class="cls-1" d="M134.42,148.23H121.5a3,3,0,0,0-3,3v.85a3,3,0,0,0,3,3h12.92a3,3,0,0,0,3-3v-.85A3,3,0,0,0,134.42,148.23Zm-30.52,0H91a3,3,0,0,0-3,3v.85a3,3,0,0,0,3,3H103.9a3,3,0,0,0,3-3v-.85A3,3,0,0,0,103.9,148.23Zm54.37,4.4a6.59,6.59,0,1,0,9.32,0A6.58,6.58,0,0,0,158.27,152.63Zm-100.09-.48h-4.1a3,3,0,0,1-3-3v-4.09a3,3,0,0,0-3-3H43.55a3,3,0,0,0-3,3v4.09a3,3,0,0,1-3,3H33.5a3,3,0,0,0-3,3v4.59a3,3,0,0,0,3,3h4.1a3,3,0,0,1,3,3v4.1a3,3,0,0,0,3,3h4.59a3,3,0,0,0,3-3v-4.1a3,3,0,0,1,3-3h4.1a3,3,0,0,0,3-3v-4.59A3,3,0,0,0,58.18,152.15Zm116.2-5.72a6.59,6.59,0,1,0,.12-10,5.22,5.22,0,0,0-.43.39,6.58,6.58,0,0,0,0,9.31Zm25.08,6.46a6.59,6.59,0,1,0,0,9.32A6.63,6.63,0,0,0,199.46,152.89Zm-24.67,15.4h0a5.6,5.6,0,0,0-.45.4,6.68,6.68,0,1,0,.45-.4Z" transform="translate(-1.71 0)"/><path class="cls-8" d="M220.61,46.56c7-6.32,14.2-2.89,16,0,3.52,5.58-1.75,12.4-11.41,15.42S207.21,58.63,220.61,46.56Z" transform="translate(-1.71 0)"/><path class="cls-8" d="M27.56,52.14C17.24,71.92,14.45,89.23,17.08,100.66S28.15,81,34.53,66.07C41.94,48.7,50.34,39.31,55.28,35s3.13-14.38-5.43-7.59S31.72,44.15,27.56,52.14Z" transform="translate(-1.71 0)"/></svg>