<?xml version="1.0" encoding="UTF-8" standalone="no"?>
<!-- Created with Inkscape (http://www.inkscape.org/) -->

<svg
   xmlns:dc="http://purl.org/dc/elements/1.1/"
   xmlns:cc="http://creativecommons.org/ns#"
   xmlns:rdf="http://www.w3.org/1999/02/22-rdf-syntax-ns#"
   xmlns:svg="http://www.w3.org/2000/svg"
   xmlns="http://www.w3.org/2000/svg"
   xmlns:sodipodi="http://sodipodi.sourceforge.net/DTD/sodipodi-0.dtd"
   xmlns:inkscape="http://www.inkscape.org/namespaces/inkscape"
   width="95.954338"
   height="95.954338"
   id="svg2"
   version="1.1"
   inkscape:version="0.48.4 r9939"
   sodipodi:docname="bumper.svg"
   inkscape:export-filename="C:\Users\craven\Desktop\WebServer\arcade\examples\images\bumper.png"
   inkscape:export-xdpi="90"
   inkscape:export-ydpi="90">
  <defs
     id="defs4" />
  <sodipodi:namedview
     id="base"
     pagecolor="#ffffff"
     bordercolor="#666666"
     borderopacity="1.0"
     inkscape:pageopacity="0.0"
     inkscape:pageshadow="2"
     inkscape:zoom="3.959798"
     inkscape:cx="-18.856048"
     inkscape:cy="41.144234"
     inkscape:document-units="px"
     inkscape:current-layer="layer1"
     showgrid="false"
     inkscape:window-width="1422"
     inkscape:window-height="895"
     inkscape:window-x="26"
     inkscape:window-y="26"
     inkscape:window-maximized="0"
     showguides="true"
     inkscape:guide-bbox="true"
     fit-margin-top="0"
     fit-margin-left="0"
     fit-margin-right="0"
     fit-margin-bottom="0" />
  <metadata
     id="metadata7">
    <rdf:RDF>
      <cc:Work
         rdf:about="">
        <dc:format>image/svg+xml</dc:format>
        <dc:type
           rdf:resource="http://purl.org/dc/dcmitype/StillImage" />
        <dc:title></dc:title>
      </cc:Work>
    </rdf:RDF>
  </metadata>
  <g
     inkscape:label="Layer 1"
     inkscape:groupmode="layer"
     id="layer1"
     transform="translate(-62.129459,-72.014217)">
    <path
       sodipodi:type="arc"
       style="fill:#ff0000;fill-rule:evenodd;stroke:#000000;stroke-width:1px;stroke-linecap:butt;stroke-linejoin:miter;stroke-opacity:1"
       id="path2985"
       sodipodi:cx="110.10663"
       sodipodi:cy="119.99139"
       sodipodi:rx="47.477169"
       sodipodi:ry="47.477169"
       d="m 157.5838,119.99139 c 0,26.22091 -21.25626,47.47717 -47.47717,47.47717 -26.220918,0 -47.477171,-21.25626 -47.477171,-47.47717 0,-26.22092 21.256253,-47.477173 47.477171,-47.477173 26.22091,0 47.47717,21.256253 47.47717,47.477173 z" />
    <path
       sodipodi:type="star"
       style="fill:#ffff00;fill-rule:evenodd;stroke:#000000;stroke-width:1px;stroke-linecap:butt;stroke-linejoin:miter;stroke-opacity:1"
       id="path2991"
       sodipodi:sides="10"
       sodipodi:cx="78.286819"
       sodipodi:cy="98.525642"
       sodipodi:r1="50.346378"
       sodipodi:r2="25.173187"
       sodipodi:arg1="0.70372968"
       sodipodi:arg2="1.0178889"
       inkscape:flatsided="false"
       inkscape:rounded="0"
       inkscape:randomized="0"
       d="m 116.67262,131.10306 -25.165757,-11.155 -1.313808,27.49588 -13.802775,-23.81665 -17.224565,21.47239 2.832396,-27.38114 -26.556123,7.24719 18.385687,-20.48697 -25.744146,-9.746198 26.916272,-5.76747 -15.09878,-23.01687 25.165755,11.155007 1.313808,-27.495879 13.802775,23.816649 17.224564,-21.472396 -2.832395,27.381141 26.556122,-7.247188 -18.38569,20.486968 25.74415,9.746196 -26.91627,5.76747 z"
       transform="matrix(0.90275471,0,0,0.91785308,38.801484,29.938127)" />
    <path
       sodipodi:type="arc"
       style="fill:#ffffff;fill-opacity:1;fill-rule:evenodd;stroke:#000000;stroke-width:1px;stroke-linecap:butt;stroke-linejoin:miter;stroke-opacity:1"
       id="path2995"
       sodipodi:cx="110.35917"
       sodipodi:cy="121.75915"
       sodipodi:rx="22.475895"
       sodipodi:ry="22.475895"
       d="m 132.83506,121.75915 c 0,12.41309 -10.0628,22.47589 -22.47589,22.47589 -12.413095,0 -22.475896,-10.0628 -22.475896,-22.47589 0,-12.4131 10.062801,-22.475897 22.475896,-22.475897 12.41309,0 22.47589,10.062797 22.47589,22.475897 z"
       transform="translate(-0.75761441,-1.767767)" />
  </g>
</svg>
